<svg width="306" height="267" viewBox="0 0 306 267" fill="none" xmlns="http://www.w3.org/2000/svg">
<g clip-path="url(#clip0_10_121)">
<path d="M275.901 138.951C275.941 171.989 263.194 203.757 240.338 227.575C238.96 229.02 237.545 230.431 236.093 231.806C233.88 233.915 231.593 235.941 229.232 237.886C207.143 256.117 179.567 266.362 150.953 266.968C149.999 266.989 149.042 267 148.082 267C125.261 267 96.5586 254.789 70.511 237.886C68.356 236.488 66.2202 235.057 64.1035 233.594C63.1141 232.916 62.1296 232.229 61.1498 231.532C51.1036 224.426 41.5678 216.622 32.6126 208.178C26.7494 202.666 21.2512 196.776 16.1531 190.547C-3.86107 165.816 -8.27548 143.532 20.2581 138.951C23.6363 138.41 26.915 137.833 30.0942 137.218C34.6993 136.331 39.1065 135.373 43.3159 134.345C48.9859 132.965 54.3129 131.468 59.297 129.854C60.9735 129.314 62.6117 128.762 64.2115 128.2C87.8629 119.878 103.693 109.026 114.468 97.252C116.296 95.2589 117.981 93.2419 119.523 91.2008C121.882 88.094 124.026 84.8282 125.938 81.4265C128.576 76.7002 130.793 71.7493 132.561 66.6318L132.658 66.3507C141.232 41.5763 138.623 18.5968 148.082 10.9057C188.513 -21.9742 238.849 24.8499 262.475 80.0678C263.666 82.8501 264.786 85.6493 265.835 88.4653C266.306 89.7231 266.761 90.9833 267.199 92.2459C268.35 95.5364 269.394 98.8354 270.332 102.143C270.692 103.404 271.035 104.664 271.361 105.923C271.71 107.282 272.045 108.637 272.354 109.992C274.653 119.914 275.901 129.699 275.901 138.951Z" fill="#F2F2F2"/>
<path d="M150.953 266.968C149.999 266.989 149.042 267 148.082 267C125.261 267 96.5586 254.789 70.5111 237.886C68.356 236.488 66.2202 235.057 64.1035 233.594L65.9599 222.277L122.16 214.802L150.366 236.409L150.953 266.968Z" fill="#2F2E41"/>
<path d="M153.658 64.8911H145.649C145.401 64.8912 145.164 64.99 144.988 65.1657C144.813 65.3414 144.714 65.5796 144.714 65.8281V73.8544C144.714 73.9772 144.739 74.0988 144.786 74.2123C144.833 74.3257 144.902 74.4287 144.989 74.5154C145.075 74.6021 145.179 74.6708 145.292 74.7176C145.405 74.7643 145.527 74.7882 145.649 74.7878H153.658C153.905 74.7879 154.143 74.6897 154.318 74.5148C154.494 74.3398 154.593 74.1023 154.593 73.8544V65.8281C154.593 65.5798 154.494 65.3419 154.319 65.1663C154.143 64.9908 153.906 64.8918 153.658 64.8911Z" fill="white"/>
<path d="M153.658 78.5685H145.649C145.401 78.5687 145.164 78.6674 144.988 78.8431C144.813 79.0188 144.714 79.2571 144.714 79.5056V87.5319C144.714 87.6547 144.739 87.7763 144.786 87.8898C144.833 88.0032 144.902 88.1062 144.989 88.1929C145.075 88.2796 145.179 88.3483 145.292 88.395C145.405 88.4418 145.527 88.4657 145.649 88.4653H153.658C153.905 88.4654 154.143 88.3672 154.318 88.1922C154.494 88.0173 154.593 87.7798 154.593 87.5319V79.5056C154.593 79.2573 154.494 79.0194 154.319 78.8438C154.143 78.6682 153.906 78.5693 153.658 78.5685Z" fill="#83F1C5"/>
<path d="M153.658 92.2459H145.649C145.401 92.2461 145.164 92.3448 144.988 92.5206C144.813 92.6963 144.714 92.9345 144.714 93.183V101.206C144.714 101.329 144.738 101.451 144.785 101.565C144.832 101.678 144.901 101.782 144.988 101.869C145.074 101.956 145.178 102.025 145.291 102.072C145.405 102.119 145.527 102.143 145.649 102.143H153.658C153.906 102.143 154.144 102.044 154.319 101.868C154.495 101.692 154.593 101.454 154.593 101.206V93.183C154.593 92.9347 154.494 92.6968 154.319 92.5212C154.143 92.3456 153.906 92.2467 153.658 92.2459Z" fill="#E6E6E6"/>
<path d="M154.579 106.695C154.539 106.479 154.425 106.284 154.257 106.143C154.089 106.002 153.877 105.924 153.658 105.923H145.649C145.401 105.924 145.164 106.022 144.988 106.198C144.813 106.374 144.714 106.612 144.714 106.86V114.883C144.714 115.006 144.738 115.128 144.785 115.242C144.832 115.356 144.901 115.459 144.988 115.546C145.074 115.633 145.178 115.702 145.291 115.749C145.405 115.796 145.527 115.82 145.649 115.82H153.658C153.906 115.82 154.144 115.721 154.319 115.546C154.495 115.37 154.593 115.132 154.593 114.883V106.86C154.594 106.805 154.589 106.749 154.579 106.695Z" fill="#E6E6E6"/>
<path d="M154.021 119.673C153.906 119.625 153.783 119.601 153.658 119.601H145.649C145.527 119.601 145.405 119.625 145.291 119.672C145.178 119.719 145.074 119.788 144.988 119.875C144.901 119.962 144.832 120.065 144.785 120.179C144.738 120.293 144.714 120.415 144.714 120.538V128.561C144.714 128.684 144.737 128.806 144.784 128.92C144.831 129.034 144.9 129.137 144.987 129.224C145.074 129.312 145.177 129.381 145.291 129.427C145.405 129.474 145.526 129.498 145.649 129.498H153.658C153.906 129.498 154.144 129.399 154.319 129.223C154.495 129.047 154.593 128.809 154.593 128.561V120.538C154.593 120.353 154.539 120.173 154.437 120.019C154.335 119.866 154.191 119.745 154.021 119.673Z" fill="#E6E6E6"/>
<path d="M170.481 64.8911H162.472C162.224 64.8912 161.987 64.99 161.811 65.1657C161.636 65.3414 161.537 65.5796 161.537 65.8281V73.8544C161.537 73.9772 161.562 74.0988 161.609 74.2123C161.656 74.3257 161.725 74.4287 161.812 74.5154C161.898 74.6021 162.001 74.6708 162.115 74.7176C162.228 74.7643 162.35 74.7882 162.472 74.7878H170.481C170.728 74.7879 170.966 74.6897 171.141 74.5148C171.317 74.3398 171.416 74.1023 171.416 73.8544V65.8281C171.416 65.5798 171.317 65.3419 171.142 65.1663C170.966 64.9908 170.729 64.8918 170.481 64.8911Z" fill="#83F1C5"/>
<path d="M170.481 78.5685H162.472C162.224 78.5687 161.987 78.6674 161.811 78.8431C161.636 79.0188 161.537 79.2571 161.537 79.5056V87.5319C161.537 87.6547 161.562 87.7763 161.609 87.8898C161.656 88.0032 161.725 88.1062 161.812 88.1929C161.898 88.2796 162.001 88.3483 162.115 88.395C162.228 88.4418 162.35 88.4657 162.472 88.4653H170.481C170.728 88.4654 170.966 88.3672 171.141 88.1922C171.317 88.0173 171.416 87.7798 171.416 87.5319V79.5056C171.416 79.2573 171.317 79.0194 171.142 78.8438C170.966 78.6682 170.729 78.5693 170.481 78.5685Z" fill="white"/>
<path d="M170.481 92.2459H162.472C162.224 92.2461 161.987 92.3448 161.811 92.5206C161.636 92.6963 161.537 92.9345 161.537 93.183V101.206C161.537 101.329 161.561 101.451 161.608 101.565C161.655 101.678 161.724 101.782 161.81 101.869C161.897 101.956 162.001 102.025 162.114 102.072C162.228 102.119 162.35 102.143 162.472 102.143H170.481C170.729 102.143 170.967 102.044 171.142 101.868C171.318 101.692 171.416 101.454 171.416 101.206V93.183C171.416 92.9347 171.317 92.6968 171.142 92.5212C170.966 92.3456 170.729 92.2467 170.481 92.2459Z" fill="white"/>
<path d="M170.481 105.923H162.472C162.276 105.924 162.085 105.986 161.926 106.101C161.767 106.216 161.649 106.378 161.587 106.565C161.554 106.66 161.537 106.76 161.537 106.86V114.883C161.537 115.006 161.561 115.128 161.608 115.242C161.655 115.356 161.724 115.459 161.81 115.546C161.897 115.633 162.001 115.702 162.114 115.749C162.228 115.796 162.35 115.82 162.472 115.82H170.481C170.729 115.82 170.967 115.721 171.142 115.546C171.318 115.37 171.416 115.132 171.416 114.883V106.86C171.416 106.612 171.317 106.374 171.142 106.199C170.966 106.023 170.729 105.924 170.481 105.923Z" fill="white"/>
<path d="M170.481 119.601H162.472C162.35 119.601 162.228 119.625 162.114 119.672C162.001 119.719 161.897 119.788 161.81 119.875C161.724 119.962 161.655 120.065 161.608 120.179C161.561 120.293 161.537 120.415 161.537 120.538V128.561C161.537 128.684 161.561 128.806 161.608 128.919C161.655 129.033 161.724 129.137 161.81 129.224C161.897 129.311 162.001 129.38 162.114 129.427C162.228 129.474 162.35 129.498 162.472 129.498H170.481C170.729 129.498 170.967 129.399 171.142 129.223C171.318 129.047 171.416 128.809 171.416 128.561V120.538C171.416 120.289 171.318 120.051 171.142 119.875C170.967 119.7 170.729 119.601 170.481 119.601Z" fill="#E6E6E6"/>
<path d="M187.304 64.8911H179.295C179.047 64.8912 178.81 64.99 178.634 65.1657C178.459 65.3414 178.36 65.5796 178.36 65.8281V73.8544C178.36 73.9772 178.384 74.0988 178.432 74.2123C178.479 74.3257 178.548 74.4287 178.634 74.5154C178.721 74.6021 178.824 74.6708 178.938 74.7176C179.051 74.7643 179.173 74.7882 179.295 74.7878H187.304C187.551 74.7879 187.789 74.6897 187.964 74.5148C188.14 74.3398 188.238 74.1023 188.239 73.8544V65.8281C188.239 65.5798 188.14 65.3419 187.965 65.1663C187.789 64.9908 187.552 64.8918 187.304 64.8911Z" fill="white"/>
<path d="M187.304 78.5685H179.295C179.047 78.5687 178.81 78.6674 178.634 78.8431C178.459 79.0188 178.36 79.2571 178.36 79.5056V87.5319C178.36 87.6547 178.384 87.7763 178.432 87.8898C178.479 88.0032 178.548 88.1062 178.634 88.1929C178.721 88.2796 178.824 88.3483 178.938 88.395C179.051 88.4418 179.173 88.4657 179.295 88.4653H187.304C187.551 88.4654 187.789 88.3672 187.964 88.1922C188.14 88.0173 188.239 87.7798 188.239 87.5319V79.5056C188.239 79.2573 188.14 79.0194 187.965 78.8438C187.789 78.6682 187.552 78.5693 187.304 78.5685Z" fill="white"/>
<path d="M187.304 92.2459H179.295C179.047 92.2461 178.81 92.3448 178.634 92.5206C178.459 92.6963 178.36 92.9345 178.36 93.183V101.206C178.36 101.329 178.384 101.451 178.431 101.565C178.478 101.678 178.547 101.782 178.633 101.869C178.72 101.956 178.824 102.025 178.937 102.072C179.051 102.119 179.173 102.143 179.295 102.143H187.304C187.552 102.143 187.79 102.044 187.965 101.868C188.141 101.692 188.239 101.454 188.239 101.206V93.183C188.239 92.9347 188.14 92.6968 187.965 92.5212C187.789 92.3456 187.552 92.2467 187.304 92.2459Z" fill="#83F1C5"/>
<path d="M187.304 105.923H179.295C179.047 105.924 178.81 106.022 178.634 106.198C178.459 106.374 178.36 106.612 178.36 106.86V114.883C178.36 115.006 178.384 115.128 178.431 115.242C178.478 115.356 178.547 115.459 178.633 115.546C178.72 115.633 178.824 115.702 178.937 115.749C179.051 115.796 179.172 115.82 179.295 115.82H187.304C187.552 115.82 187.79 115.721 187.965 115.546C188.141 115.37 188.239 115.132 188.239 114.883V106.86C188.239 106.612 188.14 106.374 187.965 106.199C187.789 106.023 187.552 105.924 187.304 105.923Z" fill="white"/>
<path d="M187.304 119.601H179.295C179.172 119.601 179.051 119.625 178.937 119.672C178.824 119.719 178.72 119.788 178.633 119.875C178.547 119.962 178.478 120.065 178.431 120.179C178.384 120.293 178.36 120.415 178.36 120.538V128.561C178.36 128.684 178.384 128.806 178.431 128.919C178.478 129.033 178.547 129.137 178.633 129.224C178.72 129.311 178.824 129.38 178.937 129.427C179.051 129.474 179.172 129.498 179.295 129.498H187.304C187.552 129.498 187.79 129.399 187.965 129.223C188.141 129.047 188.239 128.809 188.239 128.561V120.538C188.239 120.289 188.141 120.051 187.965 119.875C187.79 119.7 187.552 119.601 187.304 119.601Z" fill="white"/>
<path d="M204.127 64.8911H196.118C195.87 64.8912 195.632 64.99 195.457 65.1657C195.282 65.3414 195.183 65.5796 195.183 65.8281V73.8544C195.183 73.9772 195.207 74.0988 195.254 74.2123C195.302 74.3257 195.371 74.4287 195.457 74.5154C195.544 74.6021 195.647 74.6708 195.761 74.7176C195.874 74.7643 195.996 74.7882 196.118 74.7878H204.127C204.374 74.7879 204.612 74.6897 204.787 74.5148C204.962 74.3398 205.061 74.1023 205.062 73.8544V65.8281C205.062 65.5798 204.963 65.3419 204.787 65.1663C204.612 64.9908 204.375 64.8918 204.127 64.8911Z" fill="white"/>
<path d="M204.127 78.5685H196.118C195.87 78.5687 195.632 78.6674 195.457 78.8431C195.282 79.0188 195.183 79.2571 195.183 79.5056V87.5319C195.183 87.6547 195.207 87.7763 195.254 87.8898C195.302 88.0032 195.371 88.1062 195.457 88.1929C195.544 88.2796 195.647 88.3483 195.761 88.395C195.874 88.4418 195.996 88.4657 196.118 88.4653H204.127C204.374 88.4654 204.612 88.3672 204.787 88.1922C204.962 88.0173 205.061 87.7798 205.062 87.5319V79.5056C205.062 79.2573 204.963 79.0194 204.788 78.8438C204.612 78.6682 204.375 78.5693 204.127 78.5685Z" fill="white"/>
<path d="M204.127 92.2459H196.118C195.87 92.2461 195.632 92.3448 195.457 92.5205C195.282 92.6963 195.183 92.9345 195.183 93.183V101.206C195.183 101.329 195.207 101.451 195.254 101.565C195.301 101.678 195.369 101.782 195.456 101.869C195.543 101.956 195.646 102.025 195.76 102.072C195.874 102.119 195.995 102.143 196.118 102.143H204.127C204.375 102.143 204.613 102.044 204.788 101.868C204.964 101.692 205.062 101.454 205.062 101.206V93.183C205.062 92.9347 204.963 92.6968 204.788 92.5212C204.612 92.3456 204.375 92.2467 204.127 92.2459Z" fill="white"/>
<path d="M204.127 105.923H196.118C195.87 105.923 195.632 106.022 195.457 106.198C195.282 106.374 195.183 106.612 195.183 106.86V114.883C195.183 115.006 195.207 115.128 195.254 115.242C195.301 115.356 195.369 115.459 195.456 115.546C195.543 115.633 195.646 115.702 195.76 115.749C195.874 115.796 195.995 115.82 196.118 115.82H204.127C204.375 115.82 204.613 115.721 204.788 115.546C204.964 115.37 205.062 115.132 205.062 114.883V106.86C205.062 106.612 204.963 106.374 204.788 106.199C204.612 106.023 204.375 105.924 204.127 105.923Z" fill="#83F1C5"/>
<path d="M204.127 119.601H196.118C195.995 119.601 195.874 119.625 195.76 119.672C195.646 119.719 195.543 119.788 195.456 119.875C195.369 119.962 195.301 120.065 195.254 120.179C195.207 120.293 195.183 120.415 195.183 120.538V128.561C195.183 128.684 195.207 128.806 195.254 128.919C195.301 129.033 195.369 129.137 195.456 129.224C195.543 129.311 195.646 129.38 195.76 129.427C195.874 129.474 195.995 129.498 196.118 129.498H204.127C204.375 129.498 204.613 129.399 204.788 129.223C204.964 129.047 205.062 128.809 205.062 128.561V120.538C205.062 120.289 204.964 120.051 204.788 119.875C204.613 119.7 204.375 119.601 204.127 119.601Z" fill="white"/>
<path d="M220.95 64.8911H212.938C212.69 64.892 212.453 64.9911 212.278 65.1667C212.104 65.3424 212.006 65.5802 212.006 65.8281V73.8544C212.006 74.1019 212.104 74.3393 212.279 74.5144C212.454 74.6894 212.691 74.7878 212.938 74.7879H220.95C221.197 74.788 221.435 74.6898 221.61 74.5148C221.785 74.3398 221.884 74.1023 221.885 73.8544V65.8281C221.884 65.5798 221.786 65.3419 221.61 65.1663C221.435 64.9908 221.198 64.8918 220.95 64.8911Z" fill="white"/>
<path d="M220.95 78.5685H212.938C212.69 78.5694 212.453 78.6685 212.278 78.8442C212.104 79.0198 212.006 79.2577 212.006 79.5056V87.5318C212.006 87.7794 212.104 88.0168 212.279 88.1919C212.454 88.3669 212.691 88.4653 212.938 88.4653H220.95C221.197 88.4654 221.435 88.3672 221.61 88.1922C221.785 88.0173 221.884 87.7798 221.885 87.5318V79.5056C221.884 79.2573 221.786 79.0194 221.61 78.8438C221.435 78.6682 221.198 78.5693 220.95 78.5685Z" fill="white"/>
<path d="M220.95 92.2459H212.938C212.69 92.2468 212.453 92.3459 212.278 92.5216C212.104 92.6972 212.006 92.9351 212.006 93.183V101.206C212.006 101.329 212.029 101.45 212.076 101.564C212.123 101.677 212.191 101.781 212.278 101.868C212.364 101.955 212.467 102.024 212.58 102.071C212.694 102.118 212.815 102.143 212.938 102.143H220.95C221.198 102.143 221.436 102.044 221.611 101.868C221.786 101.692 221.885 101.454 221.885 101.206V93.183C221.884 92.9347 221.786 92.6968 221.61 92.5212C221.435 92.3456 221.198 92.2467 220.95 92.2459Z" fill="white"/>
<path d="M220.95 105.923H212.938C212.69 105.924 212.453 106.023 212.278 106.199C212.104 106.375 212.006 106.613 212.006 106.86V114.883C212.006 115.006 212.029 115.128 212.076 115.241C212.123 115.355 212.191 115.458 212.278 115.545C212.364 115.632 212.467 115.701 212.58 115.749C212.694 115.796 212.815 115.82 212.938 115.82H220.95C221.198 115.82 221.436 115.721 221.611 115.546C221.786 115.37 221.885 115.132 221.885 114.883V106.86C221.884 106.612 221.786 106.374 221.61 106.199C221.435 106.023 221.198 105.924 220.95 105.923Z" fill="white"/>
<path d="M220.95 119.601H212.938C212.815 119.601 212.694 119.625 212.58 119.672C212.467 119.72 212.364 119.789 212.278 119.876C212.191 119.963 212.123 120.066 212.076 120.18C212.029 120.293 212.006 120.415 212.006 120.538V128.561C212.006 128.683 212.029 128.805 212.076 128.919C212.123 129.032 212.191 129.136 212.278 129.223C212.364 129.31 212.467 129.379 212.58 129.426C212.694 129.473 212.815 129.498 212.938 129.498H220.95C221.198 129.498 221.436 129.399 221.611 129.223C221.786 129.047 221.885 128.809 221.885 128.561V120.538C221.885 120.289 221.786 120.051 221.611 119.875C221.436 119.7 221.198 119.601 220.95 119.601Z" fill="#83F1C5"/>
<path d="M237.773 64.8911H229.761C229.513 64.892 229.276 64.9911 229.101 65.1667C228.927 65.3424 228.829 65.5802 228.829 65.8281V73.8544C228.829 74.1019 228.927 74.3393 229.102 74.5144C229.277 74.6894 229.514 74.7878 229.761 74.7879H237.773C238.02 74.7879 238.258 74.6897 238.433 74.5148C238.608 74.3398 238.707 74.1023 238.708 73.8544V65.8281C238.707 65.5798 238.609 65.3419 238.433 65.1663C238.258 64.9908 238.021 64.8918 237.773 64.8911Z" fill="white"/>
<path d="M237.773 78.5685H229.761C229.513 78.5694 229.276 78.6685 229.101 78.8442C228.927 79.0198 228.829 79.2577 228.829 79.5056V87.5318C228.829 87.7794 228.927 88.0168 229.102 88.1919C229.277 88.3669 229.514 88.4653 229.761 88.4653H237.773C238.02 88.4654 238.258 88.3672 238.433 88.1922C238.608 88.0173 238.707 87.7798 238.708 87.5318V79.5056C238.707 79.2573 238.609 79.0194 238.433 78.8438C238.258 78.6682 238.021 78.5693 237.773 78.5685Z" fill="white"/>
<path d="M237.773 92.2459H229.761C229.513 92.2468 229.276 92.3459 229.101 92.5216C228.927 92.6972 228.829 92.9351 228.829 93.183V101.206C228.828 101.329 228.852 101.45 228.899 101.564C228.946 101.677 229.014 101.781 229.101 101.868C229.187 101.955 229.29 102.024 229.403 102.071C229.517 102.118 229.638 102.143 229.761 102.143H237.773C238.021 102.143 238.259 102.044 238.434 101.868C238.609 101.692 238.708 101.454 238.708 101.206V93.183C238.707 92.9347 238.609 92.6968 238.433 92.5212C238.258 92.3456 238.021 92.2467 237.773 92.2459Z" fill="white"/>
<path d="M237.773 105.923H229.761C229.513 105.924 229.276 106.023 229.101 106.199C228.927 106.375 228.829 106.613 228.829 106.86V114.883C228.828 115.006 228.852 115.128 228.899 115.241C228.946 115.355 229.014 115.458 229.101 115.545C229.187 115.632 229.29 115.701 229.403 115.749C229.517 115.796 229.638 115.82 229.761 115.82H237.773C238.021 115.82 238.259 115.721 238.434 115.546C238.609 115.37 238.708 115.132 238.708 114.883V106.86C238.707 106.612 238.609 106.374 238.433 106.199C238.258 106.023 238.021 105.924 237.773 105.923Z" fill="#83F1C5"/>
<path d="M237.773 119.601H229.761C229.638 119.601 229.517 119.625 229.403 119.672C229.29 119.72 229.187 119.789 229.101 119.876C229.014 119.963 228.946 120.066 228.899 120.18C228.852 120.293 228.828 120.415 228.829 120.538V128.561C228.828 128.683 228.852 128.805 228.899 128.919C228.946 129.032 229.014 129.136 229.101 129.223C229.187 129.31 229.29 129.379 229.403 129.426C229.517 129.473 229.638 129.498 229.761 129.498H237.773C238.021 129.498 238.259 129.399 238.434 129.223C238.609 129.047 238.708 128.809 238.708 128.561V120.538C238.708 120.289 238.609 120.051 238.434 119.875C238.259 119.7 238.021 119.601 237.773 119.601Z" fill="white"/>
<path d="M254.596 64.8911H246.584C246.336 64.892 246.099 64.9911 245.924 65.1667C245.75 65.3424 245.652 65.5802 245.652 65.8281V73.8544C245.652 74.1019 245.75 74.3393 245.925 74.5144C246.099 74.6894 246.336 74.7878 246.584 74.7879H254.596C254.843 74.7879 255.081 74.6897 255.256 74.5148C255.431 74.3398 255.53 74.1023 255.531 73.8544V65.8281C255.53 65.5798 255.432 65.3419 255.256 65.1663C255.081 64.9908 254.844 64.8918 254.596 64.8911Z" fill="white"/>
<path d="M254.596 78.5685H246.584C246.336 78.5694 246.099 78.6685 245.924 78.8442C245.75 79.0198 245.652 79.2577 245.652 79.5056V87.5318C245.652 87.7794 245.75 88.0168 245.925 88.1919C246.099 88.3669 246.336 88.4653 246.584 88.4653H254.596C254.843 88.4654 255.081 88.3672 255.256 88.1922C255.431 88.0173 255.53 87.7798 255.531 87.5318V79.5056C255.53 79.2573 255.432 79.0194 255.256 78.8438C255.081 78.6682 254.844 78.5693 254.596 78.5685Z" fill="white"/>
<path d="M254.596 92.2459H246.584C246.336 92.2468 246.099 92.3459 245.924 92.5216C245.75 92.6972 245.652 92.9351 245.652 93.183V101.206C245.651 101.329 245.675 101.45 245.722 101.564C245.769 101.677 245.837 101.781 245.924 101.868C246.01 101.955 246.113 102.024 246.226 102.071C246.34 102.118 246.461 102.143 246.584 102.143H254.596C254.844 102.143 255.082 102.044 255.257 101.868C255.432 101.692 255.531 101.454 255.531 101.206V93.183C255.53 92.9347 255.432 92.6968 255.256 92.5212C255.081 92.3456 254.844 92.2467 254.596 92.2459Z" fill="#83F1C5"/>
<path d="M254.596 105.923H246.584C246.336 105.924 246.099 106.023 245.924 106.199C245.75 106.375 245.652 106.613 245.652 106.86V114.883C245.651 115.006 245.675 115.128 245.722 115.241C245.769 115.355 245.837 115.458 245.924 115.545C246.01 115.632 246.113 115.701 246.226 115.749C246.34 115.796 246.461 115.82 246.584 115.82H254.596C254.844 115.82 255.082 115.721 255.257 115.546C255.432 115.37 255.531 115.132 255.531 114.883V106.86C255.53 106.612 255.432 106.374 255.256 106.199C255.081 106.023 254.844 105.924 254.596 105.923Z" fill="white"/>
<path d="M254.596 119.601H246.584C246.461 119.601 246.34 119.625 246.226 119.672C246.113 119.72 246.01 119.789 245.924 119.876C245.837 119.963 245.769 120.066 245.722 120.18C245.675 120.293 245.651 120.415 245.652 120.538V128.561C245.651 128.683 245.675 128.805 245.722 128.919C245.769 129.032 245.837 129.136 245.924 129.223C246.01 129.31 246.113 129.379 246.226 129.426C246.34 129.473 246.461 129.498 246.584 129.498H254.596C254.844 129.498 255.082 129.399 255.257 129.223C255.432 129.047 255.531 128.809 255.531 128.561V120.538C255.531 120.289 255.432 120.051 255.257 119.875C255.082 119.7 254.844 119.601 254.596 119.601Z" fill="white"/>
<path d="M271.419 64.8911H263.407C263.159 64.892 262.922 64.9911 262.747 65.1667C262.573 65.3424 262.475 65.5802 262.475 65.8281V73.8544C262.475 74.1019 262.573 74.3393 262.748 74.5144C262.922 74.6894 263.159 74.7878 263.407 74.7879H271.419C271.666 74.7879 271.904 74.6897 272.079 74.5148C272.254 74.3398 272.353 74.1023 272.354 73.8544V65.8281C272.353 65.5798 272.255 65.3419 272.079 65.1663C271.904 64.9908 271.667 64.8918 271.419 64.8911Z" fill="white"/>
<path d="M271.419 78.5685H263.407C263.159 78.5694 262.922 78.6685 262.747 78.8442C262.573 79.0198 262.475 79.2577 262.475 79.5056V87.5318C262.475 87.7794 262.573 88.0168 262.748 88.1919C262.922 88.3669 263.159 88.4653 263.407 88.4653H271.419C271.666 88.4654 271.904 88.3672 272.079 88.1922C272.254 88.0173 272.353 87.7798 272.354 87.5318V79.5056C272.353 79.2573 272.255 79.0194 272.079 78.8438C271.904 78.6682 271.667 78.5693 271.419 78.5685Z" fill="white"/>
<path d="M271.419 92.2459H263.407C263.159 92.2468 262.922 92.3459 262.747 92.5216C262.573 92.6972 262.475 92.9351 262.475 93.183V101.206C262.474 101.329 262.498 101.45 262.545 101.564C262.592 101.677 262.66 101.781 262.747 101.868C262.833 101.955 262.936 102.024 263.049 102.071C263.163 102.118 263.284 102.143 263.407 102.143H271.419C271.667 102.143 271.905 102.044 272.08 101.868C272.255 101.692 272.354 101.454 272.354 101.206V93.183C272.353 92.9347 272.255 92.6968 272.079 92.5212C271.904 92.3456 271.667 92.2467 271.419 92.2459Z" fill="#83F1C5"/>
<path d="M271.419 105.923H263.407C263.159 105.924 262.922 106.023 262.747 106.199C262.573 106.375 262.475 106.613 262.475 106.86V114.883C262.474 115.006 262.498 115.128 262.545 115.241C262.592 115.355 262.66 115.458 262.747 115.545C262.833 115.632 262.936 115.701 263.049 115.749C263.163 115.796 263.284 115.82 263.407 115.82H271.419C271.667 115.82 271.905 115.721 272.08 115.546C272.255 115.37 272.354 115.132 272.354 114.883V106.86C272.353 106.612 272.255 106.374 272.079 106.199C271.904 106.023 271.667 105.924 271.419 105.923Z" fill="white"/>
<path d="M271.419 119.601H263.407C263.284 119.601 263.163 119.625 263.049 119.672C262.936 119.72 262.833 119.789 262.747 119.876C262.66 119.963 262.592 120.066 262.545 120.18C262.498 120.293 262.474 120.415 262.475 120.538V128.561C262.474 128.683 262.498 128.805 262.545 128.919C262.592 129.032 262.66 129.136 262.747 129.223C262.833 129.31 262.936 129.379 263.049 129.426C263.162 129.473 263.284 129.498 263.407 129.498H271.419C271.667 129.498 271.905 129.399 272.08 129.223C272.255 129.047 272.354 128.809 272.354 128.561V120.538C272.354 120.289 272.255 120.051 272.08 119.875C271.905 119.7 271.667 119.601 271.419 119.601Z" fill="white"/>
<path d="M288.242 64.8911H280.229C279.982 64.892 279.745 64.9911 279.57 65.1667C279.396 65.3424 279.298 65.5802 279.298 65.8281V73.8544C279.298 74.1019 279.396 74.3393 279.571 74.5144C279.745 74.6894 279.982 74.7878 280.229 74.7879H288.242C288.489 74.7879 288.727 74.6897 288.902 74.5148C289.077 74.3398 289.176 74.1023 289.177 73.8544V65.8281C289.176 65.5798 289.078 65.3419 288.902 65.1663C288.727 64.9908 288.489 64.8918 288.242 64.8911Z" fill="#83F1C5"/>
<path d="M288.242 78.5685H280.229C279.982 78.5694 279.745 78.6685 279.57 78.8442C279.396 79.0198 279.298 79.2577 279.298 79.5056V87.5318C279.298 87.7794 279.396 88.0168 279.571 88.1919C279.745 88.3669 279.982 88.4653 280.229 88.4653H288.242C288.489 88.4654 288.727 88.3672 288.902 88.1922C289.077 88.0173 289.176 87.7798 289.177 87.5318V79.5056C289.176 79.2573 289.078 79.0194 288.902 78.8438C288.727 78.6682 288.489 78.5693 288.242 78.5685Z" fill="white"/>
<path d="M288.242 92.2459H280.23C279.982 92.2468 279.745 92.3459 279.57 92.5216C279.396 92.6972 279.298 92.9351 279.298 93.183V101.206C279.297 101.329 279.321 101.45 279.368 101.564C279.415 101.677 279.483 101.781 279.57 101.868C279.656 101.955 279.759 102.024 279.872 102.071C279.985 102.118 280.107 102.143 280.23 102.143H288.242C288.49 102.143 288.728 102.044 288.903 101.868C289.078 101.692 289.177 101.454 289.177 101.206V93.183C289.176 92.9347 289.078 92.6968 288.902 92.5212C288.727 92.3456 288.49 92.2467 288.242 92.2459Z" fill="white"/>
<path d="M288.242 105.923H280.23C279.982 105.924 279.745 106.023 279.57 106.199C279.396 106.375 279.298 106.613 279.298 106.86V114.883C279.297 115.006 279.321 115.128 279.368 115.241C279.415 115.355 279.483 115.458 279.57 115.545C279.656 115.632 279.759 115.701 279.872 115.749C279.985 115.796 280.107 115.82 280.23 115.82H288.242C288.49 115.82 288.728 115.721 288.903 115.546C289.078 115.37 289.177 115.132 289.177 114.883V106.86C289.176 106.612 289.078 106.374 288.902 106.199C288.727 106.023 288.489 105.924 288.242 105.923Z" fill="white"/>
<path d="M288.242 119.601H280.23C280.107 119.601 279.985 119.625 279.872 119.672C279.759 119.72 279.656 119.789 279.57 119.876C279.483 119.963 279.415 120.066 279.368 120.18C279.321 120.293 279.297 120.415 279.298 120.538V128.561C279.297 128.683 279.321 128.805 279.368 128.919C279.415 129.032 279.483 129.136 279.57 129.223C279.656 129.31 279.759 129.379 279.872 129.426C279.985 129.473 280.107 129.498 280.23 129.498H288.242C288.49 129.498 288.728 129.399 288.903 129.223C289.078 129.047 289.177 128.809 289.177 128.561V120.538C289.177 120.289 289.078 120.051 288.903 119.875C288.728 119.7 288.49 119.601 288.242 119.601Z" fill="#83F1C5"/>
<path d="M305.065 64.8911H297.052C296.805 64.892 296.568 64.9911 296.393 65.1667C296.219 65.3424 296.121 65.5802 296.121 65.8281V73.8544C296.121 74.1019 296.219 74.3393 296.394 74.5144C296.568 74.6894 296.805 74.7878 297.052 74.7879H305.065C305.312 74.7879 305.55 74.6897 305.725 74.5148C305.9 74.3398 305.999 74.1023 306 73.8544V65.8281C305.999 65.5798 305.9 65.3419 305.725 65.1663C305.55 64.9908 305.312 64.8918 305.065 64.8911Z" fill="#83F1C5"/>
<path d="M305.065 78.5685H297.052C296.805 78.5694 296.568 78.6685 296.393 78.8442C296.219 79.0198 296.121 79.2577 296.121 79.5056V87.5318C296.121 87.7794 296.219 88.0168 296.394 88.1919C296.568 88.3669 296.805 88.4653 297.052 88.4653H305.065C305.312 88.4654 305.55 88.3672 305.725 88.1922C305.9 88.0173 305.999 87.7798 306 87.5318V79.5056C305.999 79.2573 305.9 79.0194 305.725 78.8438C305.55 78.6682 305.312 78.5693 305.065 78.5685Z" fill="#83F1C5"/>
<path d="M305.065 92.2459H297.052C296.805 92.2468 296.568 92.3459 296.393 92.5216C296.219 92.6972 296.121 92.9351 296.121 93.183V101.206C296.12 101.329 296.144 101.45 296.191 101.564C296.237 101.677 296.306 101.781 296.393 101.868C296.479 101.955 296.582 102.024 296.695 102.071C296.808 102.118 296.93 102.143 297.052 102.143H305.065C305.313 102.143 305.55 102.044 305.726 101.868C305.901 101.692 306 101.454 306 101.206V93.183C305.999 92.9347 305.9 92.6968 305.725 92.5212C305.55 92.3456 305.312 92.2467 305.065 92.2459Z" fill="white"/>
<path d="M305.065 105.923H297.052C296.805 105.924 296.568 106.023 296.393 106.199C296.219 106.375 296.121 106.613 296.121 106.86V114.883C296.12 115.006 296.144 115.128 296.191 115.241C296.237 115.355 296.306 115.458 296.393 115.545C296.479 115.632 296.582 115.701 296.695 115.749C296.808 115.796 296.93 115.82 297.052 115.82H305.065C305.313 115.82 305.55 115.721 305.726 115.546C305.901 115.37 306 115.132 306 114.883V106.86C305.999 106.612 305.9 106.374 305.725 106.199C305.55 106.023 305.312 105.924 305.065 105.923Z" fill="#83F1C5"/>
<path d="M305.065 119.601H297.052C296.93 119.601 296.808 119.625 296.695 119.672C296.582 119.72 296.479 119.789 296.393 119.876C296.306 119.963 296.237 120.066 296.191 120.18C296.144 120.293 296.12 120.415 296.121 120.538V128.561C296.12 128.683 296.144 128.805 296.191 128.919C296.237 129.032 296.306 129.136 296.393 129.223C296.479 129.31 296.582 129.379 296.695 129.426C296.808 129.473 296.93 129.498 297.052 129.498H305.065C305.313 129.498 305.55 129.399 305.726 129.223C305.901 129.047 306 128.809 306 128.561V120.538C306 120.289 305.901 120.051 305.726 119.875C305.55 119.7 305.313 119.601 305.065 119.601Z" fill="#83F1C5"/>
<path d="M120.917 237.887H120.695L120.885 237.862L120.917 237.887Z" fill="#2F2E41"/>
<path d="M101.749 88.3193C115.324 88.3193 126.329 77.295 126.329 63.6957C126.329 50.0964 115.324 39.072 101.749 39.072C88.1735 39.072 77.1685 50.0964 77.1685 63.6957C77.1685 77.295 88.1735 88.3193 101.749 88.3193Z" fill="#FFB6B6"/>
<path d="M123.275 45.642C123.275 45.642 129.703 33.3302 115.56 32.2109C115.56 32.2109 103.502 21.2538 91.2118 30.2078C91.2118 30.2078 84.508 30.2078 80.8422 37.8072C80.8422 37.8072 75.5697 35.8041 74.4111 41.165C74.4111 41.165 70.5531 52.3576 74.4111 62.4309C78.2691 72.5043 79.5506 73.6235 79.5506 73.6235C79.5506 73.6235 73.211 52.5042 88.642 51.3849C104.073 50.2657 121.34 40.6054 122.626 52.9172C123.912 65.229 125.848 68.2625 125.848 68.2625C125.848 68.2625 138.062 50.6787 123.275 45.642Z" fill="#2F2E41"/>
<path d="M165.333 124.38L165.253 124.798L164.365 129.498L158.224 162.006L157.86 163.92L157.097 167.967L156.054 173.489L153.741 185.725L153.079 189.231L152.831 190.547L152.744 191.008L152.057 194.638L151.848 195.733L150.172 208.178L148.708 219.023L153.608 223.931L150.686 226.858L148.769 237.861L148.772 237.886H70.5111C67.3451 235.832 64.2247 233.714 61.1498 231.532L61.7938 226.703C61.7938 226.703 64.01 218.078 63.0781 217.048C62.15 216.017 60.1136 214.175 60.1136 214.175L62.6788 208.178L63.035 207.345L62.4378 194.937L62.4234 194.638L62.2256 190.547L62.2003 190.021L62.1608 189.231L61.4017 173.489L61.3873 173.229L61.157 168.458L60.9411 163.92L60.8476 162.006L59.923 142.858L59.297 129.854L58.7502 118.534L60.9484 117.788L84.4595 109.783L94.1985 97.1006L114.468 97.252L124.391 97.3277L140.947 112.71L144.714 114.512L144.743 114.526L147.445 115.82L154.295 119.096L161.537 122.563L165.254 124.34L165.333 124.38Z" fill="#CACACA"/>
<path d="M96.8179 200.945C95.3326 201.522 93.7391 201.765 92.1498 201.658C90.5604 201.55 89.0139 201.095 87.6191 200.325C86.2243 199.554 85.0151 198.486 84.0768 197.197C83.1385 195.907 82.4938 194.427 82.1882 192.861L43.8513 187.413L57.1782 172.311L91.5404 179.8C94.2008 179.46 96.8932 180.11 99.1075 181.625C101.322 183.141 102.904 185.418 103.555 188.024C104.205 190.631 103.879 193.386 102.637 195.767C101.395 198.148 99.3249 199.991 96.8179 200.945V200.945Z" fill="#FFB6B6"/>
<path d="M79.7248 173.489C79.0147 172.587 78.0093 171.965 76.8862 171.734L61.157 168.458L59.5416 168.122C58.6028 167.926 57.716 167.534 56.9392 166.97C56.1623 166.407 55.513 165.686 55.0336 164.853C54.5364 163.98 54.2356 163.008 54.1522 162.006C54.0772 161.095 54.1861 160.178 54.4724 159.31L59.9229 142.858L63.4595 132.183C63.8881 130.895 64.1411 129.556 64.2114 128.2C64.4085 124.449 63.25 120.753 60.9483 117.788C58.9247 115.182 56.118 113.297 52.9428 112.412C49.7676 111.527 46.3924 111.688 43.3158 112.872C43.2259 112.905 43.1324 112.941 43.0424 112.977C40.836 113.859 38.8648 115.244 37.2844 117.021C35.7041 118.798 34.5579 120.919 33.9366 123.216L30.0942 137.218L22.1684 166.083C21.375 168.975 21.2147 172.004 21.6985 174.964C22.1823 177.924 23.2988 180.744 24.9715 183.231C26.6442 185.719 28.8337 187.815 31.3901 189.376C33.9465 190.937 36.8094 191.927 39.7829 192.277L62.4377 194.937L72.9215 196.169C74.1338 196.315 75.3564 195.998 76.3459 195.282C77.3354 194.565 78.019 193.501 78.2605 192.302C78.2775 192.237 78.2907 192.171 78.3001 192.104L78.5519 190.547L80.6854 177.435L80.707 177.302C80.8181 176.633 80.7882 175.948 80.619 175.291C80.4498 174.634 80.1452 174.02 79.7248 173.489Z" fill="#CACACA"/>
<path d="M121.237 201.365C122.789 201.726 124.4 201.742 125.959 201.411C127.517 201.081 128.984 200.412 130.257 199.452C131.529 198.492 132.576 197.264 133.323 195.855C134.071 194.445 134.5 192.889 134.583 191.296L171.769 180.486L156.45 167.418L123.485 179.686C120.804 179.725 118.229 180.749 116.251 182.562C114.272 184.376 113.026 186.853 112.749 189.526C112.472 192.198 113.183 194.879 114.747 197.061C116.312 199.243 118.621 200.775 121.237 201.365V201.365Z" fill="#FFB6B6"/>
<path d="M190.232 156.305L172.546 115.528C171.099 112.181 168.516 109.454 165.253 107.834C164.245 107.336 163.186 106.95 162.095 106.68C161.926 106.637 161.756 106.597 161.587 106.565C159.273 106.059 156.873 106.103 154.579 106.695C152.482 107.234 150.522 108.211 148.828 109.56C147.133 110.91 145.741 112.602 144.743 114.526C144.732 114.542 144.722 114.559 144.714 114.577C143.599 116.737 143.006 119.13 142.983 121.562C142.96 123.994 143.507 126.397 144.581 128.579L144.8 129.018L157.299 154.164C157.726 155.024 157.966 155.964 158.005 156.924C158.043 157.883 157.878 158.84 157.522 159.731C157.165 160.623 156.624 161.428 155.935 162.096C155.245 162.763 154.423 163.277 153.521 163.603L152.643 163.92L136.857 169.632C135.672 170.056 134.698 170.923 134.139 172.052C133.58 173.181 133.48 174.483 133.86 175.684L133.899 175.81L138.325 189.995C138.346 190.06 138.368 190.125 138.393 190.19C138.432 190.312 138.48 190.432 138.537 190.547C139.007 191.604 139.838 192.457 140.881 192.955C141.924 193.452 143.109 193.561 144.225 193.261L152.744 191.008L154.482 190.547L176.482 184.726C179.377 183.96 182.072 182.576 184.383 180.669C186.695 178.763 188.567 176.378 189.873 173.679C191.179 170.98 191.887 168.03 191.949 165.031C192.011 162.032 191.426 159.056 190.232 156.305L190.232 156.305Z" fill="#CACACA"/>
<path d="M16.1531 190.547C21.2512 196.776 26.7494 202.666 32.6126 208.178H195.219C196.786 208.18 198.287 208.805 199.395 209.915C200.502 211.025 201.125 212.53 201.126 214.1L201.36 255.377C211.364 250.773 220.732 244.894 229.232 237.886C231.592 235.944 233.879 233.917 236.093 231.806C237.543 230.43 238.958 229.019 240.338 227.575C250.686 216.776 259.066 204.243 265.097 190.547H16.1531Z" fill="#3F3D56"/>
<path d="M240.338 227.575C238.96 229.02 237.545 230.431 236.093 231.806H201.479V227.575H240.338Z" fill="white"/>
<path d="M165.009 92.246C164.838 91.9298 164.585 91.6658 164.276 91.4818C163.968 91.2978 163.616 91.2007 163.257 91.2008H45.309C44.7802 91.2022 44.2735 91.4135 43.8999 91.7884C43.5263 92.1633 43.3163 92.6713 43.3159 93.201V163.92H165.253V93.201C165.255 92.8669 165.171 92.5379 165.009 92.246Z" fill="#3F3D56"/>
<path d="M43.209 162.005V170.732C43.209 171.094 43.2802 171.452 43.4184 171.786C43.5566 172.121 43.7591 172.424 44.0145 172.68C44.2699 172.936 44.573 173.139 44.9067 173.277C45.2403 173.416 45.5979 173.487 45.9591 173.487H90.9654V190.71H90.3675C90.3206 190.71 90.2742 190.719 90.2308 190.737C90.1875 190.755 90.1481 190.781 90.1149 190.815C90.0817 190.848 90.0554 190.887 90.0375 190.931C90.0195 190.974 90.0103 191.021 90.0103 191.068V192.266C90.0103 192.313 90.0195 192.359 90.0375 192.402C90.0554 192.446 90.0817 192.485 90.1149 192.519C90.1481 192.552 90.1875 192.578 90.2308 192.596C90.2741 192.614 90.3206 192.623 90.3675 192.623H118.307C118.354 192.623 118.4 192.614 118.444 192.596C118.487 192.578 118.526 192.552 118.559 192.519C118.593 192.485 118.619 192.446 118.637 192.402C118.655 192.359 118.664 192.313 118.664 192.266V191.068C118.664 191.021 118.655 190.974 118.637 190.931C118.619 190.887 118.593 190.848 118.559 190.815C118.526 190.781 118.487 190.755 118.444 190.737C118.4 190.719 118.354 190.71 118.307 190.71H117.709V173.487H162.715C163.076 173.487 163.434 173.416 163.768 173.277C164.101 173.139 164.405 172.936 164.66 172.68C164.915 172.424 165.118 172.121 165.256 171.786C165.394 171.452 165.465 171.094 165.465 170.732V162.005H43.209Z" fill="#3F3D56"/>
<path d="M102.86 136.958C109.08 136.958 114.123 131.907 114.123 125.675C114.123 119.444 109.08 114.392 102.86 114.392C96.6395 114.392 91.5968 119.444 91.5968 125.675C91.5968 131.907 96.6395 136.958 102.86 136.958Z" fill="#83F1C5"/>
<path d="M131.557 62.3502H129.758C129.758 48.7268 116.299 39.7996 102.721 39.7924C100.747 39.7866 98.776 39.9785 96.8392 40.3654C94.6589 40.8015 92.396 41.3241 90.1726 42.0053C81.4049 44.6975 73.2741 49.9018 73.2741 62.3502C73.2722 64.7678 73.5793 67.1757 74.1879 69.5151L72.4466 69.9692C71.8007 67.4813 71.4743 64.9209 71.4752 62.3502C71.4752 51.4731 75.9328 44.0019 83.6319 39.5473C87.6794 37.2046 92.619 35.6945 98.2783 34.9593C100.633 34.6454 103.014 34.573 105.384 34.7431C120.998 35.8675 131.557 47.8619 131.557 62.3502Z" fill="#83F1C5"/>
<path d="M134.554 63.3485L133.845 58.101C133.671 56.7758 133.033 55.5553 132.047 54.6555C131.413 54.0689 130.655 53.6343 129.829 53.3846C129.003 53.1348 128.131 53.0765 127.28 53.2139L126.153 53.3689C125.845 53.4095 125.548 53.511 125.28 53.6675C125.011 53.8241 124.776 54.0325 124.588 54.2807C124.399 54.5281 124.261 54.8105 124.181 55.1118C124.101 55.413 124.082 55.7271 124.124 56.0359L125.761 68.1239C125.829 68.6166 126.049 69.0756 126.391 69.4358C126.734 69.7961 127.18 70.0394 127.668 70.1314C127.813 70.1604 127.96 70.1749 128.107 70.1746C128.213 70.1746 128.319 70.1674 128.424 70.153L129.683 69.9836C130.451 69.8816 131.189 69.6233 131.854 69.2248C132.518 68.8263 133.094 68.2959 133.547 67.6662C133.644 67.5292 133.737 67.3887 133.824 67.2445C134.498 66.0652 134.755 64.6925 134.554 63.3485Z" fill="#83F1C5"/>
<path d="M125.427 53.5887C125.096 53.7495 124.809 53.9867 124.588 54.2807C124.399 54.5281 124.261 54.8106 124.181 55.1118C124.101 55.4131 124.082 55.7271 124.124 56.0359L125.761 68.1239C125.829 68.6166 126.049 69.0756 126.391 69.4359C126.734 69.7961 127.18 70.0395 127.668 70.1314L125.427 53.5887Z" fill="#585757"/>
<path d="M134.554 63.3485L133.845 58.101C133.671 56.7758 133.033 55.5553 132.047 54.6555L133.676 66.6823C133.701 66.8754 133.75 67.0644 133.824 67.2445C134.498 66.0653 134.755 64.6925 134.554 63.3485Z" fill="#3F3D56"/>
<path d="M128.953 67.1295C129.445 67.0626 129.692 65.8891 129.505 64.5084C129.318 63.1277 128.768 62.0627 128.275 62.1296C127.783 62.1964 127.536 63.3699 127.723 64.7506C127.91 66.1313 128.46 67.1963 128.953 67.1295Z" fill="#3F3D56"/>
<path d="M127.873 60.6421C128.365 60.5752 128.613 59.4018 128.426 58.0211C128.239 56.6404 127.688 55.5754 127.196 55.6422C126.704 55.7091 126.456 56.8826 126.643 58.2633C126.83 59.644 127.381 60.709 127.873 60.6421Z" fill="#3F3D56"/>
<path d="M134.709 63.165C135.201 63.0981 135.449 61.9246 135.262 60.5439C135.075 59.1632 134.524 58.0982 134.032 58.1651C133.54 58.232 133.292 59.4055 133.479 60.7861C133.666 62.1668 134.217 63.2319 134.709 63.165Z" fill="#3F3D56"/>
<path d="M102.721 39.7924C100.747 39.7866 98.776 39.9785 96.8392 40.3654C94.659 40.8015 92.396 41.3241 90.1726 42.0052C86.7008 41.8359 84.1464 40.9348 83.6319 39.5473C87.6794 37.2046 92.619 35.6945 98.2783 34.9593C100.633 34.6454 103.014 34.573 105.384 34.7431C105.635 34.8904 105.852 35.0892 106.02 35.3265C106.189 35.5638 106.305 35.8341 106.362 36.1198C106.531 37.374 105.103 38.7075 102.721 39.7924Z" fill="#3F3D56"/>
<path d="M79.7536 74.8563L76.9834 63.3197C76.8846 62.9035 76.6652 62.5258 76.3529 62.234C76.0405 61.9423 75.6491 61.7495 75.2277 61.6799C75.1086 61.6613 74.9884 61.6517 74.8679 61.651C74.6982 61.6516 74.5291 61.6722 74.3642 61.7123L73.2921 61.9718C71.9117 62.3062 70.7201 63.1756 69.9789 64.3891C69.2376 65.6026 69.0072 67.0612 69.3382 68.4447L70.5794 73.6201C70.8628 74.8386 71.5378 75.9301 72.5006 76.7269C72.6566 76.853 72.82 76.9698 72.9899 77.0765C73.593 77.4551 74.2656 77.7089 74.9682 77.8227C75.6708 77.9366 76.389 77.9084 77.0805 77.7396L78.149 77.4801C78.4316 77.4141 78.6974 77.2901 78.9297 77.1161C79.2753 76.8637 79.5381 76.5141 79.6848 76.1118C79.8315 75.7094 79.8555 75.2724 79.7536 74.8563Z" fill="#83F1C5"/>
<path d="M73.9461 72.7098C74.429 72.5934 74.5567 71.4008 74.2313 70.0462C73.9059 68.6915 73.2506 67.6877 72.7676 67.8041C72.2847 67.9206 72.157 69.1131 72.4824 70.4678C72.8078 71.8224 73.4631 72.8262 73.9461 72.7098Z" fill="#3F3D56"/>
<path d="M70.3483 73.791C70.8313 73.6746 70.959 72.4821 70.6336 71.1274C70.3081 69.7727 69.6528 68.769 69.1699 68.8854C68.6869 69.0018 68.5592 70.1944 68.8846 71.549C69.21 72.9037 69.8654 73.9075 70.3483 73.791Z" fill="#3F3D56"/>
<path d="M79.9299 74.8131L77.1596 63.2764C77.0517 62.8261 76.8136 62.4177 76.475 62.1023C76.1365 61.7869 75.7126 61.5785 75.2564 61.5032L79.0376 77.2602C79.4111 76.9863 79.6951 76.6076 79.8539 76.1721C80.0127 75.7365 80.0391 75.2636 79.9299 74.8131Z" fill="#585757"/>
<path d="M69.9642 66.1597C69.8877 65.8389 69.7443 65.538 69.5433 65.2767C69.1538 66.287 69.0823 67.3925 69.3382 68.4447L70.5794 73.6201C70.8628 74.8386 71.5378 75.9301 72.5006 76.7269L69.9642 66.1597Z" fill="#3F3D56"/>
</g>
<defs>
<clipPath id="clip0_10_121">
<rect width="306" height="267" fill="white"/>
</clipPath>
</defs>
</svg>
