<svg width="460" height="204" viewBox="0 0 460 204" fill="none" xmlns="http://www.w3.org/2000/svg">
<g clip-path="url(#clip0_36_2)">
<path d="M195.831 130.328H9.47558C6.96337 130.326 4.55485 129.327 2.77845 127.553C1.00204 125.779 0.00281979 123.373 0 120.864V7.20774C0.00211749 5.29682 0.763015 3.46477 2.11576 2.11352C3.46851 0.762277 5.30262 0.00218154 7.21573 0H197.984C199.925 0.00218424 201.787 0.773542 203.16 2.14484C204.532 3.51613 205.305 5.37537 205.307 7.31466V120.864C205.304 123.373 204.305 125.779 202.528 127.553C200.752 129.327 198.343 130.326 195.831 130.328Z" fill="white"/>
<path d="M195.831 130.328H9.47558C6.96337 130.326 4.55485 129.327 2.77845 127.553C1.00204 125.779 0.00281979 123.373 0 120.864V7.20774C0.00211749 5.29682 0.763015 3.46477 2.11576 2.11352C3.46851 0.762277 5.30262 0.00218154 7.21573 0H197.984C199.925 0.00218424 201.787 0.773542 203.16 2.14484C204.532 3.51613 205.305 5.37537 205.307 7.31466V120.864C205.304 123.373 204.305 125.779 202.528 127.553C200.752 129.327 198.343 130.326 195.831 130.328ZM7.21573 2.04644C5.84581 2.04804 4.53247 2.59234 3.56382 3.55993C2.59517 4.52753 2.05031 5.83939 2.04877 7.20774V120.864C2.05101 122.83 2.8342 124.716 4.22651 126.107C5.61882 127.497 7.50656 128.28 9.47558 128.282H195.831C197.8 128.28 199.688 127.497 201.08 126.107C202.473 124.716 203.256 122.83 203.258 120.864V7.31466C203.257 5.91793 202.7 4.57884 201.712 3.59119C200.723 2.60354 199.382 2.048 197.984 2.04644H7.21573Z" fill="#E6E6E6"/>
<path d="M85.0811 101.552H29.2418C27.8757 101.55 26.5566 101.053 25.5294 100.154C24.5023 99.2538 23.8368 98.0124 23.6564 96.6598C23.6224 96.4162 23.6062 96.1705 23.6077 95.9246V34.4036C23.6094 32.9116 24.2035 31.4811 25.2598 30.4261C26.316 29.3711 27.7481 28.7776 29.2418 28.7759H85.0811C86.5749 28.7776 88.007 29.3711 89.0632 30.4261C90.1195 31.4811 90.7136 32.9116 90.7153 34.4036V95.9246C90.7136 97.4166 90.1195 98.8471 89.0632 99.9021C88.007 100.957 86.5749 101.551 85.0811 101.552ZM29.2418 31.8456C28.5629 31.8464 27.9119 32.1161 27.4318 32.5957C26.9517 33.0752 26.6816 33.7254 26.6809 34.4036V95.9246C26.6798 96.0298 26.6863 96.1349 26.7004 96.2391C26.7788 96.8576 27.08 97.4265 27.5477 97.8394C28.0154 98.2523 28.6176 98.4809 29.2418 98.4826H85.0811C85.7601 98.4818 86.4111 98.2121 86.8912 97.7325C87.3713 97.253 87.6413 96.6028 87.6421 95.9246V34.4036C87.6413 33.7254 87.3713 33.0752 86.8912 32.5957C86.4111 32.1161 85.7601 31.8464 85.0811 31.8456H29.2418Z" fill="#E6E6E6"/>
<path d="M177.602 81.5483H109.992C108.905 81.5483 107.863 81.1171 107.095 80.3496C106.326 79.582 105.894 78.541 105.894 77.4555C105.894 76.37 106.326 75.3289 107.095 74.5614C107.863 73.7938 108.905 73.3626 109.992 73.3626H177.602C178.688 73.3626 179.73 73.7938 180.499 74.5614C181.267 75.3289 181.699 76.37 181.699 77.4555C181.699 78.541 181.267 79.582 180.499 80.3496C179.73 81.1171 178.688 81.5483 177.602 81.5483Z" fill="#E6E6E6"/>
<path d="M146.87 64.1536H109.992C108.905 64.1536 107.863 63.7224 107.095 62.9549C106.326 62.1873 105.894 61.1463 105.894 60.0608C105.894 58.9753 106.326 57.9342 107.095 57.1667C107.863 56.3991 108.905 55.9679 109.992 55.9679H146.87C147.957 55.9679 148.999 56.3991 149.767 57.1667C150.536 57.9342 150.967 58.9753 150.967 60.0608C150.967 61.1463 150.536 62.1873 149.767 62.9549C148.999 63.7224 147.957 64.1536 146.87 64.1536Z" fill="#E6E6E6"/>
<path d="M75.573 63.4733C75.573 72.515 67.203 71.1474 56.878 71.1474C46.553 71.1474 38.1829 72.515 38.1829 63.4733C38.1829 54.4316 42.2715 38.4044 56.878 38.4044C71.9877 38.4044 75.573 54.4316 75.573 63.4733Z" fill="#2F2E41"/>
<path d="M76.3292 78.6904C75.9686 77.6509 75.2497 76.7732 74.301 76.2143C74.1178 76.1019 73.926 76.0044 73.7272 75.9226C72.8952 75.577 71.9803 75.4811 71.0945 75.6465C70.2087 75.8119 69.3904 76.2314 68.7395 76.8539C68.0886 77.4764 67.6333 78.2748 67.4294 79.1516C67.2255 80.0283 67.2817 80.9454 67.5912 81.7908L75.0385 98.6995H84.847L76.3292 78.6904Z" fill="#3F3D56"/>
<path d="M43.8304 79.6113C43.2418 79.3272 42.5997 79.1706 41.9462 79.1518C41.2927 79.133 40.6426 79.2523 40.0385 79.5021C39.4345 79.7519 38.8901 80.1264 38.4411 80.601C37.9921 81.0757 37.6487 81.6398 37.4333 82.2564L30.4982 98.5511C30.8533 98.6501 31.2204 98.7 31.5891 98.6995H40.2914L46.1711 85.3567C46.5633 84.2796 46.541 83.0954 46.1085 82.0338C45.676 80.9722 44.8641 80.1089 43.8304 79.6113Z" fill="#3F3D56"/>
<path d="M56.8155 71.1323C63.7632 71.1323 69.3955 65.5065 69.3955 58.5667C69.3955 51.6269 63.7632 46.001 56.8155 46.001C49.8677 46.001 44.2355 51.6269 44.2355 58.5667C44.2355 65.5065 49.8677 71.1323 56.8155 71.1323Z" fill="#FFB8B8"/>
<path d="M74.521 76.4138C74.4495 76.3473 74.3777 76.2757 74.301 76.2143C73.424 75.4245 72.3861 74.834 71.2587 74.4833C70.1314 74.1327 68.9413 74.0303 67.7705 74.1832L44.5885 77.1147C42.4649 77.3771 40.5272 78.4556 39.1866 80.1214C37.8459 81.7871 37.2078 83.9092 37.4075 86.0371C37.7252 89.6082 38.2373 94.1154 39.0569 98.6995H75.6787L77.0258 83.0647C77.1341 81.8395 76.9653 80.6056 76.5317 79.4543C76.0982 78.303 75.411 77.2639 74.521 76.4138Z" fill="#3F3D56"/>
<path d="M42.2805 57.334H47.2561L49.4512 51.1947L49.8901 57.334H52.2682L53.5487 53.7527L53.8048 57.334H71.4755C71.4755 53.8061 70.0724 50.4227 67.575 47.9282C65.0776 45.4336 61.6903 44.0321 58.1584 44.0321H55.5975C52.0656 44.0321 48.6783 45.4336 46.1809 47.9282C43.6835 50.4227 42.2805 53.8061 42.2805 57.334Z" fill="#2F2E41"/>
<path d="M254.693 120.864V7.31466C254.695 5.37537 255.468 3.51613 256.84 2.14484C258.213 0.773542 260.075 0.00218424 262.016 0H452.784C454.697 0.00218154 456.532 0.762277 457.884 2.11352C459.237 3.46477 459.998 5.29682 460 7.20774V120.864C459.997 123.373 458.998 125.779 457.222 127.553C455.445 129.327 453.037 130.326 450.524 130.328H264.169C261.657 130.326 259.248 129.327 257.472 127.553C255.695 125.779 254.696 123.373 254.693 120.864Z" fill="white"/>
<path d="M254.693 120.864V7.31466C254.695 5.37537 255.468 3.51613 256.84 2.14484C258.213 0.773542 260.075 0.00218424 262.016 0H452.784C454.697 0.00218154 456.532 0.762277 457.884 2.11352C459.237 3.46477 459.998 5.29682 460 7.20774V120.864C459.997 123.373 458.998 125.779 457.222 127.553C455.445 129.327 453.037 130.326 450.524 130.328H264.169C261.657 130.326 259.248 129.327 257.472 127.553C255.695 125.779 254.696 123.373 254.693 120.864ZM262.016 2.04644C260.618 2.048 259.277 2.60354 258.288 3.59119C257.3 4.57884 256.743 5.91793 256.742 7.31466V120.864C256.744 122.83 257.527 124.716 258.92 126.107C260.312 127.497 262.2 128.28 264.169 128.282H450.524C452.493 128.28 454.381 127.497 455.773 126.107C457.166 124.716 457.949 122.83 457.951 120.864V7.20774C457.95 5.83939 457.405 4.52753 456.436 3.55993C455.467 2.59234 454.154 2.04804 452.784 2.04644H262.016Z" fill="#E6E6E6"/>
<path d="M369.285 95.9246V34.4036C369.286 32.9116 369.88 31.4811 370.937 30.4261C371.993 29.3711 373.425 28.7776 374.919 28.7759H430.758C432.252 28.7776 433.684 29.3711 434.74 30.4261C435.796 31.4811 436.391 32.9116 436.392 34.4036V95.9246C436.394 96.1705 436.377 96.4162 436.344 96.6598C436.163 98.0124 435.498 99.2538 434.471 100.154C433.443 101.053 432.124 101.55 430.758 101.552H374.919C373.425 101.551 371.993 100.957 370.937 99.9021C369.88 98.8471 369.286 97.4166 369.285 95.9246ZM374.919 31.8456C374.24 31.8464 373.589 32.1161 373.109 32.5957C372.629 33.0752 372.359 33.7254 372.358 34.4036V95.9246C372.359 96.6028 372.629 97.253 373.109 97.7325C373.589 98.2121 374.24 98.4818 374.919 98.4826H430.758C431.382 98.4809 431.985 98.2523 432.452 97.8394C432.92 97.4265 433.221 96.8576 433.3 96.2391C433.314 96.1349 433.32 96.0298 433.319 95.9246V34.4036C433.318 33.7254 433.048 33.0752 432.568 32.5957C432.088 32.1161 431.437 31.8464 430.758 31.8456H374.919Z" fill="#E6E6E6"/>
<path d="M278.301 77.4555C278.302 76.3704 278.734 75.33 279.502 74.5628C280.271 73.7955 281.312 73.3639 282.399 73.3626H350.008C351.095 73.3626 352.137 73.7938 352.905 74.5614C353.674 75.3289 354.106 76.37 354.106 77.4555C354.106 78.541 353.674 79.582 352.905 80.3496C352.137 81.1171 351.095 81.5483 350.008 81.5483H282.399C281.312 81.5471 280.271 81.1155 279.502 80.3482C278.734 79.5809 278.302 78.5406 278.301 77.4555Z" fill="#E6E6E6"/>
<path d="M278.301 60.0608C278.302 58.9757 278.734 57.9353 279.502 57.168C280.271 56.4007 281.312 55.9691 282.399 55.9679H319.276C320.363 55.9679 321.405 56.3991 322.174 57.1667C322.942 57.9342 323.374 58.9753 323.374 60.0608C323.374 61.1463 322.942 62.1873 322.174 62.9549C321.405 63.7224 320.363 64.1536 319.276 64.1536H282.399C281.312 64.1524 280.271 63.7208 279.502 62.9535C278.734 62.1862 278.302 61.1459 278.301 60.0608Z" fill="#E6E6E6"/>
<path d="M389.039 52.6833C392.63 59.7351 395.46 67.0084 403.38 67.0084C407.184 67.0084 410.832 65.4991 413.521 62.8127C416.211 60.1262 417.722 56.4826 417.722 52.6833C417.722 48.8841 416.211 45.2405 413.521 42.554C410.832 39.8675 407.184 38.3583 403.38 38.3583C395.331 38.2576 382.355 39.5578 389.039 52.6833Z" fill="#2F2E41"/>
<path d="M402.675 67.2874C409.622 67.2874 415.255 61.6615 415.255 54.7217C415.255 47.7819 409.622 42.1561 402.675 42.1561C395.727 42.1561 390.095 47.7819 390.095 54.7217C390.095 61.6615 395.727 67.2874 402.675 67.2874Z" fill="#A0616A"/>
<path d="M419.849 77.6263C419.038 76.7439 418.156 75.9294 417.212 75.1911C413.082 71.9583 407.906 70.3559 402.67 70.6889C402.461 70.6991 402.251 70.7145 402.04 70.735C399.008 70.9771 396.062 71.8615 393.399 73.3294C390.735 74.7973 388.415 76.8149 386.593 79.2481C384.742 81.7185 383.442 84.5551 382.777 87.5682C382.113 90.5813 382.101 93.7014 382.741 96.7196C382.88 97.3591 383.002 98.0037 383.12 98.6484H424.823L425.304 95.4252C425.786 92.2398 425.546 88.9871 424.601 85.9067C423.657 82.8263 422.034 79.9967 419.849 77.6263Z" fill="#3F3D56"/>
<path d="M426.237 80.9876C425.943 79.3064 425.067 77.7815 423.764 76.6784C422.46 75.5753 420.81 74.9639 419.102 74.9506C419.035 74.9506 418.963 74.9557 418.897 74.9557C418.328 74.9687 417.762 75.0477 417.212 75.1911C416.286 75.4368 415.418 75.8627 414.658 76.4444C413.897 77.026 413.26 77.752 412.781 78.5805C412.302 79.4091 411.992 80.3239 411.868 81.2726C411.744 82.2212 411.809 83.1849 412.059 84.1084L415.998 98.6483H429.254L426.237 80.9876Z" fill="#3F3D56"/>
<path d="M397.067 77.1761C396.567 76.196 395.851 75.3422 394.972 74.6795C394.35 74.2101 393.654 73.847 392.913 73.6051C392.61 73.5017 392.301 73.4196 391.986 73.3595C390.273 73.0357 388.501 73.3342 386.988 74.201C385.476 75.0678 384.324 76.446 383.74 78.0868L376.528 98.6483H390.214L397.195 83.5252C397.661 82.5274 397.891 81.4363 397.869 80.3358C397.847 79.2353 397.572 78.1544 397.067 77.1761Z" fill="#3F3D56"/>
<path d="M389.325 47.6203C392.2 49.5994 395.612 50.6527 399.103 50.6387C397.858 51.5013 396.44 52.0839 394.948 52.3465C399.59 53.3411 404.387 53.368 409.04 52.4256C410.074 52.2599 411.072 51.9176 411.99 51.4135C412.448 51.1583 412.846 50.8099 413.16 50.3908C413.474 49.9717 413.695 49.4913 413.811 48.981C414.12 47.2167 412.744 45.6138 411.314 44.5335C409.124 42.9048 406.599 41.7826 403.921 41.2482C401.244 40.7138 398.481 40.7805 395.833 41.4435C394.104 41.89 392.371 42.6444 391.248 44.0316C390.125 45.4188 389.792 47.5574 390.862 48.9858L389.325 47.6203Z" fill="#2F2E41"/>
<path d="M323.178 204H136.822C134.31 203.997 131.901 202.999 130.125 201.225C128.349 199.45 127.349 197.045 127.347 194.535V80.8794C127.349 78.9685 128.11 77.1364 129.462 75.7852C130.815 74.4339 132.649 73.6738 134.562 73.6717H325.33C327.272 73.6738 329.133 74.4452 330.506 75.8165C331.879 77.1878 332.651 79.047 332.653 80.9863V194.535C332.651 197.045 331.651 199.45 329.875 201.225C328.099 202.999 325.69 203.997 323.178 204Z" fill="white"/>
<path d="M323.178 204H136.822C134.31 203.997 131.901 202.999 130.125 201.225C128.349 199.45 127.349 197.045 127.347 194.535V80.8794C127.349 78.9685 128.11 77.1364 129.462 75.7852C130.815 74.4339 132.649 73.6738 134.562 73.6717H325.33C327.272 73.6738 329.133 74.4452 330.506 75.8165C331.879 77.1878 332.651 79.047 332.653 80.9863V194.535C332.651 197.045 331.651 199.45 329.875 201.225C328.099 202.999 325.69 203.997 323.178 204ZM134.562 75.7181C133.192 75.7197 131.879 76.264 130.91 77.2316C129.942 78.1992 129.397 79.5111 129.395 80.8794V194.535C129.398 196.502 130.181 198.388 131.573 199.778C132.965 201.169 134.853 201.951 136.822 201.954H323.178C325.147 201.951 327.035 201.169 328.427 199.778C329.819 198.388 330.602 196.502 330.605 194.535V80.9863C330.603 79.5896 330.047 78.2505 329.058 77.2629C328.069 76.2752 326.729 75.7197 325.33 75.7181H134.562Z" fill="#3F3D56"/>
<path d="M212.428 175.224H156.588C155.222 175.222 153.903 174.725 152.876 173.825C151.849 172.925 151.183 171.684 151.003 170.331C150.969 170.088 150.953 169.842 150.954 169.596V108.075C150.956 106.583 151.55 105.153 152.606 104.098C153.663 103.043 155.095 102.449 156.588 102.448H212.428C213.922 102.449 215.354 103.043 216.41 104.098C217.466 105.153 218.06 106.583 218.062 108.075V169.596C218.06 171.088 217.466 172.519 216.41 173.574C215.354 174.629 213.922 175.222 212.428 175.224ZM156.588 105.517C155.909 105.518 155.259 105.788 154.778 106.267C154.298 106.747 154.028 107.397 154.027 108.075V169.596C154.026 169.701 154.033 169.807 154.047 169.911C154.125 170.529 154.427 171.098 154.894 171.511C155.362 171.924 155.964 172.153 156.588 172.154H212.428C213.107 172.154 213.758 171.884 214.238 171.404C214.718 170.925 214.988 170.274 214.989 169.596V108.075C214.988 107.397 214.718 106.747 214.238 106.267C213.758 105.788 213.107 105.518 212.428 105.517H156.588Z" fill="#E6E6E6"/>
<path d="M183.697 113.695C180.062 112.006 175.599 111.452 171.901 113.021C168.202 114.591 165.68 118.614 166.876 122.175C167.419 123.789 168.654 125.376 168.172 127.007C167.802 128.262 166.51 129.09 165.241 129.679C163.973 130.268 162.585 130.764 161.667 131.757C160.749 132.751 160.558 134.461 161.704 135.232C162.082 135.486 162.554 135.606 162.92 135.873C163.232 136.127 163.457 136.471 163.564 136.858C163.671 137.245 163.655 137.656 163.516 138.034C163.211 138.793 162.707 139.456 162.056 139.952C160.755 141.073 159.035 142.356 159.439 143.947C159.589 144.373 159.84 144.756 160.169 145.064C160.499 145.372 160.898 145.596 161.333 145.717C162.236 145.977 163.173 146.1 164.113 146.083L202.51 147.291C203.777 147.386 205.052 147.315 206.301 147.08C206.908 146.969 207.486 146.734 207.998 146.391C208.51 146.047 208.946 145.601 209.278 145.082C210.014 143.722 209.531 142.048 208.623 140.778C207.715 139.509 206.429 138.507 205.368 137.342C204.306 136.176 203.437 134.721 203.624 133.214C203.774 132.008 204.57 130.966 205.142 129.87C205.713 128.774 206.045 127.405 205.305 126.397C204.262 124.976 201.757 125.105 200.571 123.781C199.676 122.782 199.849 121.344 199.76 120.056C199.546 116.957 197.398 114.031 194.341 112.672C192.786 112.005 191.095 111.718 189.407 111.832C187.719 111.947 186.083 112.461 184.633 113.332L183.697 113.695Z" fill="#2F2E41"/>
<path d="M185.118 146.994C192.066 146.994 197.698 141.368 197.698 134.428C197.698 127.488 192.066 121.863 185.118 121.863C178.17 121.863 172.538 127.488 172.538 134.428C172.538 141.368 178.17 146.994 185.118 146.994Z" fill="#A0616A"/>
<path d="M201.634 163.222C201.622 161.019 201.011 158.861 199.867 156.978C198.724 155.095 197.09 153.557 195.14 152.529C194.981 152.442 194.817 152.365 194.653 152.288C193.238 151.618 191.705 151.229 190.141 151.142L178.166 150.472C176.474 150.376 174.782 150.636 173.197 151.235C172.812 151.378 172.434 151.542 172.065 151.726C170.908 152.295 169.85 153.047 168.931 153.951C167.721 155.145 166.774 156.578 166.151 158.158C165.528 159.739 165.243 161.432 165.315 163.129L165.53 168.2L167.036 172.103H200.518C200.933 171.6 201.294 171.055 201.593 170.476C202.161 169.352 202.46 168.112 202.467 166.854C202.474 165.595 202.189 164.352 201.634 163.222Z" fill="#3F3D56"/>
<path d="M200.815 156.499C200.268 155.315 199.412 154.3 198.336 153.562C197.559 153.031 196.688 152.652 195.77 152.447C195.402 152.366 195.029 152.313 194.653 152.288C193.914 152.238 193.171 152.302 192.451 152.478C191.376 152.745 190.375 153.253 189.525 153.963C188.676 154.673 187.998 155.566 187.545 156.576C187.092 157.586 186.874 158.685 186.908 159.791C186.943 160.897 187.228 161.981 187.744 162.961L192.348 171.668L192.579 172.103H208.042L200.815 156.499Z" fill="#3F3D56"/>
<path d="M175.507 151.961C174.783 151.593 174.002 151.347 173.197 151.235C172.598 151.149 171.991 151.141 171.389 151.209C169.859 151.382 168.423 152.034 167.286 153.071C166.149 154.109 165.369 155.478 165.059 156.985L161.939 172.103H174.14L176.419 171.172L179.257 160.295C179.669 158.687 179.523 156.987 178.842 155.473C178.161 153.959 176.985 152.72 175.507 151.961Z" fill="#3F3D56"/>
<path d="M172.248 132.642C176.221 132.323 179.52 128.359 179.106 124.399C179.06 126.031 179.616 127.624 180.668 128.873C181.72 130.123 183.195 130.942 184.813 131.176C186.635 131.377 188.633 130.826 190.219 131.744C191.976 132.761 192.538 135.231 194.368 136.11C196.137 136.958 198.383 135.801 199.257 134.046C200.13 132.291 199.916 130.183 199.337 128.311C198.511 125.641 197.008 123.229 194.972 121.311C192.937 119.394 190.44 118.034 187.723 117.366C185.006 116.698 182.163 116.743 179.469 117.498C176.775 118.253 174.322 119.691 172.35 121.673C170.679 123.351 169.353 125.49 169.138 127.847C168.923 130.204 170.017 132.761 172.136 133.82L172.248 132.642Z" fill="#2F2E41"/>
<path d="M304.948 155.22H237.339C236.252 155.22 235.21 154.789 234.441 154.021C233.673 153.254 233.241 152.213 233.241 151.127C233.241 150.042 233.673 149.001 234.441 148.233C235.21 147.465 236.252 147.034 237.339 147.034H304.948C306.035 147.034 307.077 147.465 307.845 148.233C308.614 149.001 309.046 150.042 309.046 151.127C309.046 152.213 308.614 153.254 307.845 154.021C307.077 154.789 306.035 155.22 304.948 155.22Z" fill="#E6E6E6"/>
<path d="M274.216 137.825H237.339C236.252 137.825 235.21 137.394 234.441 136.627C233.673 135.859 233.241 134.818 233.241 133.732C233.241 132.647 233.673 131.606 234.441 130.838C235.21 130.071 236.252 129.64 237.339 129.64H274.216C275.303 129.64 276.345 130.071 277.114 130.838C277.882 131.606 278.314 132.647 278.314 133.732C278.314 134.818 277.882 135.859 277.114 136.627C276.345 137.394 275.303 137.825 274.216 137.825Z" fill="#83F1C5"/>
<path d="M294.004 167.716C290.425 167.722 286.995 169.147 284.467 171.677C281.938 174.207 280.518 177.636 280.518 181.211C280.518 184.785 281.938 188.214 284.467 190.744C286.995 193.275 290.425 194.699 294.004 194.706H294.004C297.583 194.699 301.013 193.275 303.541 190.744C306.07 188.214 307.49 184.786 307.49 181.211C307.49 177.636 306.07 174.207 303.541 171.677C301.013 169.147 297.583 167.722 294.004 167.716Z" fill="#83F1C5"/>
<path d="M292.722 186.815C292.366 186.816 292.02 186.701 291.736 186.488L291.718 186.475L288.003 183.636C287.656 183.369 287.429 182.976 287.372 182.543C287.315 182.11 287.432 181.672 287.699 181.325C287.965 180.978 288.358 180.751 288.792 180.693C289.225 180.636 289.664 180.753 290.012 181.018L292.418 182.861L298.105 175.451C298.237 175.279 298.401 175.135 298.589 175.026C298.777 174.918 298.984 174.848 299.199 174.819C299.414 174.791 299.632 174.805 299.841 174.861C300.051 174.917 300.247 175.014 300.419 175.145L300.42 175.146L300.384 175.195L300.42 175.146C300.767 175.412 300.995 175.805 301.052 176.239C301.109 176.672 300.992 177.11 300.726 177.458L294.037 186.17C293.882 186.371 293.683 186.533 293.455 186.645C293.228 186.756 292.977 186.814 292.724 186.813L292.722 186.815Z" fill="white"/>
</g>
<defs>
<clipPath id="clip0_36_2">
<rect width="460" height="204" fill="white"/>
</clipPath>
</defs>
</svg>
