<svg width="417" height="273" viewBox="0 0 417 273" fill="none" xmlns="http://www.w3.org/2000/svg">
<path d="M365.874 182.988C365.47 182.504 365.177 181.937 365.016 181.328C364.854 180.718 364.829 180.081 364.94 179.46C365.052 178.84 365.298 178.251 365.661 177.736C366.025 177.221 366.497 176.792 367.044 176.479L364.222 161.415L371.562 164.5L373.116 178.332C373.581 179.286 373.679 180.378 373.393 181.4C373.106 182.422 372.455 183.304 371.562 183.878C370.67 184.452 369.598 184.678 368.549 184.514C367.501 184.35 366.549 183.807 365.874 182.988V182.988Z" fill="#FFB6B6"/>
<path d="M348.435 8.83746H26.2105V161.799H348.435V8.83746Z" fill="#E6E6E6"/>
<path d="M339.221 21.9542H35.4247V149.574H339.221V21.9542Z" fill="white"/>
<path d="M348.297 0H26.0731V13.6944H348.297V0Z" fill="#52EBDA"/>
<path d="M36.2458 8.8725C37.6471 8.8725 38.783 7.73611 38.783 6.33429C38.783 4.93248 37.6471 3.79608 36.2458 3.79608C34.8445 3.79608 33.7086 4.93248 33.7086 6.33429C33.7086 7.73611 34.8445 8.8725 36.2458 8.8725Z" fill="white"/>
<path d="M45.8762 8.8725C47.2775 8.8725 48.4134 7.73611 48.4134 6.33429C48.4134 4.93248 47.2775 3.79608 45.8762 3.79608C44.475 3.79608 43.339 4.93248 43.339 6.33429C43.339 7.73611 44.475 8.8725 45.8762 8.8725Z" fill="white"/>
<path d="M55.5071 8.8725C56.9084 8.8725 58.0443 7.73611 58.0443 6.33429C58.0443 4.93248 56.9084 3.79608 55.5071 3.79608C54.1058 3.79608 52.9699 4.93248 52.9699 6.33429C52.9699 7.73611 54.1058 8.8725 55.5071 8.8725Z" fill="white"/>
<path d="M53.1915 104.061C52.8392 104.063 52.5018 104.204 52.2532 104.453C52.0045 104.703 51.8649 105.041 51.8649 105.393C51.8649 105.746 52.0045 106.084 52.2532 106.333C52.5018 106.583 52.8392 106.724 53.1915 106.725H126.247C126.599 106.724 126.937 106.583 127.185 106.333C127.434 106.084 127.574 105.746 127.574 105.393C127.574 105.041 127.434 104.703 127.185 104.453C126.937 104.204 126.599 104.063 126.247 104.061H53.1915Z" fill="#E6E6E6"/>
<path d="M53.1915 112.054C52.8392 112.055 52.5018 112.196 52.2532 112.445C52.0045 112.695 51.8649 113.033 51.8649 113.385C51.8649 113.738 52.0045 114.076 52.2532 114.326C52.5018 114.575 52.8392 114.716 53.1915 114.717H90.4878C90.8401 114.716 91.1775 114.575 91.4261 114.326C91.6748 114.076 91.8144 113.738 91.8144 113.385C91.8144 113.033 91.6748 112.695 91.4261 112.445C91.1775 112.196 90.8401 112.055 90.4878 112.054H53.1915Z" fill="#E6E6E6"/>
<path d="M126.339 127.142H98.5876C98.2282 127.142 97.8836 126.999 97.6295 126.745C97.3753 126.49 97.2323 126.146 97.2319 125.786V121.338C97.2323 120.978 97.3753 120.634 97.6295 120.379C97.8836 120.125 98.2282 119.982 98.5876 119.982H126.339C126.698 119.982 127.043 120.125 127.297 120.379C127.551 120.634 127.694 120.978 127.695 121.338V125.786C127.694 126.146 127.551 126.49 127.297 126.745C127.043 126.999 126.698 127.142 126.339 127.142Z" fill="#52EBDA"/>
<path d="M126.339 80.823H98.5876C98.2282 80.8226 97.8836 80.6795 97.6295 80.4253C97.3753 80.171 97.2323 79.8263 97.2319 79.4667V75.0186C97.2323 74.6591 97.3753 74.3143 97.6295 74.0601C97.8836 73.8058 98.2282 73.6628 98.5876 73.6624H126.339C126.698 73.6628 127.043 73.8058 127.297 74.0601C127.551 74.3143 127.694 74.6591 127.695 75.0186V79.4667C127.694 79.8263 127.551 80.171 127.297 80.4253C127.043 80.6795 126.698 80.8226 126.339 80.823Z" fill="#52EBDA"/>
<path d="M175.253 44.2737C174.793 44.2744 174.352 44.4578 174.026 44.7837C173.701 45.1095 173.519 45.5511 173.519 46.0116C173.519 46.472 173.701 46.9137 174.026 47.2395C174.352 47.5654 174.793 47.7488 175.253 47.7495H320.549C321.01 47.7488 321.451 47.5654 321.776 47.2395C322.101 46.9137 322.284 46.472 322.284 46.0116C322.284 45.5511 322.101 45.1095 321.776 44.7837C321.451 44.4578 321.01 44.2744 320.549 44.2737H175.253Z" fill="#E6E6E6"/>
<path d="M175.253 54.7021C174.793 54.7029 174.352 54.8863 174.026 55.2121C173.701 55.538 173.519 55.9796 173.519 56.4401C173.519 56.9005 173.701 57.3422 174.026 57.668C174.352 57.9938 174.793 58.1773 175.253 58.178H273.889C274.35 58.1773 274.791 57.9938 275.116 57.668C275.441 57.3422 275.624 56.9005 275.624 56.4401C275.624 55.9796 275.441 55.538 275.116 55.2121C274.791 54.8863 274.35 54.7029 273.889 54.7021H175.253Z" fill="#E6E6E6"/>
<path d="M175.253 64.8947C174.793 64.8954 174.352 65.0788 174.026 65.4047C173.701 65.7305 173.519 66.1721 173.519 66.6326C173.519 67.0931 173.701 67.5347 174.026 67.8605C174.352 68.1864 174.793 68.3698 175.253 68.3705H320.549C321.01 68.3698 321.451 68.1864 321.776 67.8605C322.101 67.5347 322.284 67.0931 322.284 66.6326C322.284 66.1721 322.101 65.7305 321.776 65.4047C321.451 65.0788 321.01 64.8954 320.549 64.8947H175.253Z" fill="#E6E6E6"/>
<path d="M175.253 75.3232C174.793 75.3239 174.352 75.5073 174.026 75.8331C173.701 76.159 173.519 76.6006 173.519 77.0611C173.519 77.5215 173.701 77.9632 174.026 78.289C174.352 78.6148 174.793 78.7983 175.253 78.799H273.889C274.35 78.7983 274.791 78.6148 275.116 78.289C275.441 77.9632 275.624 77.5215 275.624 77.0611C275.624 76.6006 275.441 76.159 275.116 75.8331C274.791 75.5073 274.35 75.3239 273.889 75.3232H175.253Z" fill="#E6E6E6"/>
<path d="M320.975 97.8781H293.224C292.865 97.8777 292.52 97.7346 292.266 97.4804C292.012 97.2261 291.869 96.8814 291.868 96.5218V92.0738C291.869 91.7142 292.012 91.3694 292.266 91.1152C292.52 90.8609 292.865 90.7179 293.224 90.7175H320.975C321.335 90.7179 321.679 90.8609 321.933 91.1152C322.188 91.3694 322.331 91.7142 322.331 92.0738V96.5218C322.331 96.8814 322.188 97.2261 321.933 97.4804C321.679 97.7346 321.335 97.8777 320.975 97.8781Z" fill="#52EBDA"/>
<path d="M84.656 46.1562C84.1629 46.1578 83.764 46.7983 83.765 47.5869C83.7659 48.3733 84.1643 49.0104 84.656 49.012H126.747C127.24 49.0104 127.639 48.3699 127.638 47.5813C127.637 46.7949 127.239 46.1578 126.747 46.1562H84.656Z" fill="#E4E4E4"/>
<path d="M84.656 54.4304C84.1629 54.432 83.764 55.0725 83.765 55.8611C83.7659 56.6475 84.1643 57.2846 84.656 57.2862H126.747C127.24 57.2846 127.639 56.6441 127.638 55.8555C127.637 55.0691 127.239 54.432 126.747 54.4304H84.656Z" fill="#E4E4E4"/>
<path d="M84.656 62.6045C84.1629 62.6061 83.764 63.2466 83.765 64.0352C83.7659 64.8216 84.1643 65.4587 84.656 65.4603H102.768C103.261 65.4587 103.66 64.8182 103.659 64.0296C103.658 63.2432 103.259 62.6061 102.768 62.6045H84.656Z" fill="#E4E4E4"/>
<path d="M63.2845 67.1262C69.5926 67.1262 74.7063 62.0105 74.7063 55.6999C74.7063 49.3894 69.5926 44.2737 63.2845 44.2737C56.9765 44.2737 51.8628 49.3894 51.8628 55.6999C51.8628 62.0105 56.9765 67.1262 63.2845 67.1262Z" fill="#E4E4E4"/>
<path d="M299.788 95.6152C299.707 96.2405 299.764 96.8759 299.956 97.4767C300.147 98.0775 300.467 98.6291 300.894 99.0926C301.322 99.556 301.845 99.9202 302.429 100.159C303.012 100.398 303.64 100.507 304.27 100.477L309.978 114.699L314.513 108.153L308.397 95.6506C308.276 94.5959 307.773 93.6222 306.982 92.914C306.192 92.2058 305.169 91.8122 304.108 91.8078C303.047 91.8034 302.021 92.1886 301.225 92.8904C300.429 93.5921 299.918 94.5616 299.788 95.6152Z" fill="#FFB6B6"/>
<path d="M364.149 266.664H358.893L356.393 246.383L364.15 246.384L364.149 266.664Z" fill="#FFB6B6"/>
<path d="M365.489 271.761L348.542 271.761V271.546C348.542 269.796 349.237 268.118 350.474 266.88C351.711 265.643 353.389 264.948 355.138 264.947H355.139L365.49 264.948L365.489 271.761Z" fill="#2F2E41"/>
<path d="M346.95 266.498L341.939 264.91L345.673 244.82L353.069 247.163L346.95 266.498Z" fill="#FFB6B6"/>
<path d="M346.69 271.761L330.533 266.644L330.598 266.44C331.126 264.771 332.295 263.381 333.847 262.575C335.4 261.768 337.209 261.612 338.877 262.14L338.878 262.14L348.746 265.266L346.69 271.761Z" fill="#2F2E41"/>
<path d="M340.725 167.543C340.725 167.543 332.926 179.793 335.682 190.726C338.438 201.659 341.439 222.674 341.439 222.674L356.38 258.247L367.518 257.793L356.457 215.851L356.895 187.808C356.895 187.808 364.582 174.406 363.085 170.234C361.588 166.062 340.725 167.543 340.725 167.543Z" fill="#2F2E41"/>
<path d="M366.202 171.923C366.202 171.923 367.161 184.075 364.16 189.221C361.159 194.368 357.962 213.957 357.962 213.957L352.861 253.133L342.296 249.694L351.305 205.801L358.386 171.274L366.202 171.923Z" fill="#2F2E41"/>
<path d="M369.948 113.095L361.705 107.426L349.161 107.062L344.792 111.346L338.126 114.752L337.508 170.234C337.508 170.234 357.471 179.806 368.211 175.186L373.378 131.965C375.521 123.388 369.948 113.095 369.948 113.095Z" fill="#3F3D56"/>
<path d="M339.8 129.578H317.812L303.366 104.702L312.759 100.98L320.714 115.137L332.228 114.094L339.417 113.746C340.57 113.691 341.72 113.887 342.788 114.323C343.856 114.758 344.816 115.422 345.601 116.268C346.386 117.113 346.977 118.12 347.332 119.218C347.688 120.315 347.799 121.478 347.658 122.623C347.421 124.541 346.491 126.307 345.044 127.588C343.597 128.869 341.732 129.576 339.8 129.578Z" fill="#3F3D56"/>
<path d="M356.455 102.493C362.462 102.493 367.332 97.6215 367.332 91.6122C367.332 85.6029 362.462 80.7314 356.455 80.7314C350.449 80.7314 345.579 85.6029 345.579 91.6122C345.579 97.6215 350.449 102.493 356.455 102.493Z" fill="#FFB6B6"/>
<path d="M369.561 89.1366C369.227 86.7478 367.609 84.4797 365.31 83.756C364.396 81.1018 361.976 79.1477 359.302 78.2959C356.826 77.5062 354.158 77.561 351.717 78.4518C349.275 79.3426 347.198 81.019 345.812 83.2181C345.607 83.5399 344.978 84.3306 344.996 84.7147C345.018 85.2025 345.764 85.7061 346.139 86.0136C347.067 86.7317 348.069 87.3501 349.127 87.8588C353.038 89.8872 351.736 93.0751 351.683 96.6875C351.657 98.443 352.243 99.9419 353.739 100.945C355.899 102.392 358.989 101.816 361.339 101.235C364.005 100.576 366.222 98.233 367.742 95.9738C369.089 93.973 369.895 91.5254 369.561 89.1366Z" fill="#2F2E41"/>
<path d="M369.636 127.26L373.869 173.701L360.271 172.972L369.636 127.26Z" fill="#3F3D56"/>
<path d="M416.49 273H250.022C249.887 273 249.758 272.946 249.662 272.85C249.567 272.754 249.513 272.625 249.513 272.489C249.513 272.354 249.567 272.224 249.662 272.129C249.758 272.033 249.887 271.979 250.022 271.979H416.49C416.625 271.979 416.755 272.032 416.85 272.128C416.946 272.224 417 272.354 417 272.489C417 272.625 416.946 272.755 416.85 272.85C416.755 272.946 416.625 273 416.49 273Z" fill="#CACACA"/>
<path d="M36.0502 267.909H40.1268L42.0663 252.178H36.0493L36.0502 267.909Z" fill="#9E616A"/>
<path d="M35.0102 266.577L43.0389 266.577H43.0393C44.3962 266.577 45.6976 267.116 46.6571 268.076C47.6166 269.036 48.1557 270.338 48.1558 271.695V271.862L35.0105 271.862L35.0102 266.577Z" fill="#2F2E41"/>
<path d="M73.6266 267.909H77.7032L79.6427 252.178H73.6257L73.6266 267.909Z" fill="#9E616A"/>
<path d="M72.5865 266.577L80.6153 266.577H80.6156C81.9725 266.577 83.2739 267.116 84.2334 268.076C85.1929 269.036 85.732 270.338 85.7321 271.695V271.862L72.5868 271.862L72.5865 266.577Z" fill="#2F2E41"/>
<path d="M68.7041 141.53L71.3642 158.495L46.0919 158.828L49.4171 142.528L68.7041 141.53Z" fill="#9E616A"/>
<path d="M70.631 154.353L78.6802 175.794L79.6778 264.65H72.8608L56.5667 193.259L41.6026 262.786H34.952L39.6074 184.61C39.6074 184.61 38.2346 168.919 45.2605 159.66L46.9707 154.717L70.631 154.353Z" fill="#52EBDA"/>
<path d="M36.1045 171.067C36.8081 170.876 37.4612 170.532 38.0177 170.06C38.5741 169.589 39.0204 169.001 39.3252 168.338C39.6299 167.675 39.7857 166.953 39.7815 166.224C39.7773 165.494 39.6132 164.774 39.3008 164.115L50.0522 129.049L42.1442 127.481L32.311 161.853C31.2386 162.451 30.4229 163.422 30.0184 164.582C29.6139 165.742 29.6488 167.01 30.1164 168.146C30.584 169.281 31.4518 170.206 32.5554 170.745C33.6591 171.283 34.9218 171.398 36.1045 171.067Z" fill="#9E616A"/>
<path d="M50.2842 150.9C50.1367 150.9 49.9895 150.885 49.8448 150.856C49.3582 150.759 48.9168 150.505 48.5881 150.133C48.2594 149.761 48.0614 149.292 48.0244 148.797C47.7744 145.373 46.5358 139.413 44.3428 131.082C43.6026 128.25 43.7665 125.258 44.8117 122.525C45.857 119.791 47.731 117.453 50.1712 115.839C52.6115 114.225 55.4955 113.415 58.419 113.523C61.3425 113.631 64.159 114.651 66.4736 116.441C67.9556 117.577 69.1925 119.001 70.1098 120.627C71.0271 122.254 71.6059 124.049 71.8112 125.905C72.9011 135.507 70.8464 145.147 69.9124 148.847C69.7897 149.329 69.5121 149.759 69.1222 150.069C68.7323 150.379 68.2516 150.552 67.7537 150.563L50.3326 150.899C50.3165 150.9 50.3004 150.9 50.2842 150.9Z" fill="#3F3D56"/>
<path d="M98.9553 120.098C98.8507 120.333 98.7647 120.576 98.6982 120.824L76.8921 128.237L72.6785 124.554L66.292 130.189L73.1181 137.434C73.6695 138.019 74.3959 138.409 75.1881 138.547C75.9802 138.684 76.7955 138.56 77.5114 138.194L100.845 126.271C101.689 126.788 102.671 127.037 103.659 126.983C104.648 126.929 105.596 126.576 106.379 125.969C107.162 125.363 107.741 124.533 108.041 123.589C108.34 122.645 108.345 121.632 108.055 120.685C107.765 119.738 107.194 118.902 106.418 118.288C105.641 117.674 104.696 117.311 103.708 117.247C102.72 117.183 101.736 117.422 100.887 117.931C100.038 118.44 99.3645 119.196 98.9553 120.098V120.098Z" fill="#9E616A"/>
<path d="M76.1319 128.642L68.1826 135.588C67.9564 135.785 67.6903 135.932 67.4024 136.017C67.1145 136.103 66.8116 136.125 66.5143 136.083C66.2169 136.041 65.9322 135.935 65.6794 135.773C65.4267 135.611 65.2118 135.396 65.0495 135.143L59.3636 126.285C58.3583 125.122 57.8554 123.607 57.9651 122.074C58.0749 120.54 58.7883 119.112 59.949 118.104C61.1096 117.096 62.6227 116.59 64.1561 116.696C65.6895 116.803 67.118 117.513 68.1283 118.672L76.1127 125.476C76.3413 125.671 76.5252 125.913 76.6519 126.185C76.7786 126.458 76.8451 126.754 76.8469 127.055C76.8487 127.355 76.7858 127.652 76.6624 127.926C76.539 128.2 76.3581 128.444 76.1319 128.642H76.1319Z" fill="#3F3D56"/>
<path d="M48.7962 138.027L38.9726 134.167C38.6931 134.057 38.4405 133.888 38.2321 133.672C38.0237 133.455 37.8644 133.197 37.7649 132.913C37.6655 132.63 37.6282 132.328 37.6558 132.029C37.6833 131.73 37.775 131.44 37.9246 131.18L43.1659 122.052C43.7357 120.624 44.8482 119.481 46.2594 118.873C47.6706 118.264 49.2653 118.241 50.6938 118.807C52.1223 119.373 53.2681 120.483 53.8798 121.893C54.4915 123.303 54.5193 124.899 53.957 126.329L51.5963 136.553C51.5287 136.845 51.3987 137.12 51.2154 137.358C51.032 137.596 50.7995 137.791 50.5338 137.931C50.2681 138.071 49.9753 138.152 49.6755 138.169C49.3756 138.185 49.0757 138.137 48.7962 138.027Z" fill="#3F3D56"/>
<path d="M56.0783 111.361C61.9798 111.361 66.7639 106.575 66.7639 100.671C66.7639 94.7675 61.9798 89.9815 56.0783 89.9815C50.1767 89.9815 45.3926 94.7675 45.3926 100.671C45.3926 106.575 50.1767 111.361 56.0783 111.361Z" fill="#9E616A"/>
<path d="M166.978 273H0.510464C0.375337 273 0.245878 272.946 0.150466 272.85C0.0550553 272.754 0.0014801 272.625 0.0014801 272.489C0.0014801 272.354 0.0550553 272.224 0.150466 272.129C0.245878 272.033 0.375337 271.979 0.510464 271.979H166.978C167.113 271.979 167.242 272.033 167.338 272.129C167.433 272.224 167.487 272.354 167.487 272.489C167.487 272.625 167.433 272.754 167.338 272.85C167.242 272.946 167.113 273 166.978 273Z" fill="#CACACA"/>
<path d="M63.4291 96.3741C65.7218 96.3612 68.0144 96.3483 70.307 96.3354C70.4701 94.7722 69.7747 93.2171 68.7615 92.0161C67.6937 90.8606 66.4759 89.8534 65.1407 89.0216C63.8256 88.1188 62.4633 87.1954 60.9 86.8799C59.5896 86.6155 58.2352 86.799 56.9113 86.9831C55.1557 87.2273 53.4001 87.4716 51.6445 87.7158C49.7174 87.9839 47.7011 88.287 46.1359 89.4433C44.0191 91.0068 43.2094 93.7465 42.5293 96.2892L38.7645 110.363L61.0021 112.697C61.8066 112.835 62.6306 112.811 63.4256 112.626C63.8215 112.527 64.1795 112.313 64.455 112.012C64.7305 111.71 64.9114 111.335 64.9753 110.931C65.0393 110.024 64.3199 109.281 63.7356 108.585C62.3419 106.857 61.5053 104.747 61.3365 102.533C61.1677 100.319 61.6747 98.1066 62.7905 96.1874L63.4291 96.3741Z" fill="#2F2E41"/>
</svg>
