<svg xmlns="http://www.w3.org/2000/svg" width="70.377" height="76.625" viewBox="0 0 70.377 76.625"><rect width="1.625" height="14.511" rx="0.555" transform="translate(47.131 35.323)" fill="#f9b087"/><path d="M134.236,121.569a5.289,5.289,0,0,0-3.61-1.176h-4.794a.218.218,0,0,0-.218.218v14.075a.218.218,0,0,0,.218.218h1.189a.218.218,0,0,0,.218-.218v-5.514H130.6a5.427,5.427,0,0,0,3.687-1.132,4.622,4.622,0,0,0-.049-6.471Zm-1.117,5.395a3.615,3.615,0,0,1-2.493.767h-3.388v-5.894H130.7a3.436,3.436,0,0,1,2.42.825,2.843,2.843,0,0,1,.837,2.171,2.707,2.707,0,0,1-.837,2.131Z" transform="translate(-91.363 -85.07)" fill="#f9b087"/><path d="M96.444,130.95l1.407,3.812a.219.219,0,0,0,.2.143h1.237a.218.218,0,0,0,.2-.3l-5.326-14.076a.219.219,0,0,0-.2-.141H92.835a.219.219,0,0,0-.2.141L87.3,134.608a.218.218,0,0,0,.2.3h1.247a.219.219,0,0,0,.205-.143l1.4-3.812ZM93.4,122.692l2.51,6.817h-5.02Z" transform="translate(-68.098 -85.07)" fill="#f9b087"/><g transform="translate(0 0)"><path d="M149.119,96.122h-1.173a.982.982,0,0,0,0,1.965h1.173a.982.982,0,1,0,0-1.965Z" transform="translate(-104.324 -70.336)" fill="#846f75"/><path d="M159.2,96.122h-1.173a.982.982,0,1,0,0,1.965H159.2a.982.982,0,1,0,0-1.965Z" transform="translate(-110.442 -70.336)" fill="#846f75"/><path d="M169.276,96.122H168.1a.982.982,0,0,0,0,1.965h1.173a.982.982,0,1,0,0-1.965Z" transform="translate(-116.56 -70.336)" fill="#846f75"/><path d="M83.05,96.122H81.876a.982.982,0,0,0,0,1.965H83.05a.982.982,0,0,0,0-1.965Z" transform="translate(-64.215 -70.336)" fill="#846f75"/><path d="M103.92,97.272V93.849a.982.982,0,0,0-.982-.982H74.619v-6h18.6A2.085,2.085,0,0,0,95.3,84.784V73.222A13.608,13.608,0,0,0,99.8,46.8,10.455,10.455,0,0,0,89.424,37.23a10.319,10.319,0,0,0-3.59.638,21.358,21.358,0,0,0-36.773,8.474,13.607,13.607,0,0,0,2.912,26.88V84.784a2.085,2.085,0,0,0,2.083,2.083h18.6v6H44.336a.982.982,0,0,0-.982.982v3.423a4.974,4.974,0,1,0,1.965,0V94.832h17.57v2.441a4.974,4.974,0,1,0,1.965,0V94.832H82.421v2.441a4.975,4.975,0,1,0,1.965,0V94.832h17.57v2.441a4.975,4.975,0,1,0,1.965,0ZM93.336,59.511h-39.4V54.832a.118.118,0,0,1,.118-.118H93.218a.118.118,0,0,1,.118.118Zm-52.921.105a11.616,11.616,0,0,1,9.618-11.465.982.982,0,0,0,.786-.743,19.393,19.393,0,0,1,33.959-7.741.982.982,0,0,0,1.169.275,8.376,8.376,0,0,1,3.477-.749,8.477,8.477,0,0,1,8.444,8.34.982.982,0,0,0,.7.929A11.643,11.643,0,0,1,95.3,71.255V54.83a2.085,2.085,0,0,0-2.083-2.083H54.056a2.085,2.085,0,0,0-2.083,2.083V71.255A11.655,11.655,0,0,1,40.415,59.616ZM53.938,84.784V61.476h39.4V84.784a.118.118,0,0,1-.118.118H54.056A.118.118,0,0,1,53.938,84.784Zm-6.593,17.364a3.01,3.01,0,1,1-3.01-3.01A3.01,3.01,0,0,1,47.345,102.148Zm19.534,0a3.01,3.01,0,1,1-3.01-3.01,3.01,3.01,0,0,1,3.01,3.01Zm19.534,0a3.01,3.01,0,1,1-3.01-3.01A3.01,3.01,0,0,1,86.414,102.148Zm16.524,3.01a3.01,3.01,0,1,1,3.01-3.01,3.009,3.009,0,0,1-3.01,3.01Z" transform="translate(-38.448 -30.498)" fill="#846f75"/></g></svg>