<svg xmlns="http://www.w3.org/2000/svg" width="87.233" height="64.695" viewBox="0 0 87.233 64.695"><path d="M67.452,151.635h-8.88a.982.982,0,1,1,0-1.965h8.88a.982.982,0,1,1,0,1.965Z" transform="translate(-40.265 -111.26)" fill="#65c1d6"/><path d="M106.957,151.635h-8.88a.982.982,0,1,1,0-1.965h8.88a.982.982,0,1,1,0,1.965Z" transform="translate(-64.246 -111.26)" fill="#65c1d6"/><path d="M146.463,151.635h-8.88a.982.982,0,0,1,0-1.965h8.88a.982.982,0,0,1,0,1.965Z" transform="translate(-88.229 -111.26)" fill="#65c1d6"/><path d="M98.5,112.67H58.571a.982.982,0,0,1-.982-.982V95.105a.982.982,0,0,1,.982-.982h41.551a.982.982,0,1,1,0,1.965H59.554v14.617H98.5a.982.982,0,1,1,0,1.965Z" transform="translate(-40.265 -77.54)" fill="#65c1d6"/><path d="M189.95,178.892a.982.982,0,0,1-.982-.982v-8.2H171.24v8.2a.982.982,0,1,1-1.965,0v-9.185a.982.982,0,0,1,.982-.982H189.95a.982.982,0,0,1,.982.982v9.185A.982.982,0,0,1,189.95,178.892Z" transform="translate(-108.065 -122.231)" fill="#65c1d6"/><path d="M106.739,85.765H47.118a.982.982,0,0,1,0-1.965h59.62a.982.982,0,0,1,0,1.965Z" transform="translate(-33.312 -71.273)" fill="#ebe7f2"/><path d="M188.517,119.774H160.706a.982.982,0,1,1,0-1.965h27.811a.982.982,0,0,1,0,1.965Z" transform="translate(-102.267 -91.919)" fill="#ebe7f2"/><path d="M32.518,97.533a.982.982,0,0,0,.982-.982V53.885H102.63V65.429a.982.982,0,1,0,1.965,0V52.9a.982.982,0,0,0-.982-.982H32.518a.982.982,0,0,0-.982.982V96.55a.982.982,0,0,0,.982.982Z" transform="translate(-24.449 -51.92)" fill="#846f75"/><path d="M87.486,104.257H48.1V68.2h57.655v5.92a.982.982,0,1,0,1.965,0v-6.9a.982.982,0,0,0-.982-.982H47.118a.982.982,0,0,0-.982.982V105.24a.982.982,0,0,0,.982.982H87.486a.982.982,0,1,0,0-1.965Z" transform="translate(-33.312 -60.609)" fill="#846f75"/><path d="M17.632,179.276H67.674a.982.982,0,1,0,0-1.965H17.632a4.132,4.132,0,0,0,0,8.264H67.674a.982.982,0,1,0,0-1.965H17.632a2.167,2.167,0,0,1,0-4.335Z" transform="translate(-13.5 -128.04)" fill="#846f75"/><path d="M186.139,94.128h-23.9a3.046,3.046,0,0,0-3.043,3.043V139.2a3.046,3.046,0,0,0,3.043,3.043h23.9a3.046,3.046,0,0,0,3.043-3.043V97.171a3.046,3.046,0,0,0-3.043-3.043Zm-23.9,1.965h23.9a1.079,1.079,0,0,1,1.078,1.078v35.068H161.165V97.171a1.079,1.079,0,0,1,1.078-1.078Zm23.9,44.18h-23.9a1.079,1.079,0,0,1-1.078-1.078V134.2h26.052v4.99a1.079,1.079,0,0,1-1.078,1.078Z" transform="translate(-101.948 -77.543)" fill="#846f75"/><path d="M193.759,203.089H187.11a.982.982,0,0,1,0-1.965h6.648a.982.982,0,0,1,0,1.965Z" transform="translate(-118.295 -142.496)" fill="#ebe7f2"/><g transform="translate(17.324 9.176)"><path d="M189.95,141.408H170.257a.982.982,0,0,1-.982-.982V129.555a.982.982,0,0,1,.982-.982H189.95a.982.982,0,0,1,.982.982v10.871A.982.982,0,0,1,189.95,141.408Zm-18.711-1.965h17.728v-8.906H171.24Z" transform="translate(-125.389 -107.628)" fill="#65c1d6"/><path d="M215.042,104.618H211.59a.982.982,0,1,1,0-1.965h3.452a.982.982,0,0,1,0,1.965Z" transform="translate(-150.481 -91.893)" fill="#65c1d6"/><path d="M215.042,111.68H211.59a.982.982,0,1,1,0-1.965h3.452a.982.982,0,0,1,0,1.965Z" transform="translate(-150.481 -96.181)" fill="#65c1d6"/><path d="M172.155,107.357a2.877,2.877,0,1,1,2.877-2.877A2.877,2.877,0,0,1,172.155,107.357Zm0-3.79a.912.912,0,1,0,.912.912.912.912,0,0,0-.912-.912Z" transform="translate(-125.391 -91.256)" fill="#65c1d6"/><path d="M64.12,77.236H58.571a.982.982,0,0,1,0-1.965H64.12a.982.982,0,0,1,0,1.965Z" transform="translate(-57.589 -75.271)" fill="#65c1d6"/><path d="M124.662,77.236h-2.369a.982.982,0,0,1,0-1.965h2.369a.982.982,0,1,1,0,1.965Z" transform="translate(-96.272 -75.271)" fill="#65c1d6"/><path d="M143.779,77.236H141.41a.982.982,0,0,1,0-1.965h2.369a.982.982,0,1,1,0,1.965Z" transform="translate(-107.877 -75.271)" fill="#65c1d6"/><path d="M162.9,77.236h-2.369a.982.982,0,0,1,0-1.965H162.9a.982.982,0,0,1,0,1.965Z" transform="translate(-119.482 -75.271)" fill="#65c1d6"/><path d="M182.012,77.236h-2.369a.982.982,0,0,1,0-1.965h2.369a.982.982,0,0,1,0,1.965Z" transform="translate(-131.087 -75.271)" fill="#65c1d6"/></g></svg>