<svg xmlns="http://www.w3.org/2000/svg" width="73.271" height="78.719" viewBox="0 0 73.271 78.719"><path d="M123.034,207.765H111.975a.982.982,0,1,1,0-1.965h11.058a.982.982,0,1,1,0,1.965Z" transform="translate(-78.316 -135.869)" fill="#ebe7f2"/><g transform="translate(0 7.464)"><path d="M122.361,130H103.107a.982.982,0,0,1-.982-.982v-8.252a.982.982,0,0,1,.982-.982h19.254a.982.982,0,0,1,.982.982v8.252A.982.982,0,0,1,122.361,130Zm-18.272-1.965h17.289v-6.287H104.09Z" transform="translate(-72.933 -91.117)" fill="#a58bc9"/><path d="M180.536,130H161.282a.982.982,0,0,1-.982-.982v-8.252a.982.982,0,0,1,.982-.982h19.254a.982.982,0,0,1,.982.982v8.252A.982.982,0,0,1,180.536,130Zm-18.272-1.965h17.289v-6.287H162.265Z" transform="translate(-108.248 -91.117)" fill="#a58bc9"/><path d="M35.811,113.709H30.9a.982.982,0,0,1-.982-.982v-4.912a.982.982,0,0,1,.982-.982h4.912a.982.982,0,0,1,.982.982v4.912A.982.982,0,0,1,35.811,113.709Zm-3.929-1.965h2.947V108.8H31.882Z" transform="translate(-29.098 -83.255)" fill="#a58bc9"/><path d="M68.751,115.048H54.9a.982.982,0,0,1,0-1.965H68.751a.982.982,0,1,1,0,1.965Z" transform="translate(-43.668 -87.049)" fill="#a58bc9"/><path d="M35.811,136.459H30.9a.982.982,0,0,1-.982-.982v-4.912a.982.982,0,0,1,.982-.982h4.912a.982.982,0,0,1,.982.982v4.912A.982.982,0,0,1,35.811,136.459Zm-3.929-1.965h2.947v-2.947H31.882Z" transform="translate(-29.098 -97.066)" fill="#a58bc9"/><path d="M68.751,137.8H54.9a.982.982,0,0,1,0-1.965H68.751a.982.982,0,1,1,0,1.965Z" transform="translate(-43.668 -100.86)" fill="#a58bc9"/><path d="M182.13,62.193h-13.4a.982.982,0,0,1-.982-.982v-13.4a.982.982,0,0,1,.982-.982h13.4a.982.982,0,0,1,.982.982v13.4a.982.982,0,0,1-.984.982Zm-12.415-1.965h11.435V48.794H169.715Z" transform="translate(-112.771 -46.829)" fill="#a58bc9"/><path d="M38.246,71.951H28.815a.982.982,0,0,1,0-1.965h9.431a.982.982,0,0,1,0,1.965Z" transform="translate(-27.833 -60.887)" fill="#a58bc9"/><path d="M38.246,82.894H28.815a.982.982,0,0,1,0-1.965h9.431a.982.982,0,0,1,0,1.965Z" transform="translate(-27.833 -67.53)" fill="#a58bc9"/><path d="M38.246,93.836H28.815a.982.982,0,0,1,0-1.965h9.431a.982.982,0,1,1,0,1.965Z" transform="translate(-27.833 -74.172)" fill="#a58bc9"/><path d="M86.268,166.423a5.837,5.837,0,1,1,5.837-5.837A5.837,5.837,0,0,1,86.268,166.423Zm0-9.709a3.872,3.872,0,1,0,3.872,3.872,3.872,3.872,0,0,0-3.872-3.872Z" transform="translate(-59.763 -112.343)" fill="#a58bc9"/><path d="M151.7,166.423a5.837,5.837,0,1,1,5.837-5.837A5.837,5.837,0,0,1,151.7,166.423Zm0-9.709a3.872,3.872,0,1,0,3.872,3.872,3.872,3.872,0,0,0-3.872-3.872Z" transform="translate(-99.484 -112.343)" fill="#a58bc9"/></g><path d="M110.192,92.4a.982.982,0,0,0,1.375-.2l6.371-8.6,2.73,3.993a.982.982,0,1,0,1.621-1.109l-3.509-5.133a.982.982,0,0,0-1.6-.031l-3.167,4.273-2.9-4.244a.982.982,0,0,0-1.6-.031l-7.191,9.706A.982.982,0,1,0,103.9,92.2l6.371-8.6,2.506,3.665-2.788,3.761a.982.982,0,0,0,.2,1.375Z" transform="translate(-72.935 -60.062)" fill="#846f75"/><path d="M67.182,59.367a.982.982,0,0,0,.982-.982V32.242A2.447,2.447,0,0,1,70.609,29.8h39.748a2.447,2.447,0,0,1,2.444,2.444.982.982,0,1,0,1.965,0,4.414,4.414,0,0,0-4.409-4.409H70.61a4.414,4.414,0,0,0-4.41,4.409V58.384A.982.982,0,0,0,67.182,59.367Z" transform="translate(-51.124 -27.833)" fill="#846f75"/><path d="M113.785,148.289a.982.982,0,0,0-.982.982v13.586H68.165V146.815a.982.982,0,0,0-1.965,0v26.961a4.414,4.414,0,0,0,4.409,4.409h39.748a4.414,4.414,0,0,0,4.41-4.409v-24.5a.982.982,0,0,0-.982-.982Zm-3.427,27.932H70.61a2.447,2.447,0,0,1-2.444-2.444v-8.954H112.8v8.954a2.447,2.447,0,0,1-2.445,2.444Z" transform="translate(-51.124 -99.466)" fill="#846f75"/><path d="M185.782,90.929a.982.982,0,0,0-.982.982V99.32a.982.982,0,0,0,1.965,0V91.911A.982.982,0,0,0,185.782,90.929Z" transform="translate(-123.121 -66.136)" fill="#846f75"/><path d="M183.249,60.818l1.843-1.843a.982.982,0,1,0-1.389-1.389l-1.843,1.843-1.843-1.843a.982.982,0,1,0-1.389,1.389l1.843,1.843-1.843,1.843a.982.982,0,1,0,1.389,1.389l1.843-1.843L183.7,64.05a.982.982,0,1,0,1.389-1.389Z" transform="translate(-119.199 -45.72)" fill="#846f75"/><path d="M120.839,68.391a2.8,2.8,0,1,0-2.8,2.8,2.8,2.8,0,0,0,2.8-2.8Zm-3.632,0a.833.833,0,1,1,.833.833.833.833,0,0,1-.833-.833Z" transform="translate(-80.896 -50.756)" fill="#846f75"/><path d="M90.622,165.333l-1.586,1.586a.982.982,0,0,0,1.389,1.389l.891-.891.891.891a.982.982,0,1,0,1.389-1.389l-1.586-1.586A.982.982,0,0,0,90.622,165.333Z" transform="translate(-64.812 -111.129)" fill="#846f75"/><path d="M157.639,165.415l-.891.891-.891-.891a.982.982,0,0,0-1.389,1.389l1.586,1.586a.982.982,0,0,0,1.389,0l1.586-1.586a.982.982,0,1,0-1.389-1.389Z" transform="translate(-104.533 -111.179)" fill="#846f75"/><path d="M121.477,79.21h-18.37a.982.982,0,0,1-.982-.982V59.857a.982.982,0,0,1,.982-.982h18.37a.982.982,0,0,1,.982.982v18.37A.982.982,0,0,1,121.477,79.21ZM104.09,77.245H120.5V60.84H104.09Z" transform="translate(-72.933 -46.677)" fill="#a58bc9"/></svg>