<svg xmlns="http://www.w3.org/2000/svg" width="78.177" height="76.611" viewBox="0 0 78.177 76.611"><g transform="translate(7.382 8.513)"><path d="M100.159,203.3a.968.968,0,0,1-.244-.031.982.982,0,0,1-.707-1.2l3.174-12.4a.982.982,0,1,1,1.9.488l-3.173,12.4A.982.982,0,0,1,100.159,203.3Z" transform="translate(-78.795 -135.198)" fill="#ed9abc"/><path d="M147.9,203.3a.982.982,0,0,1-.951-.739l-3.174-12.4a.982.982,0,1,1,1.9-.488l3.174,12.4a.982.982,0,0,1-.707,1.2.969.969,0,0,1-.245.031Z" transform="translate(-105.853 -135.198)" fill="#ed9abc"/><path d="M89.573,133.581a.982.982,0,0,1-.411-.09L79.7,129.126a.983.983,0,1,1,.823-1.784l9.461,4.364a.982.982,0,0,1-.412,1.875Z" transform="translate(-66.626 -97.754)" fill="#ed9abc"/><path d="M148.773,133.581a.982.982,0,0,1-.412-1.875l9.461-4.364a.983.983,0,1,1,.823,1.784l-9.461,4.364A.982.982,0,0,1,148.773,133.581Z" transform="translate(-108.306 -97.754)" fill="#ed9abc"/><path d="M126.482,102.709a.982.982,0,0,1-.982-.982V84.568a.982.982,0,1,1,1.965,0v17.159A.982.982,0,0,1,126.482,102.709Z" transform="translate(-94.776 -71.246)" fill="#ed9abc"/><path d="M76.368,85.893a.982.982,0,0,1-.632-1.735l11.705-9.82a.982.982,0,1,1,1.263,1.5L77,85.661A.979.979,0,0,1,76.368,85.893Z" transform="translate(-64.353 -65.492)" fill="#ed9abc"/><path d="M158.513,85.89a.979.979,0,0,1-.631-.23l-11.705-9.822a.982.982,0,1,1,1.263-1.5l11.705,9.82a.982.982,0,0,1-.632,1.735Z" transform="translate(-107.115 -65.489)" fill="#ed9abc"/><path d="M124.823,54.147h-6.091a.982.982,0,1,1,0-1.965h6.091a.982.982,0,1,1,0,1.965Z" transform="translate(-90.071 -52.182)" fill="#ed9abc"/><path d="M124.823,65.273h-6.091a.982.982,0,1,1,0-1.965h6.091a.982.982,0,1,1,0,1.965Z" transform="translate(-90.071 -58.936)" fill="#ed9abc"/><path d="M195.264,112.549h-6.091a.982.982,0,0,1,0-1.965h6.091a.982.982,0,0,1,0,1.965Z" transform="translate(-132.833 -87.635)" fill="#ed9abc"/><path d="M195.264,123.675h-6.091a.982.982,0,0,1,0-1.965h6.091a.982.982,0,0,1,0,1.965Z" transform="translate(-132.833 -94.39)" fill="#ed9abc"/><path d="M54.382,112.549H48.291a.982.982,0,1,1,0-1.965h6.091a.982.982,0,1,1,0,1.965Z" transform="translate(-47.309 -87.635)" fill="#ed9abc"/><path d="M54.382,123.675H48.291a.982.982,0,1,1,0-1.965h6.091a.982.982,0,0,1,0,1.965Z" transform="translate(-47.309 -94.39)" fill="#ed9abc"/></g><path d="M114.714,154.5a4.47,4.47,0,0,0-4.332-3.362h-1.65a7.844,7.844,0,1,0-12.165,0h-1.65a4.47,4.47,0,0,0-4.332,3.362l-4.315,16.857a.982.982,0,0,0,.951,1.226h30.859a.982.982,0,0,0,.951-1.226Zm-26.23,16.118,4-15.631a2.506,2.506,0,0,1,2.428-1.886h4.279a.982.982,0,0,0,.5-1.831,5.88,5.88,0,1,1,5.919,0,.982.982,0,0,0,.5,1.831h4.279a2.506,2.506,0,0,1,2.428,1.887l4,15.63Z" transform="translate(-63.559 -95.971)" fill="#846f75"/><path d="M39.932,89.611A11.409,11.409,0,1,0,51.341,101.02,11.41,11.41,0,0,0,39.932,89.611Zm0,20.854a9.445,9.445,0,1,1,9.444-9.445,9.445,9.445,0,0,1-9.444,9.445Z" transform="translate(-28.522 -66.39)" fill="#846f75"/><path d="M180.814,89.611a11.409,11.409,0,1,0,11.409,11.409A11.41,11.41,0,0,0,180.814,89.611Zm0,20.854a9.445,9.445,0,1,1,9.444-9.445,9.445,9.445,0,0,1-9.444,9.445Z" transform="translate(-114.046 -66.39)" fill="#846f75"/><path d="M110.374,53.334A11.409,11.409,0,1,0,98.965,41.925,11.409,11.409,0,0,0,110.374,53.334Zm0-20.853a9.444,9.444,0,1,1-9.444,9.444,9.444,9.444,0,0,1,9.444-9.444Z" transform="translate(-71.285 -30.516)" fill="#846f75"/></svg>