<svg xmlns="http://www.w3.org/2000/svg" xmlns:xlink="http://www.w3.org/1999/xlink" width="1920" height="5107" viewBox="0 0 1920 5107"><defs><linearGradient id="a" x1="0.5" x2="0.5" y2="1" gradientUnits="objectBoundingBox"><stop offset="0" stop-color="#f8fbff"/><stop offset="1" stop-color="#e6efff"/></linearGradient><clipPath id="c"><rect width="1920" height="5107"/></clipPath></defs><g id="b" clip-path="url(#c)"><rect width="1920" height="5107" fill="#f8fbff"/><path d="M392.25,0,523,224,392.25,448H130.75L0,224,130.75,0Z" transform="translate(290 2189) rotate(90)" fill="#31e89f" opacity="0.6"/><rect width="1919" height="759" transform="translate(1 3927)" fill="url(#a)"/><path d="M1371.75,0,1829,783l-457.25,783H457.25L0,783,457.25,0Z" transform="translate(2541 3602) rotate(90)" fill="#31e8e8" opacity="0.6"/><path d="M486.75,0,649,252.5,486.75,505H162.25L0,252.5,162.25,0Z" transform="translate(2159 1322) rotate(90)" fill="#31e89f" opacity="0.248"/><path d="M594.75,0,793,308.5,594.75,617H198.25L0,308.5,198.25,0Z" transform="translate(280 51) rotate(90)" fill="#31e8e8" opacity="0.6"/><g transform="translate(2215 1941) rotate(90)" fill="none" opacity="0.6"><path d="M594.75,0,793,308.5,594.75,617H198.25L0,308.5,198.25,0Z" stroke="none"/><path d="M 198.7962036132813 1 L 1.188720703125 308.5 L 198.7960815429688 616 L 594.2039184570313 616 L 791.811279296875 308.5 L 594.2039184570313 1 L 198.7962036132813 1 M 198.2501220703125 0 L 594.75 0 L 793 308.5 L 594.75 617 L 198.25 617 L 0 308.5 L 198.2501220703125 0 Z" stroke="none" fill="#31e8e8"/></g><path d="M873,0l291,453.5L873,907H291L0,453.5,291,0Z" transform="translate(1680 -859) rotate(90)" fill="#31e89f" opacity="0.6"/><path d="M629.25,0,839,327,629.25,654H209.75L0,327,209.75,0Z" transform="translate(1586 -94) rotate(90)" fill="#31e8e8"/><path d="M627.75,0,837,358,627.75,716H209.25L0,358,209.25,0Z" transform="translate(1942 -323) rotate(90)" fill="#31c6e8" opacity="0.6"/><path d="M392.25,0,523,224,392.25,448H130.75L0,224,130.75,0Z" transform="translate(626 3181) rotate(90)" fill="#31c6e8" opacity="0.6"/><path d="M291.75,0,389,151.5,291.75,303H97.25L0,151.5,97.25,0Z" transform="translate(218 3096) rotate(90)" fill="#31e8e8" opacity="0.3"/><line x1="973" y2="974" transform="translate(0.5 562.5)" fill="none" stroke="#31e8e8" stroke-width="1" opacity="0.3"/></g></svg>