<svg xmlns="http://www.w3.org/2000/svg" xmlns:xlink="http://www.w3.org/1999/xlink" width="276.434" height="467.563" viewBox="0 0 276.434 467.563"><defs><linearGradient id="a" x1="2205.113" y1="-2782.393" x2="2398.466" y2="-2782.393" gradientUnits="objectBoundingBox"><stop offset="0" stop-color="#391f0a"/><stop offset="1" stop-color="#c59178"/></linearGradient><linearGradient id="b" x1="-3440.556" y1="-1501.083" x2="-3176.61" y2="-1501.083" gradientUnits="objectBoundingBox"><stop offset="0" stop-color="#9fced5"/><stop offset="1" stop-color="#bbeef6"/></linearGradient></defs><g transform="translate(-162.244 -310.45)"><path d="M187.111,533.15a118.654,118.654,0,0,0,7.531,37.176,3.326,3.326,0,0,0,1.915,3.221q19.85,9.578,25.074-13.408l3.047-5.4,13.408-12.45-3.657,41.79a3.853,3.853,0,0,1,.7,1.48q.959,5.31,3.57,8.01,3.832,10.623,13.495,9.664a66.7,66.7,0,0,0,8.793-1.567q5.921-1.392,7.836-1.654v-4.527a81.186,81.186,0,0,1,14.627-1.567,97.891,97.891,0,0,0,14.278-.958,22.41,22.41,0,0,0,11.057-6.094q4.7-4.7,4.614-10.1a2.748,2.748,0,0,1,.7-1.045q1.306-2.351-.174-4-7.4-7.574-18.718-7.574a38.309,38.309,0,0,0-5.572.435,39.118,39.118,0,0,0-5.746,1.219l.348-1.48-1.741-.087-1.045-.087a6.376,6.376,0,0,1-4-5.572,178.97,178.97,0,0,1-.261-19.85l50.148,28.818q14.19,8.183-6.7,20.111l-31.6,18.283q-21.07,11.84-35.26,3.657L167.914,560.4q-14.1-8.1,6.878-20.2Z" transform="translate(0 165.077)" fill="#56d0a2" fill-rule="evenodd"/><path d="M199.556,522.722a25.433,25.433,0,0,1,12.232,2.177q-.387,3.471-.784,6.965l-11.318-1.306.348,4.179a39.384,39.384,0,0,1-.609-9.4Q199.481,524.036,199.556,522.722Z" transform="translate(27.516 157.308)" fill="#d0deff" fill-rule="evenodd"/><path d="M201.065,539.15l-1.045,4.7-.871,2.09Z" transform="translate(27.357 169.524)" fill="#d0deff" fill-rule="evenodd"/><path d="M231.85,555.938q.086-1.131.087-2.438a15.12,15.12,0,0,1,.087,1.654Z" transform="translate(51.596 180.161)" fill="#d0deff" fill-rule="evenodd"/><path d="M233.257,559.551a14.96,14.96,0,0,1-6.007,5.05q1.306-1.045,2.438-2a13.617,13.617,0,0,0,4.353-5.4l-.435,1.741A2.241,2.241,0,0,1,233.257,559.551Z" transform="translate(48.186 182.904)" fill="#d0deff" fill-rule="evenodd"/><path d="M319.443,528.514l-1.393-2.264a1.526,1.526,0,0,1,.7.435,2.157,2.157,0,0,1,.261.522A1.968,1.968,0,0,1,319.443,528.514Z" transform="translate(115.492 159.962)" fill="#d0deff" fill-rule="evenodd"/><path d="M321.334,538.287a2.888,2.888,0,0,1-.261,1.132,1.364,1.364,0,0,1-.348.522c0,.057-.057.145-.174.261l.784-2Z" transform="translate(117.345 168.82)" fill="#d0deff" fill-rule="evenodd"/><path d="M318.312,541.025l-.043.042h-.043Z" transform="translate(115.621 170.914)" fill="#d0deff" fill-rule="evenodd"/><path d="M173.113,364.421q-.658,3.388-1,6.878-1.747-1.369-3.526-2.96a.847.847,0,0,0-.435-.348q.175-1.828.348-3.657l.261-1.567a6.451,6.451,0,0,1,.174-1.567Q171.193,363.073,173.113,364.421Z" transform="translate(4.378 37.618)" fill="#fff" fill-rule="evenodd"/><path d="M236.847,368.573q1.742,1.045,3.657,2.264a11.031,11.031,0,0,1,.958,1.306.277.277,0,0,0,.261.174q2.176,2.784,3.918,4.876a11.72,11.72,0,0,0-2.351-1.567q-.959-.522-2.177-1.132-2.09-.87-3.4-1.306a5.082,5.082,0,0,0-1.48-.522l-1.306-.348q-10.447-3.918-26.9-9.838-2.413-.875-4.527-1.7-12.511-4.944-15.41-8.663a20.425,20.425,0,0,1-1.828-2.873,3.058,3.058,0,0,1-.609-1.828,1.623,1.623,0,0,1,.348-1.045l2.612-.522,1.915.7.087.087q5.555,1.917,11.275,4.266,4.623,1.909,9.359,4.092Q223.7,360.8,236.847,368.573Z" transform="translate(17.346 26.24)" fill="#fff" fill-rule="evenodd"/><path d="M236.345,399.624A53.6,53.6,0,0,1,222.2,409.2a29.044,29.044,0,0,1-4.135,1.393q-1.306-1.828-2.612-3.57,1.528-.663,3-1.393c.259-.127.521-.259.784-.392a77.133,77.133,0,0,0,15.541-10.056q2.787-2.44,5.485-5.05a77.972,77.972,0,0,0,5.79-6.617c.394-.515.787-1.038,1.175-1.567l1.219,3.4a10.9,10.9,0,0,0,.348,1.045q-.551.71-1.132,1.437a94.479,94.479,0,0,1-6.443,7.1A61.013,61.013,0,0,1,236.345,399.624Z" transform="translate(39.439 52.999)" fill="#fff" fill-rule="evenodd"/><path d="M240.972,550.95a10.127,10.127,0,0,1,1.219,4.7q0,4.093-.522,4.179a12.052,12.052,0,0,1-1.393.261q-.609-.522-3.57-6.617a18.559,18.559,0,0,0-1.306-2.09A38.309,38.309,0,0,1,240.972,550.95Z" transform="translate(54.227 178.271)" fill="#fff" fill-rule="evenodd"/><path d="M207.839,548.65q-5.224,22.984-25.074,13.408a3.326,3.326,0,0,1-1.915-3.221,25.852,25.852,0,0,0,19.415-3.4c.289-.174.522-.32.7-.435l4.875-4.179c.117-.059.174-.117.174-.174A9.705,9.705,0,0,0,207.839,548.65Z" transform="translate(13.792 176.566)" fill="#fff" fill-rule="evenodd"/><path d="M200.8,545.778l10.622-9.228.087,3.222L198.1,552.221l1.828-4.353Z" transform="translate(26.579 167.597)" fill="#fff" fill-rule="evenodd"/><path d="M199.75,529.75a23.751,23.751,0,0,0,2.873,1.741q3.918,2,4.614,3.221-1.392,2-5.4,2.7a3.733,3.733,0,0,1-.609-.174l-1.132-2Z" transform="translate(27.802 162.556)" fill="#fff" fill-rule="evenodd"/><path d="M215.553,577.963A23.92,23.92,0,0,0,222,576.309q5.832-1.045,11.753-2.089a78.184,78.184,0,0,1,13.756-.871q17.152,1.828,27.425-7.749a20.861,20.861,0,0,0,3.221-3.657,29.127,29.127,0,0,0,2.7-3.744q.086,5.4-4.614,10.1a22.41,22.41,0,0,1-11.057,6.094,97.892,97.892,0,0,1-14.278.958,81.186,81.186,0,0,0-14.627,1.567v4.527q-1.915.261-7.836,1.654a66.7,66.7,0,0,1-8.793,1.567q-9.664.959-13.495-9.664Q209.457,578.746,215.553,577.963Z" transform="translate(32.546 183.645)" fill="#fff" fill-rule="evenodd"/><path d="M231.745,551.037q3.743,4,3.744,8.01a25.312,25.312,0,0,1-.348,5.4q-.261.522-.958,1.741h-2.09q-.609-.784-1.393-2a2.241,2.241,0,0,0,.348-.609l.435-1.741a12.292,12.292,0,0,0,1.219-4l.174-.784a15.12,15.12,0,0,0-.087-1.654l-2.09-4.44Z" transform="translate(50.743 178.271)" fill="#fff" fill-rule="evenodd"/><path d="M266.417,319.243q1.131-.086,2.09-.087,3.482-.261,5.485-.261l-.609.609a1.038,1.038,0,0,0-.261.174l-3.657,3.221-.435.435-.087.087a8.851,8.851,0,0,1-2.351,1.741,1.219,1.219,0,0,0,.087.522,1.444,1.444,0,0,0,.609.435l5.311,1.306.087-.087,1.915.7a25.179,25.179,0,0,0-2.612,1.828,2.756,2.756,0,0,1-.7.522q-.261.175-4.527,1.654-2.176.784-3.134,1.219c-.406.233-.609.378-.609.435q-.175.436.871,1.567a.98.98,0,0,0,.348.348,7.933,7.933,0,0,0,2.177,1.654,32.1,32.1,0,0,0,4.614,2.177,58.628,58.628,0,0,1-6.7,1.045q-2.526.347-6.007.609a51.476,51.476,0,0,1-15.932-.609,68.884,68.884,0,0,1-10.8-2.525q-15.063-4.615-19.937-7.836a17.216,17.216,0,0,1-3.744-3.221,11.318,11.318,0,0,1-2.612-4.266,25.384,25.384,0,0,1,4.614-4.353,41.547,41.547,0,0,1,5.224-2.786,89.22,89.22,0,0,1,10.622-3.831h.174c.057-.117.117-.174.174-.174q1.22-.347,2.438-.609a30.977,30.977,0,0,1,4-.435h.958a31.816,31.816,0,0,1,6.094.609q5.746,1.742,10.535,3.134,3.22.872,5.833,1.567l5.311.435a21.236,21.236,0,0,0,2.264.174c0,.059-.057.117-.174.174q-1.045.347-3.134,1.306a1.951,1.951,0,0,0-.7.348v.174l.435.784a16.63,16.63,0,0,0,3.221.435A6.183,6.183,0,0,0,266.417,319.243Zm-65.3,12.8a6.071,6.071,0,0,1,.348-1.393,10.934,10.934,0,0,1,.522-1.654,6.723,6.723,0,0,0,.348-.871,24.6,24.6,0,0,0,3.221,3.482q1.306,1.131,2.786,2.351a42.046,42.046,0,0,0,4.092,2.786,74.608,74.608,0,0,0,28.818,9.055,58.049,58.049,0,0,0,10.535.087,7.7,7.7,0,0,1,.435,1.828l-.087,1.306v.261c-.057.637-.117,1.161-.174,1.567h-.087v.174l-.087.087-1.393,2.351-1.48,1.915a12.111,12.111,0,0,1-1.654,1.828q-2.526.261-4.527.435a17.852,17.852,0,0,0-.871-2.351,7.1,7.1,0,0,0-3.221-2.7,36,36,0,0,0-6.878-2.7q-8.88-2.787-17.238-5.746-6.53-2.787-9.751-6.7-.261-.436-.609-.958A22.165,22.165,0,0,1,201.12,332.041ZM254.75,747.5a57.764,57.764,0,0,1-14.191,9.49q-2.612,1.217-5.311,2.525a7.927,7.927,0,0,0-1.393.435,23.92,23.92,0,0,1-6.443,1.654q.086-3.4.174-5.311.609-6.7,2.525-21.5,1.828-15.149,2.438-22.288.757-6.678,2.786-20.851,1.455-10.22,3.57-24.334a281.123,281.123,0,0,0,3.657-41.7q0-14.452-5.746-32.039-7.661-20.723-11.318-33.606-.658-2.136-4.788-14.191a28,28,0,0,0,4.44-.261,6.064,6.064,0,0,0,1.48-.174,42.809,42.809,0,0,0,12.1-4.7,66.489,66.489,0,0,0,10.448-7.661,38.586,38.586,0,0,0,9.142-11.971,129.456,129.456,0,0,1,10.535,53.5,476.571,476.571,0,0,1-5.137,62.25q-4.529,29.253-6.7,58.854-.353,4.111-.522,8.184a178.968,178.968,0,0,0,.261,19.85,6.376,6.376,0,0,0,4,5.572l2.09,4.44q0,1.306-.087,2.438a12.292,12.292,0,0,1-1.219,4,13.617,13.617,0,0,1-4.353,5.4Q256.057,746.46,254.75,747.5ZM203.3,561.712q3.048,9.142,6.443,18.2,4.526,11.492,8.271,23.246a295.128,295.128,0,0,0-9.142,46.491q-1.766,15.091-2.481,30.385-.076,1.314-.131,2.612a39.384,39.384,0,0,0,.609,9.4v.261l.348,5.485,1.132,2,.958,1.306-3.483,14.365-1.828,4.353-3.047,5.4a9.7,9.7,0,0,1-1.828,2c0,.057-.057.115-.174.174l-4.875,4.179c-.174.115-.407.261-.7.435a222.413,222.413,0,0,1-2.351-22.462q-.666-11.3-.871-24.726.008-.653,0-1.306V670.366q0-12.712,7.052-65.3Q201.642,574.161,203.3,561.712Z" transform="translate(20.686 0)" fill="#0059c2" fill-rule="evenodd"/><path d="M263.785,334.745a7.933,7.933,0,0,1-2.177-1.654.98.98,0,0,1-.348-.348q-1.045-1.131-.871-1.567c0-.057.2-.2.609-.435q.959-.434,3.134-1.219,4.265-1.481,4.527-1.654a2.756,2.756,0,0,0,.7-.522,25.179,25.179,0,0,1,2.612-1.828l.7.174q0,3.309-4.266,6.181a31.77,31.77,0,0,1-4.876,2.612v.087a.914.914,0,0,1,.348.174Zm7.574-18.37h.958a4.506,4.506,0,0,1,.348,2.612,38.352,38.352,0,0,1-2.7,5.833h.087l-.087.087-5.311-1.306a1.444,1.444,0,0,1-.609-.435,1.219,1.219,0,0,1-.087-.522,8.851,8.851,0,0,0,2.351-1.741l.087-.087.435-.435,3.657-3.221a1.038,1.038,0,0,1,.261-.174Zm-10.448-2.525a1.2,1.2,0,0,1,.522.087l.522.174a1.333,1.333,0,0,1,.958,1.48l.174,1.219a3.8,3.8,0,0,1,.7-.087,6.183,6.183,0,0,1-3.221.348,16.63,16.63,0,0,1-3.221-.435l-.435-.784v-.174a1.951,1.951,0,0,1,.7-.348q2.09-.959,3.134-1.306C260.855,313.967,260.912,313.909,260.912,313.85Zm-61.2,11.753a23.8,23.8,0,0,1,2.96-5.485,11.318,11.318,0,0,0,2.612,4.266,17.216,17.216,0,0,0,3.744,3.221q4.876,3.22,19.937,7.836a68.884,68.884,0,0,0,10.8,2.525,51.476,51.476,0,0,0,15.932.609q3.482-.261,6.007-.609a58.628,58.628,0,0,0,6.7-1.045q-1.306,3.4-7.052,5.311a4.828,4.828,0,0,0-.609.261,23.63,23.63,0,0,1-11.579.871,58.049,58.049,0,0,1-10.535-.087,74.608,74.608,0,0,1-28.818-9.055,42.046,42.046,0,0,1-4.092-2.786q-1.481-1.22-2.786-2.351A24.6,24.6,0,0,1,199.707,325.6Zm1.306,24.465a29.325,29.325,0,0,1-2.525-8.532,28.962,28.962,0,0,1-.348-2.96c-.057-.522-.117-1.015-.174-1.48l.174-5.659a1.447,1.447,0,0,0,.087-.435l.261-1.306v-.174a22.165,22.165,0,0,0,3.047,4.44q.347.522.609.958,3.22,3.918,9.751,6.7,8.358,2.962,17.238,5.746a36,36,0,0,1,6.878,2.7,7.1,7.1,0,0,1,3.221,2.7,17.852,17.852,0,0,1,.871,2.351q-2.176.261-3.744.522a5.843,5.843,0,0,0-1.654-2.09h-.087l-.435-.261a5.48,5.48,0,0,0-1.219-.522q-.175-.086-1.045.435A32.636,32.636,0,0,0,228,355.9q-4.788,3.568-6.268,4a9.866,9.866,0,0,1-3.4.522,23.089,23.089,0,0,1-4.527-.871,24.967,24.967,0,0,1-5.485-2,42.633,42.633,0,0,1-5.485-4.876A10.775,10.775,0,0,1,201.013,350.068Zm-.348,209.124q-3.753-11.727-6.965-23.594c.634.327,1.273.644,1.915.958q12.78,6.462,22.462,6.7,4.132,12.054,4.788,14.191,3.657,12.887,11.318,33.606,5.746,17.586,5.746,32.039a281.122,281.122,0,0,1-3.657,41.7q-2.116,14.115-3.57,24.334-2.027,14.175-2.786,20.851-.609,7.138-2.438,22.288-1.915,14.8-2.525,21.5-.086,1.914-.174,5.311-6.094.784-9.4-2.96-2.612-2.7-3.57-8.01a3.853,3.853,0,0,0-.7-1.48l3.657-41.79-.087-3.221.522-14.975q.4-3.495.784-6.965,2.988-27.164,5.224-54.24a23.807,23.807,0,0,0-.087-6.094l-3.744-12.1a7.69,7.69,0,0,0-.522-1.741l-1.393-5.224a.758.758,0,0,0-.087.348q-3.743-11.753-8.271-23.246Q203.712,568.333,200.665,559.192Z" transform="translate(23.317 2.52)" fill="#003675" fill-rule="evenodd"/><path d="M253.929,341.468a5.4,5.4,0,0,0-1.393,1.045,7.888,7.888,0,0,0-3.047,4.092v.087a3.779,3.779,0,0,0-.087,1.828,11.987,11.987,0,0,0,.087,1.219,9.461,9.461,0,0,0,1.219,4.266,18.486,18.486,0,0,1-1.306,1.567.077.077,0,0,1-.087.087,9.385,9.385,0,0,0-1.654,2.612,2.871,2.871,0,0,0,.087,1.828,7.628,7.628,0,0,0,1.567,2.438c.117.115.2.2.261.261q-3.134-.609-4.7.7a12.64,12.64,0,0,0-.871,1.567c-.092.207-.193.439-.3.7l-.914-2.177v-.174q-2.432-1.1-4.875-1.959a11.628,11.628,0,0,0-1.828-5.18,15.652,15.652,0,0,0-3.482-3.744q-1.395-1.22-5.05-4.092a38.637,38.637,0,0,0-8.271-5.137l.087-.261a.78.78,0,0,1,.087-.348c.057-.174.117-.348.174-.522q.434-2.09.7-4.179a10.775,10.775,0,0,0,1.828,2.612,42.633,42.633,0,0,0,5.485,4.876,24.967,24.967,0,0,0,5.485,2,23.089,23.089,0,0,0,4.527.871,9.866,9.866,0,0,0,3.4-.522q1.481-.434,6.268-4a32.636,32.636,0,0,1,3.918-2.7q.87-.522,1.045-.435a5.48,5.48,0,0,1,1.219.522Zm26.728-11.318v.174q-1.306,3.134-2.177,5.311a12.129,12.129,0,0,1-.871,1.741,2.715,2.715,0,0,0-.522.7,9.224,9.224,0,0,1-2.264.435,41.583,41.583,0,0,1-7.749.348l1.393-2.351.087-.087v-.174h.087c.057-.406.117-.93.174-1.567v-.261l.087-1.306a7.7,7.7,0,0,0-.435-1.828,23.63,23.63,0,0,0,11.579-.871A4.828,4.828,0,0,1,280.657,330.15Zm-90.2,122.715a125.15,125.15,0,0,1-20.982-26.423q-.87-1.656-1.828-3.221l1.524-17.935a8.752,8.752,0,0,0,2.22,1.48,12.874,12.874,0,0,0,1.175.566,51.921,51.921,0,0,0,2.22,9.969,160.688,160.688,0,0,0,6.268,16.194q3.22,7.227,6.965,14.539Q189.25,450.457,190.46,452.865ZM304.6,394.141q.609.87.174,6.094a18.954,18.954,0,0,0,1.567,9.4q1.567,3.22,4,3.657a13.392,13.392,0,0,1-5.572-1.567q-5.224,1.915-10.448,3.57-5.138,2-10.535,3.657c-.5.145-1,.291-1.48.435q-1.484-4.051-2.438-6.747,9.638-2.583,11.057-2.917,6.269-1.567,7.487-1.915,4.44-6.007-.261-10.012a14.847,14.847,0,0,0,5.833-3.308C304.281,394.315,304.483,394.2,304.6,394.141Zm-28.034,80.968q-.87-1.481-1.828-3.047a.25.25,0,0,0-.087-.174,22.541,22.541,0,0,0-1.132-2,1.481,1.481,0,0,1-.174-.348.654.654,0,0,1-.087-.174q-1.306-2.265-2.612-4.44a109.449,109.449,0,0,0-7.531-11.013,27.626,27.626,0,0,0,12.668-5.18,39.146,39.146,0,0,0,9.838-10.883q.465-.718.914-1.48,1.4,3.764,2.742,6.878-9.228,9.489-11.057,13.756a28.718,28.718,0,0,0-2,14.8Q276.3,473.279,276.565,475.109Zm82.622-36.566q-2,.347-3.831.522a9.129,9.129,0,0,1-2.394-.3,8.027,8.027,0,0,1-1.611-.566,4.142,4.142,0,0,1-2.351-2q1.024-.347,2-.7,1.724-.561,3.308-1.088,5.232-1.768,9.054-3l-3.482,3.831a5.533,5.533,0,0,1-.087.871Q359.536,437.325,359.188,438.543ZM339.25,449.164h-.871l-3.482-.609q-21.835,24.076-31.952,28.992-12.362,6.007-16.455,7.052a1.491,1.491,0,0,1-.871.087,1.613,1.613,0,0,1-.522-.087l-.087-.087h-.087a.253.253,0,0,0-.174-.087,5.821,5.821,0,0,1-2.177-1.48,17.426,17.426,0,0,1-2.525-2.786q19.675-7.4,30.472-18.283,10.064-10.064,18.893-17.935c-.026-.054-.056-.113-.087-.174a12.67,12.67,0,0,0-.784-3.4,18.939,18.939,0,0,0-4.658-7.574c-.246-.239-.491-.47-.74-.7q0-.729.044-1.437a22.706,22.706,0,0,1,.3-2.83q1.22.7,2.7,1.741.7.494,1.393,1a38.259,38.259,0,0,1,7.574,7.792c.091.118.178.235.261.348a22.409,22.409,0,0,1,3.178,5.7,11.615,11.615,0,0,1,.653,3.7Zm-16.89-40.832a6.863,6.863,0,0,0-1.741-1.219,4.043,4.043,0,0,0-3.918.087q-1.567,1.045-2.264.7-1.131-.522-.609-.958,1.22-4.09,7.139-3.483a8.349,8.349,0,0,1,4.266,1.262l.044.044a1.547,1.547,0,0,1,.653,1.393,8.056,8.056,0,0,0-.871-.653l-.044-.044-.3-.174A20.17,20.17,0,0,1,322.36,408.332Z" transform="translate(4.007 14.603)" fill="#ed8a55" fill-rule="evenodd"/><path d="M218.359,355.853c-.287-.1-.578-.207-.871-.3q-7.227-2.784-13.408-4.7a51.5,51.5,0,0,0-10.056-2.133q1.431-2.821,2.481-4.484,2.09-3.4,2.525-4.179l.7-2.351A38.637,38.637,0,0,1,208,342.837q3.657,2.873,5.05,4.092a15.652,15.652,0,0,1,3.482,3.744A11.628,11.628,0,0,1,218.359,355.853Zm20.808,2.742a4.138,4.138,0,0,1-1.132.609.253.253,0,0,1-.174.087c-.348.059-.639.117-.871.174a.355.355,0,0,0-.261.087,6.2,6.2,0,0,1-2.089,0,14.556,14.556,0,0,1-2.96-1.219q-1.131-.784-1.915-1.393A7.628,7.628,0,0,1,228.2,354.5a2.871,2.871,0,0,1-.087-1.828,9.385,9.385,0,0,1,1.654-2.612.077.077,0,0,0,.087-.087,20.333,20.333,0,0,0,2.612,3.134q3.657,3.048,6.268,5.05Z" transform="translate(23.558 20.199)" fill="#fd9f6c" fill-rule="evenodd"/><path d="M257.5,338.051q2-.175,4.527-.435,3.482-.261,8.1-.522,1.22-.086,2.264-.174,2.959-.089,4.788,0,4.265.175,4,1.393-.261,1.045-3.657,1.654a39.264,39.264,0,0,1-7.749.871,6.774,6.774,0,0,1-1.132.087q-12.1.7-13.93,1.219l-1.132-3.57a.108.108,0,0,0,.174,0Q255.319,338.312,257.5,338.051ZM185.321,495.982a7.8,7.8,0,0,1-.522-1.654q-.418-1.215-.74-2.438a26.8,26.8,0,0,1,.131-13.059,97.366,97.366,0,0,1,8.532-22.462q-2.056-4.223-4.179-8.489-1.209-2.408-2.438-4.832-3.745-7.313-6.965-14.539a160.688,160.688,0,0,1-6.268-16.194,51.921,51.921,0,0,1-2.22-9.969,50,50,0,0,1-.392-7.879q.07-2.6.3-5.137.342-3.492,1-6.878.64-3.228,1.567-6.356a41.692,41.692,0,0,1,8.01-14.8,22.7,22.7,0,0,1,16.281-8.271,1.623,1.623,0,0,0-.348,1.045,3.058,3.058,0,0,0,.609,1.828,20.425,20.425,0,0,0,1.828,2.873q2.9,3.719,15.41,8.663,2.113.82,4.527,1.7,16.455,5.921,26.9,9.838l1.306.348a5.082,5.082,0,0,1,1.48.522q1.306.436,3.4,1.306,1.22.609,2.177,1.132a11.719,11.719,0,0,1,2.351,1.567c.12.15.237.3.348.435l-1.48-.784q-6.007-2.7-9.577-2a18.826,18.826,0,0,0-12.624,9.055,43.3,43.3,0,0,0-5.572,16.368q-.175,1.217-.348,2.525-2.351,12.1,7.139,19.241a16.051,16.051,0,0,0,6.094,2.786,5.612,5.612,0,0,1,2.264,1.567q2.437,3.048,4.963,6.356l.7,1.045q1.306,1.742,2.612,3.57,1.828,2.523,3.57,4.963a6.024,6.024,0,0,0,1.741.261,30.036,30.036,0,0,0,4.31-.3,109.453,109.453,0,0,1,7.531,11.013q1.306,2.178,2.612,4.44a.653.653,0,0,0,.087.174q1.084,8.024,2.264,13.669a84.122,84.122,0,0,1,1.132,15.41,19.165,19.165,0,0,1-1.741,7.792,38.586,38.586,0,0,1-9.142,11.971,66.486,66.486,0,0,1-10.448,7.661,42.807,42.807,0,0,1-12.1,4.7,6.061,6.061,0,0,1-1.48.174,39.134,39.134,0,0,1-1.219-6.617q-.324-2.317-.566-4.919-.653-7.149-.653-16.411V497.2a49.067,49.067,0,0,1,1.48-6.7,45.312,45.312,0,0,0,1.306-6.878q0-4.093-3.047-12.189-4.265-10.536-6.7-16.89a160.284,160.284,0,0,1-7.487-23.9q-.961-4.3-1.524-8.358-.569-4.02-.74-7.792a33.942,33.942,0,0,1-.174-3.4,21.116,21.116,0,0,1,1.7-7.574q.36-.972.827-2a51.152,51.152,0,0,1,2.7-5.311q5.66-9.578,13.495-14.278a22.316,22.316,0,0,1,4.266-2.09l.871-.435q-15.846-5.31-21.33-6.965-5.057-1.52-9.055-2.96a63.388,63.388,0,0,1-11.144-4.963q-5.66-3.4-6.7-7.661a9.674,9.674,0,0,1-.261-2.177v-.958a37.552,37.552,0,0,0-12.45,9.577,39.557,39.557,0,0,0-8.01,15.584q-.726,2.753-1.175,5.528a64.726,64.726,0,0,0-.827,13.277,51.023,51.023,0,0,0,.609,5.833,53.075,53.075,0,0,0,2.438,9.055q3.22,8.88,6.965,17.238,3.657,8.533,7.749,16.716a21.082,21.082,0,0,1,1.915,5.528,20.872,20.872,0,0,1-1.306,12.058q-3.048,8.269-5.572,16.89a41.363,41.363,0,0,0-.827,4.135A38.871,38.871,0,0,0,185.321,495.982Z" transform="translate(5.926 19.587)" fill="#b91a5f" fill-rule="evenodd"/><path d="M223.945,360.819l-.435-.435q-2.612-2-6.268-5.05a20.333,20.333,0,0,1-2.612-3.134,18.486,18.486,0,0,0,1.306-1.567,9.461,9.461,0,0,1-1.219-4.266,11.987,11.987,0,0,1-.087-1.219,3.779,3.779,0,0,1,.087-1.828v-.087a7.888,7.888,0,0,1,3.047-4.092,5.4,5.4,0,0,1,1.393-1.045h.087a5.843,5.843,0,0,1,1.654,2.09.108.108,0,0,1-.174,0l1.132,3.57q1.828-.522,13.93-1.219a6.774,6.774,0,0,0,1.132-.087l-.609,1.132a1.337,1.337,0,0,1-.261.348,22.076,22.076,0,0,1-1.393,2.177q-3.309,5.051-9.055,12.624l-.348.609a6.2,6.2,0,0,1-.784,1.045A3.492,3.492,0,0,0,223.945,360.819Zm5.224-21.592a12.111,12.111,0,0,0,1.654-1.828l1.48-1.915a41.583,41.583,0,0,0,7.749-.348,9.224,9.224,0,0,0,2.264-.435q-.347.611-.784,1.306a28.789,28.789,0,0,1-2,2.525q-1.045.089-2.264.174Q232.651,338.966,229.169,339.227ZM245.1,409.269q-1.079-3.1-1.48-4.4-.653-2.364-4.658-7.1,3.466-.447,7.531-1.175,8.358-1.392,16.89-2.177,4.7,4,.261,10.012-1.22.35-7.487,1.915Q254.738,406.687,245.1,409.269Zm42.486-4.31a24.8,24.8,0,0,1-2.786,2.7,11.112,11.112,0,0,1-4.527,2.264,11.644,11.644,0,0,1-3.482,0,4.2,4.2,0,0,1-1.219,0q-2.44-.436-4-3.657a18.953,18.953,0,0,1-1.567-9.4q.436-5.224-.174-6.094a3.678,3.678,0,0,1,1.306-.871,13.725,13.725,0,0,1,11.492-.522,17.487,17.487,0,0,0,2.96,1.393,12.411,12.411,0,0,1,4.44,5.05,18.516,18.516,0,0,1,1.872.827l.044.044a18.15,18.15,0,0,1,5.485,4.788q3.482,4.268,2.873,5.572a1.587,1.587,0,0,1-2.351.958q-.261-.175-4-3.221a23.308,23.308,0,0,0-2.786-2,1.547,1.547,0,0,0-.653-1.393l-.044-.044a8.349,8.349,0,0,0-4.266-1.262q-5.921-.609-7.139,3.483-.522.436.609.958.7.35,2.264-.7a4.043,4.043,0,0,1,3.918-.087A6.862,6.862,0,0,1,287.588,404.959Zm16.89,40.832v-1.045a11.615,11.615,0,0,0-.653-3.7,22.408,22.408,0,0,0-3.178-5.7c-.084-.113-.171-.23-.261-.348a38.259,38.259,0,0,0-7.574-7.792q-.69-.509-1.393-1-1.481-1.045-2.7-1.741a19.979,19.979,0,0,1,.74-4.832,17.3,17.3,0,0,1,1.872-4.135q2.437-3.918,3.134-3.221l2.873,6.617,13.495,3.918,10.273-1.48,1.437-.044,4.919-.218.435,3.918.784,2.873-.087.174q-3.824,1.233-9.054,3-1.585.528-3.308,1.088-.977.347-2,.7a4.142,4.142,0,0,0,2.351,2,8.027,8.027,0,0,0,1.611.566,9.129,9.129,0,0,0,2.394.3q1.828-.172,3.831-.522-2.7,7.313-10.709,10.1Zm-62.685,25.945q-.261-1.828-.348-3.308a28.718,28.718,0,0,1,2-14.8q1.828-4.268,11.057-13.756a58.585,58.585,0,0,0,5.311,10.273v.087a3.032,3.032,0,0,0,1.132.958v.087a2.821,2.821,0,0,0,1.567.261,3.073,3.073,0,0,0,1.567-.609l17.848-15.149q.175-.086,3.918-3.744a25.069,25.069,0,0,1,3.265-2.612A18.939,18.939,0,0,1,293.77,437a12.668,12.668,0,0,1,.784,3.4c.031.061.061.12.087.174q-8.831,7.872-18.893,17.935-10.795,10.884-30.472,18.283Q243.709,474.7,241.793,471.736Z" transform="translate(38.779 17.975)" fill="#feb37c" fill-rule="evenodd"/><path d="M226.1,346.4a22.076,22.076,0,0,0,1.393-2.177q.609.261.871.348a7.378,7.378,0,0,0,5.659-1.306,12.97,12.97,0,0,0,2.09-1.393q3.4-.609,3.657-1.654.261-1.22-4-1.393a1.337,1.337,0,0,0-.261-.348,9.362,9.362,0,0,0-2.525-2.177q.436-.695.784-1.306a2.715,2.715,0,0,1,.522-.7,10.38,10.38,0,0,1,1.567,1.306q4.876,4.179,4.527,5.224-.609,2.178-4.614,4.44-4.44,2.612-8.01,1.567Q226.8,346.576,226.1,346.4Z" transform="translate(47.334 17.679)" fill="#00265b" fill-rule="evenodd"/><path d="M203.7,347.937l-1.915-.7-2.612.522a22.7,22.7,0,0,0-16.281,8.271,41.692,41.692,0,0,0-8.01,14.8q-.93,3.129-1.567,6.356-1.917-1.348-4.179-3.221.373-3.484.871-6.965,1.478-9.664,6.965-15.149a26.411,26.411,0,0,1,14.8-7.574,27.48,27.48,0,0,1,15.758,2.264l-1.654,1.045a13.428,13.428,0,0,0-1.915.348ZM241.66,520.669a28.011,28.011,0,0,1-4.44.261q-9.682-.243-22.462-6.7c-.643-.313-1.282-.63-1.915-.958q-2.014-.993-3.918-2-4.265-2.612-7.923-5.05a50.447,50.447,0,0,1-10.186-9.316,48.792,48.792,0,0,1-3.744-6.181,38.871,38.871,0,0,1,.131-10.839,41.363,41.363,0,0,1,.827-4.135q2.523-8.619,5.572-16.89a20.872,20.872,0,0,0,1.306-12.058,21.082,21.082,0,0,0-1.915-5.528q-4.093-8.183-7.749-16.716-3.745-8.358-6.965-17.238a53.075,53.075,0,0,1-2.438-9.055,51.023,51.023,0,0,1-.609-5.833,64.726,64.726,0,0,1,.827-13.277q.449-2.776,1.175-5.528a39.557,39.557,0,0,1,8.01-15.584,37.552,37.552,0,0,1,12.45-9.577v.958a9.674,9.674,0,0,0,.261,2.177q1.045,4.265,6.7,7.661a63.388,63.388,0,0,0,11.144,4.963q4,1.439,9.055,2.96,5.485,1.656,21.33,6.965l-.871.435a22.316,22.316,0,0,0-4.266,2.09q-7.836,4.7-13.495,14.278a51.152,51.152,0,0,0-2.7,5.311q-.468,1.032-.827,2a21.116,21.116,0,0,0-1.7,7.574,33.942,33.942,0,0,0,.174,3.4q.17,3.774.74,7.792.564,4.056,1.524,8.358a160.284,160.284,0,0,0,7.487,23.9q2.437,6.357,6.7,16.89,3.048,8.1,3.047,12.189a45.312,45.312,0,0,1-1.306,6.878,49.067,49.067,0,0,0-1.48,6.7v.784q0,9.262.653,16.411.24,2.6.566,4.919A39.134,39.134,0,0,0,241.66,520.669Zm-69.345-136.6q-.235,2.544-.3,5.137a50,50,0,0,0,.392,7.879,12.874,12.874,0,0,1-1.175-.566,8.752,8.752,0,0,1-2.22-1.48,13.823,13.823,0,0,1-1-.958,58.775,58.775,0,0,1,0-7.836q.175-2.784.348-5.485a.847.847,0,0,1,.435.348Q170.568,382.7,172.315,384.068Zm107.392,18.327q.953,2.7,2.438,6.747c.078.26.165.519.261.784a.243.243,0,0,0,.087.174c-.388.529-.782,1.052-1.175,1.567a77.972,77.972,0,0,1-5.79,6.617q-2.7,2.612-5.485,5.05a36.8,36.8,0,0,0-2.351-4.788,34.363,34.363,0,0,0-10.709-11.318,28.544,28.544,0,0,0-24.856-3.874q-1.277.355-2.568.827.175-1.306.348-2.525a43.3,43.3,0,0,1,5.572-16.368,18.826,18.826,0,0,1,12.624-9.055q3.57-.7,9.577,2l1.48.784a76.385,76.385,0,0,1,6.965,4.092A48.474,48.474,0,0,1,273,390.249c.192.223.381.441.566.653q4,4.73,4.658,7.1Q278.629,399.291,279.707,402.395Zm6.66,23.725q-.449.76-.914,1.48a39.146,39.146,0,0,1-9.838,10.883q-2.09-5.31-4-10.709a61.013,61.013,0,0,0,4.876-4.7,94.479,94.479,0,0,0,6.443-7.1q.58-.726,1.132-1.437a10.9,10.9,0,0,1-.348-1.045,67.82,67.82,0,0,1,2.438,7.749,10.881,10.881,0,0,0,1.219,3.221C287.039,425.031,286.707,425.585,286.367,426.119Z" transform="translate(4.174 24.85)" fill="#ff65ab" fill-rule="evenodd"/><path d="M184.1,649.825a118.654,118.654,0,0,1-7.531-37.176,131.772,131.772,0,0,1,.479-17.674q1.045-11.581,1.915-23.159a331.65,331.65,0,0,1,8.88-56.329A29.694,29.694,0,0,0,188.716,504q-3.657-30.645-8.88-61.292a61.809,61.809,0,0,1-.392-16.8q.321,1.222.74,2.438a7.8,7.8,0,0,0,.522,1.654,48.792,48.792,0,0,0,3.744,6.181,50.447,50.447,0,0,0,10.186,9.316q3.657,2.437,7.923,5.05,1.9,1.013,3.918,2,3.213,11.866,6.965,23.594-1.653,12.451-6.094,43.357-7.052,52.585-7.052,65.3v13.146q.008.653,0,1.306.206,13.43.871,24.726a222.411,222.411,0,0,0,2.351,22.462A25.852,25.852,0,0,1,184.1,649.825Z" transform="translate(10.54 85.577)" fill="#001836" fill-rule="evenodd"/><path d="M210.346,543.481l-10.622,9.229,1.045-4.7,1.567-7.575-.958-1.306a3.733,3.733,0,0,0,.609.174q4-.695,5.4-2.7-.7-1.217-4.614-3.221a23.751,23.751,0,0,1-2.873-1.741v-.261l-.348-4.179,11.318,1.306Zm57.2,25.074q11.317,0,18.718,7.574,1.478,1.656.174,4a2.748,2.748,0,0,0-.7,1.045,29.126,29.126,0,0,1-2.7,3.744,20.866,20.866,0,0,1-3.221,3.657q-10.273,9.575-27.425,7.749a78.184,78.184,0,0,0-13.756.871q-5.921,1.045-11.753,2.089a7.927,7.927,0,0,1,1.393-.435q2.7-1.306,5.311-2.525a57.762,57.762,0,0,0,14.191-9.49,14.959,14.959,0,0,0,6.007-5.05q.784,1.22,1.393,2h2.09q.7-1.22.958-1.741a25.31,25.31,0,0,0,.348-5.4q0-4.007-3.744-8.01l1.741.087-.348,1.48a39.116,39.116,0,0,1,5.746-1.219,18.548,18.548,0,0,1,1.306,2.09q2.959,6.093,3.57,6.617a12.052,12.052,0,0,0,1.393-.261q.522-.086.522-4.179A10.127,10.127,0,0,0,267.546,568.555Z" transform="translate(27.653 160.666)" fill="#63abff" fill-rule="evenodd"/><path d="M202.632,534.8l-1.567,7.575-1.916,6.79Z" transform="translate(27.357 166.299)" fill="#826448" fill-rule="evenodd"/><path d="M292.345,406.384l-1.437.044-10.273,1.48-13.495-3.918-2.873-6.617q-.7-.7-3.134,3.221a17.3,17.3,0,0,0-1.872,4.135l-3.961-1.872,4.788-15.628a8.056,8.056,0,0,1,.871.653,23.31,23.31,0,0,1,2.786,2q3.743,3.045,4,3.221a1.587,1.587,0,0,0,2.351-.958q.609-1.306-2.873-5.572a18.15,18.15,0,0,0-5.485-4.788l8.271-26.989,33.3,15.584h.044Z" transform="translate(68.978 32.874)" fill="#9accf5" fill-rule="evenodd"/><path d="M262.345,384.365l-.044-.044,9.359-30.515q1.045-3.568,4.44-2l26.554,12.45a3.884,3.884,0,0,1,2.351,5.137l-1.088,3.57-33.3-15.584Zm-2.481,22.941a19.982,19.982,0,0,0-.74,4.832,22.706,22.706,0,0,0-.3,2.83l-1.785-.827A3.8,3.8,0,0,1,254.77,409l5.877-19.241.044.044L255.9,405.434Z" transform="translate(68.376 30.299)" fill="#393939" fill-rule="evenodd"/><path d="M189.637,326.5h-.087v-.348A.781.781,0,0,1,189.637,326.5Z" transform="translate(20.241 11.638)" fill-rule="evenodd" fill="url(#a)"/><path d="M188.537,346.337l-.087-.087h.261C188.595,346.254,188.537,346.283,188.537,346.337Z" transform="translate(19.425 26.537)" fill-rule="evenodd" fill="url(#b)"/><path d="M190.589,346.05c.406.115.784.233,1.132.348q3.283,1.188,6.443,2.438,7.358,2.918,14.017,6.138a159.346,159.346,0,0,1,17.848,10.143q1.742,1.22,3.4,2.351a5.87,5.87,0,0,1,1.306.958q-13.151-7.778-25.6-13.582-4.735-2.181-9.359-4.092-5.717-2.348-11.275-4.266c0-.054.057-.084.174-.087A13.428,13.428,0,0,1,190.589,346.05Z" transform="translate(19.462 26.389)" fill="#d735a1" fill-rule="evenodd"/><path d="M227.355,355.5l5.441,12.885-.261.609q-1.656-1.131-3.4-2.351A159.346,159.346,0,0,0,211.292,356.5q-6.66-3.223-14.017-6.138-3.158-1.248-6.443-2.438c-.348-.115-.726-.233-1.132-.348l1.654-1.045L195.272,344h.435a10.816,10.816,0,0,1,1.524.044,51.5,51.5,0,0,1,10.056,2.133q6.18,1.914,13.408,4.7c.293.1.583.2.871.3q2.442.854,4.875,1.959v.174Z" transform="translate(20.352 24.864)" fill="#72c3ff" fill-rule="evenodd"/><path d="M243.983,398.6a77.133,77.133,0,0,1-15.541,10.056c-.263.132-.524.265-.784.392q-1.476.729-3,1.393l-.7-1.045q-2.526-3.309-4.963-6.356a5.612,5.612,0,0,0-2.264-1.567,16.051,16.051,0,0,1-6.094-2.786q-9.489-7.141-7.139-19.241,1.29-.473,2.568-.827a28.544,28.544,0,0,1,24.856,3.874,34.363,34.363,0,0,1,10.709,11.318A36.8,36.8,0,0,1,243.983,398.6Zm5.572,15.149a27.626,27.626,0,0,1-12.668,5.18,30.036,30.036,0,0,1-4.31.3,6.024,6.024,0,0,1-1.741-.261q-1.742-2.439-3.57-4.963a29.044,29.044,0,0,0,4.135-1.393,53.6,53.6,0,0,0,14.148-9.577Q247.464,408.437,249.555,413.747Z" transform="translate(30.234 49.585)" fill="#dd2b78" fill-rule="evenodd"/></g></svg>