<svg xmlns="http://www.w3.org/2000/svg" width="223.612" height="537.336" viewBox="0 0 223.612 537.336"><g transform="translate(-416.809 -331.3)"><path d="M441.5,351.251l-23.913,13.411,25.206,40.555,20.2-11.31q.809.32,2.908,1.293a8.487,8.487,0,0,1-1.131.485l-7.756,4.524-9.856,5.332q-3.553,2.1-5.655-1.454L417.588,365.47q-2.1-3.233,1.454-5.332l17.45-9.694Q439.561,348.989,441.5,351.251Z" transform="translate(0 41.448)" fill="#2c4482" fill-rule="evenodd"/><path d="M456.474,374.6l3.555,5.332a.927.927,0,0,0-.323.646,1.388,1.388,0,0,1-1.454.808q-2.1.969-5.655-1.131-3.553-1.774-5.978-.969a1.748,1.748,0,0,0-.808,1.293,1.611,1.611,0,0,0,0,1.939,4.4,4.4,0,0,0,2.908,3.07,18.108,18.108,0,0,1,3.555,1.777l.323.323a23.7,23.7,0,0,1,2.424,1.454c.217.213.375.323.485.323a22.34,22.34,0,0,0,6.625,3.716h.323l-20.2,11.31L417.05,363.934l23.913-13.411.323-.323,15.188,24.075Z" transform="translate(0.538 42.175)" fill="#fff" fill-rule="evenodd"/><path d="M433.757,368.872a1.182,1.182,0,0,0,.323-1.777l-3.07-5.494a1.03,1.03,0,0,0-1.616-.323l-5.494,2.908a1.031,1.031,0,0,0-.323,1.616l3.07,5.494c.43.756.969.914,1.616.485Z" transform="translate(14.53 66.321)" fill="#fff" fill-rule="evenodd"/><path d="M419.751,357.387a1.03,1.03,0,0,0-.323,1.616l3.07,5.494q.645,1.134,1.616.485l5.494-2.908a1.182,1.182,0,0,0,.323-1.777l-3.07-5.494a1.031,1.031,0,0,0-1.616-.323Z" transform="translate(5.269 51.147)" fill="#fff" fill-rule="evenodd"/><path d="M427.395,357.978l-5.494,2.908a1.03,1.03,0,0,0-.323,1.616l3.07,5.494q.645,1.134,1.616.485l5.493-2.908a1.182,1.182,0,0,0,.323-1.777l-3.07-5.494A1.03,1.03,0,0,0,427.395,357.978Z" transform="translate(10.067 58.957)" fill="#fff" fill-rule="evenodd"/><path d="M419.751,357.387l5.494-2.908a1.031,1.031,0,0,1,1.616.323l3.07,5.494a1.182,1.182,0,0,1-.323,1.777l-5.494,2.908q-.97.649-1.616-.485L419.428,359A1.03,1.03,0,0,1,419.751,357.387Z" transform="translate(5.269 51.147)" fill="#ff65a7" fill-rule="evenodd"/><path d="M433.757,368.872l-5.493,2.908c-.646.43-1.186.271-1.616-.485l-3.07-5.494a1.031,1.031,0,0,1,.323-1.616l5.494-2.908a1.03,1.03,0,0,1,1.616.323l3.07,5.494A1.182,1.182,0,0,1,433.757,368.872Z" transform="translate(14.53 66.321)" fill="#187cc5" fill-rule="evenodd"/><path d="M568.729,497.96a24.8,24.8,0,0,0-.646-5.332,34.521,34.521,0,0,1-.646-5.978,17.243,17.243,0,0,0,2.1-8.887,39.463,39.463,0,0,1,.646-7.109c.048-.5.1-.979.161-1.454l26.337,14.865q21.972,12.768,7.109,21.328l-90,52.027q-14.866,8.565-37-3.878l-33.285-19.227q-21.813-12.443-6.948-21.166l18.016-10.422a9.2,9.2,0,0,0-.4,3.312,5.2,5.2,0,0,0,.323,1.939,3.578,3.578,0,0,0-.323,1.616,11.693,11.693,0,0,0,.646,3.716q6.3,7.756,21,9.856a105.869,105.869,0,0,0,16,1.131,82.846,82.846,0,0,1,15.834,1.616l1.131,3.716a65.1,65.1,0,0,0,12.765,1.777,26,26,0,0,0,12.764-1.777q2.908-.81,2.908-4.686a28.852,28.852,0,0,1,0-6.3l-.646-.161q.325-1.619.646-4.524a36.7,36.7,0,0,0-1.454-9.533,3.942,3.942,0,0,1-.323-1.454,56.141,56.141,0,0,0,.323-6.14,5.111,5.111,0,0,1,2.908,2.1,4.67,4.67,0,0,1,1.777,3.231q.97,2.259,1.454,3.232,8.4,8.24,15.188,7.109,4.527-.97,6.463-1.454a14.092,14.092,0,0,0,5.655-3.555q.325-3.558.323-6.3A14,14,0,0,0,568.729,497.96Z" transform="translate(30.631 307.725)" fill="#67dfe2" fill-rule="evenodd"/><path d="M470.084,483.22l-3.555,1.454A29.213,29.213,0,0,1,462,486.451a20.694,20.694,0,0,1-4.524,1.293L441,489.844l30.053-17.369A100.391,100.391,0,0,1,470.084,483.22Z" transform="translate(53.983 315.033)" fill="#67dfe2" fill-rule="evenodd"/><path d="M522.339,510.069q-5.492,8.565-18.1,14.7a78.3,78.3,0,0,1-17.45,6.625,29.293,29.293,0,0,1-5.332,1.131v-1.454a23.5,23.5,0,0,0-2.262-8.887,54.49,54.49,0,0,1-6.463-21.893,46.213,46.213,0,0,1-.162-5.09,13.671,13.671,0,0,1,0-4.2c.007-.129.007-.265,0-.4a94.137,94.137,0,0,1,3.878-21.247c.168-.708.359-1.409.565-2.1q.785-2.957,1.858-5.817,1.144-3.015,2.02-6.059a71.323,71.323,0,0,0,.889-36.435,40.3,40.3,0,0,0-3.231-9.21q-8.08-16-27.953-16.8.969-.645,1.616-1.131a2.634,2.634,0,0,1,.485-.646h-.485a19.226,19.226,0,0,1,5.009-6.3q.8-.485,3.231-2.1,2.1-.809,4.363-1.454a2.468,2.468,0,0,0,.969-.323,54.168,54.168,0,0,1,7.109-1.131h16a47.229,47.229,0,0,0,7.756-.646c1.506-.323,2.963-.7,4.363-1.131a26.773,26.773,0,0,0,7.109-3.231,38.176,38.176,0,0,0,6.625-4.2,18.951,18.951,0,0,0,2.585-3.232,6.1,6.1,0,0,0,.969-4.2,1.775,1.775,0,0,0-.646-1.131,4.521,4.521,0,0,0-1.777-1.131,21.547,21.547,0,0,0-5.332-1.777,6.065,6.065,0,0,0,.162,1.454c-.213-.54-.378-.918-.485-1.131v-.323a9.5,9.5,0,0,1,3.231-.646l.969-.646a37.846,37.846,0,0,1,6.463-2.908q26.66-1.779,27.306,35.223v3.07a83.3,83.3,0,0,1-2.585,19.874q-2.1,5.492-8.079,18.1-5.332,11.469-7.756,18.258a2.9,2.9,0,0,1-.323,1.293q-1.454,1.939-2.908,4.039a67.619,67.619,0,0,0-7.109,14.219,39.618,39.618,0,0,0-1.777,14.057,13.506,13.506,0,0,0,.323,2.908,41.2,41.2,0,0,1,.727,5.332c.039.275.065.543.081.808a14.044,14.044,0,0,0,.323,3.07,83.974,83.974,0,0,0,2.747,13.33C522.016,509.054,522.181,509.565,522.339,510.069Z" transform="translate(75.405 52.607)" fill="#27e0c0" fill-rule="evenodd"/><path d="M516.251,369.316a6.242,6.242,0,0,1,2.1,1.454,1.564,1.564,0,0,1,.646,1.777c.213,0-.107.378-.969,1.131a32.6,32.6,0,0,0-5.332,5.009,11.928,11.928,0,0,1-1.131,1.293q-8.885,10.019-14.219,16.8-1.129,1.454-2.424,3.07,31.182-10.179,37.162,5.817a55.157,55.157,0,0,1,1.939,8.563,37.862,37.862,0,0,1-1.454,15.511q-2.094,7.925-12.765,10.341-.868.165-1.777.323-7.591,1.129-19.227-2.1a9.978,9.978,0,0,0-2.424.323q-1.061.126-2.1.242-5.749.819-11.472,2.181-6.995,1.745-13.815,3.635c-.523.133-1.034.265-1.535.4a67.262,67.262,0,0,1-17.288,3.231,68.036,68.036,0,0,1-11.472.323q-10.664-.325-14.865-9.371a17.012,17.012,0,0,1-1.7-9.856,17.473,17.473,0,0,1,2.828-7.109,18.258,18.258,0,0,1,5.009-4.524,73.5,73.5,0,0,1,10.5-10.664q5.657-4.687,16.8-12.6,10.339-7.756,25.529-18.42a7.716,7.716,0,0,1,1.131-.969q7.431-5.817,16-12.926,8.4-7.271,8.725-6.948l.323.646a12.561,12.561,0,0,0,1.454,4.2,21.787,21.787,0,0,0,2.1,5.817,1.449,1.449,0,0,0,.161.646l.969,1.131Q515.12,368.67,516.251,369.316Z" transform="translate(11.531 53.435)" fill="#27e0c0" fill-rule="evenodd"/><path d="M449.278,361.528a17.978,17.978,0,0,1,.808,2.1,11.265,11.265,0,0,1,.646,1.131,5.88,5.88,0,0,1,.323,2.747,2.585,2.585,0,0,1-.323,1.131l-.323.646a38.052,38.052,0,0,1-3.231,4.686.285.285,0,0,0-.323.323h-1.777a25.216,25.216,0,0,1-3.231-.646,25.7,25.7,0,0,1-5.655-1.454,14.6,14.6,0,0,0-3.555-1.454,18.108,18.108,0,0,0-3.555-1.777,4.4,4.4,0,0,1-2.908-3.07,1.611,1.611,0,0,1,0-1.939v.161l4.362.969q4.523.8,5.17,1.454a6.534,6.534,0,0,0,2.908,1.131,5.471,5.471,0,0,0,3.878-.808c.323-.433.7-.914,1.131-1.454l.323-.323q-.645-3.233-4.686-5.655c-.646-.433-1.454-.915-2.424-1.454v-.323a32.454,32.454,0,0,0,3.878.646,26.618,26.618,0,0,1,5.332.808q.645.485,2.1,1.454a10.658,10.658,0,0,0,1.131.646Z" transform="translate(20.176 58.8)" fill="#ffaa83" fill-rule="evenodd"/><path d="M457.787,344.65q3.718,5.332,7.271,7.109v.485a29.418,29.418,0,0,0,.97,4.2l6.463,9.695c.646-.323,1.238-.595,1.777-.808a12.628,12.628,0,0,1-.081-2.02,11.038,11.038,0,0,1,.4-2.989,13.873,13.873,0,0,1,2.424,1.293,15.174,15.174,0,0,1,2.585,1.939,6.951,6.951,0,0,1,2.1,3.878v1.131a15.6,15.6,0,0,1-.808,3.878,3.177,3.177,0,0,1-.969,1.131,3.88,3.88,0,0,1-2.1,1.293.94.94,0,0,0-.323-.646c-.107,0-.268.107-.485.323a9.528,9.528,0,0,1-5.009.323c-1.076-1.4-2.1-2.8-3.07-4.2a15.9,15.9,0,0,1-4.039,7.756q-2.748,2.908-7.756,7.432-2.424,1.779-4.686,3.716a21.787,21.787,0,0,1-2.1-5.817,12.561,12.561,0,0,1-1.454-4.2c.113-.488.249-.976.4-1.454a14.447,14.447,0,0,1,1.05-2.424,20.58,20.58,0,0,1,2.1-3.555q5.332-9.53,10.341-11.472a53.591,53.591,0,0,1-5.009-15.834Z" transform="translate(71.612 29.791)" fill="#ffaa83" fill-rule="evenodd"/><path d="M458.8,371.769a12.168,12.168,0,0,1,3.231-4.2A27.032,27.032,0,0,1,476.573,359q7.591-2.1,14.7-3.555a.94.94,0,0,0,.323.646,4.717,4.717,0,0,1,.323,1.777v.323c.107.213.271.591.485,1.131a1.447,1.447,0,0,0,.162.646v1.777c.213,1.726-.213,2.96-1.293,3.716a25.533,25.533,0,0,1-9.695,5.978q-1.454.645-2.747,1.131a20,20,0,0,1-3.555.323q-3.713.325-7.271.323a16.746,16.746,0,0,1-6.625-.646A4.847,4.847,0,0,1,458.8,371.769Z" transform="translate(93.704 53.891)" fill="#ffaa83" fill-rule="evenodd"/><path d="M457.635,351.982v.323a4.348,4.348,0,0,1,1.454,1.454,3.523,3.523,0,0,1,0,2.1,4.9,4.9,0,0,0-.485,1.777.927.927,0,0,0-.323.646,2.64,2.64,0,0,0,1.131.323,4.208,4.208,0,0,0,1.777-2.424,11.4,11.4,0,0,0-.485-2.424,4.023,4.023,0,0,1-.323-1.454,1.731,1.731,0,0,0-.646-.808,1.857,1.857,0,0,0-2.585-.969A2.894,2.894,0,0,0,457.635,351.982Z" transform="translate(90.022 42.494)" fill="#ffaa83" fill-rule="evenodd"/><path d="M457.05,352.6l.323.323a2.544,2.544,0,0,1-.323-.969Z" transform="translate(89.798 46.081)" fill="#ffaa83" fill-rule="evenodd"/><path d="M475.264,335.178a12.928,12.928,0,0,0,2.1,1.293,3.858,3.858,0,0,0,2.424.162,17.3,17.3,0,0,0,4.362-1.454,1.31,1.31,0,0,1,.969.323,12.617,12.617,0,0,1,2.585,1.131,11.248,11.248,0,0,0,2.747,1.777l3.555.969a11.505,11.505,0,0,1,3.231,1.454q6.3,4.2,8.24,5.655a45.3,45.3,0,0,1,7.756,6.3,46.63,46.63,0,0,1,8.4,11.8,22.313,22.313,0,0,1,2.585,8.563v.323q-3.233,2.908-9.533,4.686a51.4,51.4,0,0,1-29.891-.485c-1.4-.43-2.8-.918-4.2-1.454-.969-.433-1.939-.86-2.908-1.293-.646-.323-1.238-.594-1.777-.808a88.231,88.231,0,0,1-12.118-8.4,23.653,23.653,0,0,1-4.524-5.817c-.536-1.079-1.024-1.994-1.454-2.747q-.809-1.774-2.1-4.2a14.744,14.744,0,0,0-6.463-7.594l4.363-.323a17.727,17.727,0,0,0,3.07.323l.323-.323v-.646q-.645-2.1-1.616-5.978a16.724,16.724,0,0,0-1.939-5.494,15.58,15.58,0,0,1,4.686,1.131q0,.325,4.686,2.585c-.323,0-.213.107.323.323l.969.97c.11.216.969.323,2.585.323q-1.129-.97-.808-3.878a14.25,14.25,0,0,0,0-3.07,19.169,19.169,0,0,1,5.332,1.777Q474.133,334.7,475.264,335.178Z" transform="translate(72.393 0)" fill="#713d22" fill-rule="evenodd"/><path d="M513.217,350.778v.323a6.306,6.306,0,0,1-.485,2.1l-.323.162a7.686,7.686,0,0,0-2.424,1.293,45.457,45.457,0,0,1-14.542,6.14,19.759,19.759,0,0,1-3.555-.323,34.2,34.2,0,0,1-14.7-3.716c-.711-.336-1.412-.662-2.1-.969q-2.307-1-4.524-1.777l-.323-.323a26.555,26.555,0,0,0-4.039-1.131,2.523,2.523,0,0,0-.969-.323,10.284,10.284,0,0,0-10.341,3.878,29.418,29.418,0,0,1-.97-4.2v-.485a6.574,6.574,0,0,1,.646-3.393q.969-1.454,2.1-3.232a40.657,40.657,0,0,0,8.24,4.847,2.215,2.215,0,0,1,.969.162c.54.217,1.131.43,1.777.646a32.738,32.738,0,0,1,3.878,1.454q3.495,1.125,6.786,1.939,15.308,3.611,26.983.161A25.364,25.364,0,0,0,513.217,350.778Z" transform="translate(82.75 30.125)" fill="#713d22" fill-rule="evenodd"/><path d="M443.461,384.056a11.122,11.122,0,0,1-1.293-1.454,2.482,2.482,0,0,1-.485-.646.287.287,0,0,0-.323-.323,5.208,5.208,0,0,0-1.293-.161q-1.377-.16-2.424-.242c-1.467-.2-2.492-.33-3.07-.4a4.811,4.811,0,0,1-2.424-.646l7.756-4.524a8.487,8.487,0,0,0,1.131-.485q-2.1-.969-2.908-1.293h-.323a22.34,22.34,0,0,1-6.625-3.716c-.11,0-.268-.11-.485-.323a23.7,23.7,0,0,0-2.424-1.454l-.323-.323a14.6,14.6,0,0,1,3.555,1.454,25.7,25.7,0,0,0,5.655,1.454,25.216,25.216,0,0,0,3.231.646h1.777a.285.285,0,0,1,.323-.323,38.052,38.052,0,0,0,3.231-4.686l.323-.646a2.585,2.585,0,0,0,.323-1.131,5.88,5.88,0,0,0-.323-2.747,11.265,11.265,0,0,0-.646-1.131,17.978,17.978,0,0,0-.808-2.1h.323c.43.323.808.591,1.131.808a19.707,19.707,0,0,1,2.1,1.777,21.148,21.148,0,0,1,1.131,2.747,23.821,23.821,0,0,1,1.293,4.2,5.671,5.671,0,0,0-3.878,3.231c-.217.54-.43,1.021-.646,1.454q-.921,2.1-1.7,4.12a9.628,9.628,0,0,0-.4.889,9.961,9.961,0,0,0-.646,3.393A6.926,6.926,0,0,0,443.461,384.056Z" transform="translate(24.862 61.478)" fill="#ed9870" fill-rule="evenodd"/><path d="M459.422,358.565q-3.553-1.779-7.271-7.109v-.646a37.045,37.045,0,0,1-.646-9.21,38.179,38.179,0,0,0,2.1,4.2,14.551,14.551,0,0,0,4.363,3.231q3.228,2.1,4.2,2.908-1.129,1.779-2.1,3.232A6.574,6.574,0,0,0,459.422,358.565Z" transform="translate(77.247 22.985)" fill="#ed9870" fill-rule="evenodd"/><path d="M475.044,361.263q0,4.847-7.109,9.21A34.539,34.539,0,0,1,453.716,375q-1.129-.645-2.585-1.616l-.969-1.131A1.449,1.449,0,0,1,450,371.6q2.264-1.939,4.686-3.716,5.007-4.522,7.756-7.432a15.9,15.9,0,0,0,4.039-7.756c.969,1.4,1.994,2.8,3.07,4.2v.161a16.572,16.572,0,0,0,2.908,2.1c.536.216,1.131.43,1.777.646l-.323.646Z" transform="translate(74.066 47.754)" fill="#ed9870" fill-rule="evenodd"/><path d="M523.9,371.2h-.323a25.364,25.364,0,0,1-7.917,3.231q-11.672,3.446-26.983-.161-3.291-.81-6.786-1.939a32.738,32.738,0,0,0-3.878-1.454c-.646-.216-1.238-.43-1.777-.646a2.215,2.215,0,0,0-.969-.162,40.657,40.657,0,0,1-8.24-4.847q-.97-.8-4.2-2.908a14.551,14.551,0,0,1-4.363-3.231,38.179,38.179,0,0,1-2.1-4.2v-.323a1.252,1.252,0,0,0-.323-.646,29.8,29.8,0,0,1-1.777-5.332,9.981,9.981,0,0,0-1.454-3.555q-1.134-1.454-2.1-2.585a12.258,12.258,0,0,1-1.131-3.232l-.323-3.555a14.744,14.744,0,0,1,6.463,7.594q1.294,2.424,2.1,4.2c.43.753.918,1.667,1.454,2.747a23.653,23.653,0,0,0,4.524,5.817,88.231,88.231,0,0,0,12.118,8.4c.54.213,1.131.485,1.777.808.969.433,1.939.86,2.908,1.293,1.4.536,2.8,1.024,4.2,1.454a51.4,51.4,0,0,0,29.891.485q6.3-1.774,9.533-4.686v.323a9.887,9.887,0,0,1,0,5.009,4.714,4.714,0,0,1-.323,1.777Z" transform="translate(72.393 9.707)" fill="#452312" fill-rule="evenodd"/><path d="M469.873,362.109a6.951,6.951,0,0,0-2.1-3.878,15.174,15.174,0,0,0-2.585-1.939A13.873,13.873,0,0,0,462.763,355a11.038,11.038,0,0,0-.4,2.989,12.628,12.628,0,0,0,.081,2.02c-.54.213-1.131.485-1.777.808l-6.463-9.695a10.284,10.284,0,0,1,10.341-3.878,2.523,2.523,0,0,1,.969.323,26.555,26.555,0,0,1,4.039,1.131l.323.323q2.215.776,4.524,1.777c.688.307,1.39.633,2.1.969a34.2,34.2,0,0,0,14.7,3.716,19.759,19.759,0,0,0,3.555.323,45.457,45.457,0,0,0,14.542-6.14,7.686,7.686,0,0,1,2.424-1.293l.323-.162a31.972,31.972,0,0,1-7.756,12.441,1.447,1.447,0,0,0-.646.162q-2.264,2.1-4.363,4.2-1.779,1.454-3.555,2.747a6.185,6.185,0,0,0-1.293.485l-3.555,1.454a13.125,13.125,0,0,1-9.048.323,21.512,21.512,0,0,0-3.878-1.131,9.351,9.351,0,0,1-3.878-2.424Q471.975,364.368,469.873,362.109Z" transform="translate(83.439 35.113)" fill="#452312" fill-rule="evenodd"/><path d="M494.4,364.822q-7.106,1.454-14.7,3.555a27.032,27.032,0,0,0-14.542,8.564,12.168,12.168,0,0,0-3.231,4.2,2.082,2.082,0,0,1-1.293-.969c-.11,0,0-.753.323-2.262a1.088,1.088,0,0,0-.808.323,25.656,25.656,0,0,0-.323-12.765l-1.293-.969-1.131-.808.323-.646a6.707,6.707,0,0,0,4.524-.969,5.67,5.67,0,0,0-1.293-3.231,3.177,3.177,0,0,0,.969-1.131,15.6,15.6,0,0,0,.808-3.878V352.7q2.1,2.264,4.2,4.362a9.351,9.351,0,0,0,3.878,2.424,21.512,21.512,0,0,1,3.878,1.131,13.125,13.125,0,0,0,9.048-.323l3.555-1.454a6.185,6.185,0,0,1,1.293-.485q1.779-1.289,3.555-2.747,2.1-2.1,4.363-4.2a1.447,1.447,0,0,1,.646-.162A25.883,25.883,0,0,0,494.4,364.822Z" transform="translate(90.58 44.519)" fill="#ce7c56" fill-rule="evenodd"/><path d="M448.038,482.425l16.481-2.1a20.694,20.694,0,0,0,4.524-1.293,29.213,29.213,0,0,0,4.524-1.777l3.555-1.454a9.943,9.943,0,0,0-.323,2.424,1.089,1.089,0,0,0-.323.808l.646.969a49.648,49.648,0,0,0,3.231,5.009q9.695,12.443,26.983,12.765a16.875,16.875,0,0,0,5.655-.97h.161l.323-.161q3.073-1.294,5.009-5.978c.213-.753.433-1.561.646-2.424a3.942,3.942,0,0,0,.323,1.454,36.7,36.7,0,0,1,1.454,9.533q-.325,2.908-.646,4.524a5.641,5.641,0,0,1-2.585,3.231,28.333,28.333,0,0,1-13.572,1.777,14.059,14.059,0,0,1-3.07-.323q-2.424-.325-5.655-.808l-5.009-.969a16.72,16.72,0,0,1-5.009-.808q-3.878-.325-8.887-.323h-5.009q-7.756-.649-11.633-1.292h-.323q-2.908-.325-5.655-.808a.514.514,0,0,0-.485-.323q-1.779-.649-3.555-1.131a29.376,29.376,0,0,1-9.21-5.655,11.318,11.318,0,0,1-2.424-3.07,5.2,5.2,0,0,1-.323-1.939,9.2,9.2,0,0,1,.4-3.312,7.527,7.527,0,0,1,1.373-2.343q1.779-2.749,7.109-3.232Z" transform="translate(46.945 322.453)" fill="#d1e7f4" fill-rule="evenodd"/><path d="M495.438,479.286a34.521,34.521,0,0,0,.646,5.978,24.8,24.8,0,0,1,.646,5.332,10.662,10.662,0,0,0-.646,1.777l-.646.646a2.914,2.914,0,0,1-.808.808,9.447,9.447,0,0,1-3.555,2.1,26.659,26.659,0,0,1-6.625,1.454q-7.111,1.294-13.9-5.817a34.747,34.747,0,0,0-6.786-5.655v-1.454A93.911,93.911,0,0,1,462.8,472.5a14.129,14.129,0,0,0,1.777,2.1,65.711,65.711,0,0,0,11.31,7.756,19.833,19.833,0,0,0,12.764,2.1A12.853,12.853,0,0,0,495.438,479.286Z" transform="translate(102.63 315.089)" fill="#d1e7f4" fill-rule="evenodd"/><path d="M425.95,380.257a1.748,1.748,0,0,1,.808-1.293q2.424-.81,5.978.969,3.553,2.1,5.655,1.131a1.388,1.388,0,0,0,1.454-.808.927.927,0,0,1,.323-.646l-3.555-5.332c.969.54,1.777,1.021,2.424,1.454q4.038,2.424,4.686,5.655l-.323.323c-.43.54-.808,1.021-1.131,1.454a5.471,5.471,0,0,1-3.878.808,6.534,6.534,0,0,1-2.908-1.131q-.645-.645-5.17-1.454l-4.362-.969Zm101.308-28.276a2.894,2.894,0,0,1-.485-1.454,1.857,1.857,0,0,1,2.585.969,1.731,1.731,0,0,1,.646.808,4.023,4.023,0,0,0,.323,1.454,11.4,11.4,0,0,1,.485,2.424,4.208,4.208,0,0,1-1.777,2.424,2.64,2.64,0,0,1-1.131-.323.927.927,0,0,1,.323-.646,4.9,4.9,0,0,1,.485-1.777,3.523,3.523,0,0,0,0-2.1,4.348,4.348,0,0,0-1.454-1.454Zm.646,13.088c-.646-.217-1.241-.43-1.777-.646a16.572,16.572,0,0,1-2.908-2.1v-.161a9.528,9.528,0,0,0,5.009-.323c.216-.216.378-.323.485-.323a.94.94,0,0,1,.323.646,3.88,3.88,0,0,0,2.1-1.293,5.67,5.67,0,0,1,1.293,3.231A6.707,6.707,0,0,1,527.9,365.069Z" transform="translate(20.399 42.494)" fill="#dda274" fill-rule="evenodd"/><path d="M450.915,377.411a37.028,37.028,0,0,1,7.19.727,1.107,1.107,0,0,1,.808.323q-15.191,10.664-25.529,18.42a18.76,18.76,0,0,1-.646-5.009,9.961,9.961,0,0,1,.646-3.393,9.628,9.628,0,0,1,.4-.889q.776-2.021,1.7-4.12c.217-.433.43-.914.646-1.454a5.671,5.671,0,0,1,3.878-3.231h.161A39.129,39.129,0,0,1,450.915,377.411ZM550.2,360.688a4.717,4.717,0,0,0-.323-1.777q6.951-2.1,14.219-3.555,14.057-3.068,19.066,1.939a27.14,27.14,0,0,1,6.786,9.533q1.779,4.523,1.777,13.9a16.83,16.83,0,0,1-3.555,10.987q-.645-37-27.306-35.223A37.846,37.846,0,0,0,554.4,359.4l-.969.646A9.5,9.5,0,0,0,550.2,360.688ZM566.28,499.319a9.394,9.394,0,0,1-.4,3.393,22.168,22.168,0,0,1-2.1,6.3,21.934,21.934,0,0,1-1.454,2.585c-.158-.5-.323-1.015-.485-1.535a83.974,83.974,0,0,1-2.747-13.33,14.044,14.044,0,0,1-.323-3.07c-.016-.265-.042-.533-.081-.808a41.2,41.2,0,0,0-.727-5.332,13.506,13.506,0,0,1-.323-2.908,39.618,39.618,0,0,1,1.777-14.057,67.619,67.619,0,0,1,7.109-14.219q1.454-2.1,2.908-4.039-1.129,6.466-1.939,13.249-.969,6.3-1.616,12.764V483q.024,6.869.323,13.734v1.777c.026.168.055.329.081.485q0,.121,0,.242ZM488.8,381.046a8.51,8.51,0,0,0,3.555-.808q8.725-3.073,17.612-5.978a10.769,10.769,0,0,1,5.332-2.585,1.088,1.088,0,0,1,.808-.323c-.323,1.509-.433,2.262-.323,2.262l-7.432,2.424L505.77,382.5a2.468,2.468,0,0,1-.969.323q-2.264.649-4.363,1.454-2.424,1.614-3.231,2.1a19.226,19.226,0,0,0-5.009,6.3h.485a2.634,2.634,0,0,0-.485.646q-.645.485-1.616,1.131,19.874.8,27.953,16.8a40.3,40.3,0,0,1,3.231,9.21,71.323,71.323,0,0,1-.889,36.435q-.872,3.044-2.02,6.059-1.071,2.86-1.858,5.817c-.207.692-.4,1.393-.565,2.1a94.137,94.137,0,0,0-3.878,21.247c.007.139.007.275,0,.4a13.671,13.671,0,0,0,0,4.2,46.213,46.213,0,0,0,.162,5.09,54.49,54.49,0,0,0,6.463,21.893,23.5,23.5,0,0,1,2.262,8.887v1.454q-1.818.33-3.635.565a55.44,55.44,0,0,1-8,.4,51.77,51.77,0,0,1-30.214-10.5A22.381,22.381,0,0,1,469.577,505.3a19.732,19.732,0,0,1,.323-3.555c.055-.462.107-.921.161-1.373a123.493,123.493,0,0,1,5.17-22.863c.152-.5.284-1.011.4-1.535a24.648,24.648,0,0,0,.4-10.1c-.142-.714-.3-1.409-.485-2.1a87.217,87.217,0,0,1-3.07-21.409v-1.373a9.978,9.978,0,0,1,2.424-.323q11.633,3.228,19.227,2.1.911-.16,1.777-.323,10.669-2.414,12.765-10.341a37.862,37.862,0,0,0,1.454-15.511,55.157,55.157,0,0,0-1.939-8.563q-5.981-16-37.162-5.817,1.294-1.614,2.424-3.07,5.332-6.786,14.219-16.8A11.928,11.928,0,0,0,488.8,381.046Z" transform="translate(35.423 51.077)" fill="#0aa98e" fill-rule="evenodd"/><path d="M472.25,346.973v-.323h.323A.3.3,0,0,0,472.25,346.973Z" transform="translate(123.717 34.254)" fill="#b58866" fill-rule="evenodd"/><path d="M505.388,356.75a4.521,4.521,0,0,1,1.777,1.131,1.775,1.775,0,0,1,.646,1.131,6.1,6.1,0,0,1-.969,4.2,18.951,18.951,0,0,1-2.585,3.232,38.176,38.176,0,0,1-6.625,4.2,26.773,26.773,0,0,1-7.109,3.231c-1.4.433-2.857.808-4.363,1.131a47.229,47.229,0,0,1-7.756.646h-16a54.168,54.168,0,0,0-7.109,1.131l2.585-6.463,7.432-2.424a2.082,2.082,0,0,0,1.293.969,4.847,4.847,0,0,0,2.585.808,16.746,16.746,0,0,0,6.625.646q3.558,0,7.271-.323a20,20,0,0,0,3.555-.323,18.991,18.991,0,0,0,3.878-.808,29.153,29.153,0,0,0,6.625-2.747,15.167,15.167,0,0,0,3.232-2.585,9.122,9.122,0,0,1,1.454-1.454,1.861,1.861,0,0,0,.646-1.293,15.539,15.539,0,0,1,1.777-2.585,2.557,2.557,0,0,0,.485-.646A5.19,5.19,0,0,1,505.388,356.75Z" transform="translate(85.893 56.792)" fill="#86ffea" fill-rule="evenodd"/><path d="M465,370.9q1.294-.485,2.747-1.131a25.533,25.533,0,0,0,9.695-5.978c1.079-.756,1.506-1.991,1.293-3.716V358.3a1.447,1.447,0,0,1-.162-.646,6.065,6.065,0,0,1-.162-1.454,21.547,21.547,0,0,1,5.332,1.777,5.19,5.19,0,0,0-.646.808,2.557,2.557,0,0,1-.485.646,15.539,15.539,0,0,0-1.777,2.585,1.861,1.861,0,0,1-.646,1.293,9.122,9.122,0,0,0-1.454,1.454,15.167,15.167,0,0,1-3.232,2.585,29.153,29.153,0,0,1-6.625,2.747A18.991,18.991,0,0,1,465,370.9Z" transform="translate(107.539 55.565)" fill="#9aa0dd" fill-rule="evenodd"/><path d="M441.916,478.029a112.4,112.4,0,0,1,.485-16.077,47.745,47.745,0,0,1,.323-5.009c.12-1.167.281-2.462.485-3.878q1.115-4.052,5.655-26.094.669-3.471,1.454-7.352a23.274,23.274,0,0,1-1.454-8.24q0-2.424.323-6.3A22.381,22.381,0,0,0,459.2,424.306a51.77,51.77,0,0,0,30.214,10.5,55.44,55.44,0,0,0,8-.4q1.818-.233,3.635-.565a29.293,29.293,0,0,0,5.332-1.131,78.3,78.3,0,0,0,17.45-6.625q12.6-6.137,18.1-14.7a21.934,21.934,0,0,0,1.454-2.585,22.168,22.168,0,0,0,2.1-6.3,9.394,9.394,0,0,0,.4-3.393,25.61,25.61,0,0,0,.566,3.393v2.585a21.485,21.485,0,0,1-.323,2.181,25.777,25.777,0,0,1-4.2,10.26,37.117,37.117,0,0,1-3.312,4.363,43.527,43.527,0,0,1-5.251,4.847,39.086,39.086,0,0,1,0,10.018q-.485,7.431-1.454,15.188-.48,5.3-.646,10.5-.068,3.495,0,6.948,0,7.5.242,15.188c.013,1.186.042,2.372.081,3.555q.325,4.682.969,9.694.325,4.2,1.131,8.725.315,1.857.646,3.716,1.338,6.563,3.231,12.764v.162q2.05,7.426,4.2,14.461.548,1.919,1.131,3.8a48.281,48.281,0,0,1,1.535,9.937,49.039,49.039,0,0,1-.4,8.806q-1.454,8.885-2.1,17.45-.485,8.24-1.131,16.8-.81,8.4-1.454,16.965-.32,3.553-.646,7.109c-.145,1.073-.278,2.152-.4,3.232q-.494,4.314-.727,8.563-.969,8.885-2.1,17.935a19.833,19.833,0,0,1-12.764-2.1,65.711,65.711,0,0,1-11.31-7.756,14.129,14.129,0,0,1-1.777-2.1,7.561,7.561,0,0,1-.162-1.454,102.3,102.3,0,0,1-.969-19.227c.019-.281.048-.549.081-.808q.921-13.131,2.02-19.712,1.454-7.111.646-18.1c-.207-1.742-.475-3.542-.808-5.413q-1.1-6.486-3.151-13.976-.781-2.831-1.7-5.817a54.055,54.055,0,0,1-2.181-8.806,67.3,67.3,0,0,1-.727-14.057,95.5,95.5,0,0,1,1.131-9.937q.189-1.808.323-3.635.451-4.92.727-9.856.4-7.329.4-14.7-.029-6.229-.323-12.522a10.083,10.083,0,0,1,1.454-4.039q1.861-1.575,3.716-3.151c.161-.132.323-.268.485-.4q1.779-1.614,6.14-9.533,4.2-7.111,2.747-26.337-3.965,1.42-8.079,2.666-2.492.712-5.009,1.373a22.942,22.942,0,0,1-5.009,1.293,15.976,15.976,0,0,0-2.585.485q.213,1.987.242,3.878a35.736,35.736,0,0,1-.242,4.686q-1.071,7.576-1.939,15.188-.572,4.721-1.05,9.452-.465,4.9-.889,9.775-.548,7.111-.969,14.219a11.4,11.4,0,0,0-.323,2.747q-.291,4.435-.485,8.887-.514,12.293-.242,24.64.126,5.448.4,10.906a32.666,32.666,0,0,0,.323,3.635,40.666,40.666,0,0,0,4.443,14.3c.026.055.052.11.081.162a43.277,43.277,0,0,1,4.443,13.168,37.359,37.359,0,0,1-.242,13.168,138.229,138.229,0,0,0-2.181,28.922c.036.42.061.85.081,1.293a14.233,14.233,0,0,0,.323,3.07q0,3.553.161,7.433.32,6.466.969,12.926a8.888,8.888,0,0,0,.323,2.424q.8,11.313,2.585,22.3l-.323.161h-.161a16.875,16.875,0,0,1-5.655.97q-17.29-.325-26.983-12.765a49.648,49.648,0,0,1-3.231-5.009l-.646-.969a1.089,1.089,0,0,1,.323-.808,9.943,9.943,0,0,1,.323-2.424,100.391,100.391,0,0,0,.969-10.745q.16-2.763.162-5.574,0-16.946-.969-34.012c-.055-.9-.107-1.784-.161-2.666v-.323l-1.131-12.764-.485-5.655q-.335-5.162-1.131-10.26a119.809,119.809,0,0,0-6.463-24.155q-3.422-8.841-6.625-17.45c-.184-.549-.372-1.086-.566-1.616q-1.958-5.419-3.8-10.745-.669-1.832-1.293-3.635a109.862,109.862,0,0,1-3.393-14.7q-.678-4.1-.969-8.079-.179-1.852-.323-3.716Q441.99,479.451,441.916,478.029Z" transform="translate(55.814 151.296)" fill="#ffa92e" fill-rule="evenodd"/><path d="M474.081,399.948c-.026-.155-.055-.317-.081-.485v-.889C474.01,399.037,474.036,399.5,474.081,399.948Z" transform="translate(127.623 150.125)" fill="#ffa92e" fill-rule="evenodd"/><path d="M516.827,527.544q1.222,4.222,2.181,8.644.412,2.438.646,4.847a61.383,61.383,0,0,1-.162,12.28q-1.129,9.21-2.908,18.42-1.454,8.24-2.424,16.8-1.134,8.885-2.262,17.612-1.183,7.523-1.939,15.35c-.061.475-.113.957-.161,1.454a39.463,39.463,0,0,0-.646,7.109,17.243,17.243,0,0,1-2.1,8.887,12.853,12.853,0,0,1-6.786,5.17q1.129-9.05,2.1-17.935.237-4.251.727-8.563c.126-1.079.259-2.159.4-3.232q.32-3.553.646-7.109.649-8.565,1.454-16.965.645-8.565,1.131-16.8.649-8.565,2.1-17.45a49.039,49.039,0,0,0,.4-8.806,48.281,48.281,0,0,0-1.535-9.937q-.582-1.876-1.131-3.8-2.147-7.033-4.2-14.461V518.9q-1.9-6.2-3.231-12.764-.33-1.861-.646-3.716-.81-4.523-1.131-8.725-.645-5.012-.969-9.694c-.039-1.183-.068-2.369-.081-3.555q-.242-7.692-.242-15.188-.068-3.451,0-6.948.165-5.2.646-10.5.97-7.756,1.454-15.188a39.086,39.086,0,0,0,0-10.018,43.527,43.527,0,0,0,5.251-4.847,37.117,37.117,0,0,0,3.312-4.363,25.777,25.777,0,0,0,4.2-10.26,21.485,21.485,0,0,0,.323-2.181q.242.853.485,1.777.994,4.009,1.777,9.21.538,3.941.969,8.563,1.454,14.222-1.131,24.4-.591,2.147-1.05,4.039-1.866,6.81-2.5,9.856a34.5,34.5,0,0,0-1.212,5.574q-.5,3.2-.889,7.675-.16,1.527-.242,2.989a82.834,82.834,0,0,0-.242,10.987q.048,1.362.161,2.666a71.925,71.925,0,0,0,1.535,12.037q.417,1.745.889,3.474,1.071,4.619,2.424,9.129,1.323,4.372,2.908,8.644Q516.047,524.718,516.827,527.544Zm-42.413,104.62a93.911,93.911,0,0,0,.969,11.957v5.009a56.141,56.141,0,0,1-.323,6.14c-.213.863-.433,1.671-.646,2.424q-1.939,4.682-5.009,5.978-1.774-10.989-2.585-22.3a8.888,8.888,0,0,1-.323-2.424q-.645-6.461-.969-12.926-.16-3.878-.161-7.433a14.233,14.233,0,0,1-.323-3.07c-.019-.443-.045-.873-.081-1.293a138.229,138.229,0,0,1,2.181-28.922,37.359,37.359,0,0,0,.242-13.168,43.277,43.277,0,0,0-4.443-13.168c-.029-.052-.055-.107-.081-.162a40.666,40.666,0,0,1-4.443-14.3,32.666,32.666,0,0,1-.323-3.635q-.281-5.458-.4-10.906-.276-12.346.242-24.64.194-4.45.485-8.887a11.4,11.4,0,0,1,.323-2.747q.422-7.106.969-14.219.422-4.881.889-9.775.48-4.731,1.05-9.452.868-7.61,1.939-15.188a35.736,35.736,0,0,0,.242-4.686q-.029-1.89-.242-3.878a15.976,15.976,0,0,1,2.585-.485,22.942,22.942,0,0,0,5.009-1.293q2.516-.659,5.009-1.373,4.115-1.241,8.079-2.666,1.454,19.224-2.747,26.337-4.362,7.92-6.14,9.533c-.162.136-.323.272-.485.4q-1.857,1.575-3.716,3.151a10.083,10.083,0,0,0-1.454,4.039q.3,6.292.323,12.522-.01,7.373-.4,14.7-.271,4.935-.727,9.856-.136,1.827-.323,3.635a95.5,95.5,0,0,0-1.131,9.937,67.3,67.3,0,0,0,.727,14.057,54.055,54.055,0,0,0,2.181,8.806q.916,2.991,1.7,5.817,2.055,7.489,3.151,13.976c.333,1.871.6,3.671.808,5.413q.81,10.989-.646,18.1-1.1,6.578-2.02,19.712c-.032.259-.062.527-.081.808a102.3,102.3,0,0,0,.969,19.227A7.561,7.561,0,0,0,474.414,632.164Z" transform="translate(91.016 155.424)" fill="#ffd22e" fill-rule="evenodd"/><path d="M519.446,476.65a34.747,34.747,0,0,1,6.786,5.655q6.786,7.106,13.9,5.817a26.659,26.659,0,0,0,6.625-1.454,9.447,9.447,0,0,0,3.555-2.1,2.914,2.914,0,0,0,.808-.808l.646-.646a10.662,10.662,0,0,1,.646-1.777,14,14,0,0,1,.808,3.232q0,2.748-.323,6.3a14.092,14.092,0,0,1-5.655,3.555q-1.939.485-6.463,1.454-6.786,1.129-15.188-7.109-.485-.969-1.454-3.232a4.67,4.67,0,0,0-1.777-3.231,5.111,5.111,0,0,0-2.908-2.1Zm-81.272,14.7a11.318,11.318,0,0,0,2.424,3.07,29.376,29.376,0,0,0,9.21,5.655q1.774.485,3.555,1.131a.514.514,0,0,1,.485.323q2.748.485,5.655.808h.323q3.878.645,11.633,1.292h5.009q5.007,0,8.887.323a16.72,16.72,0,0,0,5.009.808l5.009.969q3.228.485,5.655.808a14.059,14.059,0,0,0,3.07.323,28.333,28.333,0,0,0,13.572-1.777,5.641,5.641,0,0,0,2.585-3.231l.646.161a28.852,28.852,0,0,0,0,6.3q0,3.878-2.908,4.686a26,26,0,0,1-12.764,1.777A65.1,65.1,0,0,1,492.462,513l-1.131-3.716a82.846,82.846,0,0,0-15.834-1.616,105.869,105.869,0,0,1-16-1.131q-14.7-2.1-21-9.856a11.693,11.693,0,0,1-.646-3.716A3.578,3.578,0,0,1,438.173,491.353Z" transform="translate(46.954 324.349)" fill="#3e6074" fill-rule="evenodd"/><path d="M427.395,357.978a1.03,1.03,0,0,1,1.616.323l3.07,5.494a1.182,1.182,0,0,1-.323,1.777l-5.493,2.908q-.97.649-1.616-.485l-3.07-5.494a1.03,1.03,0,0,1,.323-1.616Z" transform="translate(10.067 58.957)" fill="#03f4d0" fill-rule="evenodd"/></g></svg>