<svg xmlns="http://www.w3.org/2000/svg" width="395.398" height="503.725" viewBox="0 0 395.398 503.725"><g transform="translate(-536.221 -329.384)"><path d="M639.581,418.57l-4.238,1.271a91.083,91.083,0,0,1-12.713.424c-1.411-1.551-2.682-2.9-3.814-4.026-.284-.424-.564-.847-.848-1.271-.28-.28-.5-.492-.636-.636a2.326,2.326,0,0,0-.424-.848l-1.059-1.06a.185.185,0,0,0-.212-.212l-.212-.424-1.059-2.119q-2.333-2.969-4.661-6.145a124.576,124.576,0,0,1-11.442-17.587q-4.024-7.838-7.416-16.1-1.488-4.024-3.178-7.84a30.942,30.942,0,0,1-2.119-8.476,36.067,36.067,0,0,0,9.959,1.271q18.224-1.7,25.85-6.145a48.558,48.558,0,0,1,18.222-5.085,27.9,27.9,0,0,1,8.264.848q1.907,8.264,11.018,15.044a40.26,40.26,0,0,0,5.721,3.814,4.774,4.774,0,0,1,1.695-.636q.216,3.6,4.238,3.178,4.45-.636,5.085-6.568-.209-5.721-.212-5.933a12.652,12.652,0,0,0-2.542-6.357,22.679,22.679,0,0,1,2.331-3.6q3.388,2.333,3.814,7.628a82.105,82.105,0,0,1,.636,8.688q.21,5.085-4.238,11.018-3.388,4.24-9.747,2.755,3.178,12.923-6.145,25.85a132.971,132.971,0,0,1-9.959,9.747Q646.146,412.214,639.581,418.57Z" transform="translate(159.715 45.219)" fill="#ffaa83" fill-rule="evenodd"/><path d="M593.842,451.85a5.828,5.828,0,0,1,.318-1.06,10.474,10.474,0,0,1,.954-1.8q2.758-4.024,2.119-3.814,2.288-2.295,4.344-4.344c.276-.335.559-.652.848-.953a144.483,144.483,0,0,0,11.548-13.349q-5.511,0-19.282,11.018c-.309.259-.623.5-.953.742-.576.492-1.144.992-1.7,1.483a54.09,54.09,0,0,0-8.158,8.582,33.357,33.357,0,0,0,1.483-5.509,7.271,7.271,0,0,1-4.767.424l-.424-.848c.572-.309,1.2-.7,1.907-1.165q2.218-1.475,5.615-4.026c.784-.623,1.627-1.3,2.543-2.013q10.45-7.99,14.938-13.031a3.276,3.276,0,0,0,.318-.318q-.973-.693-3.391-.212a24.14,24.14,0,0,0-2.966.848l.212-.212,1.483-.848,1.271-.636c.1-.072.2-.144.318-.212a38.547,38.547,0,0,1,10.489-5.191l13.137-2.649a17.785,17.785,0,0,0,2.013-.106h.848c1.288-.034,2.526-.072,3.708-.106q12.167-.426,19.07-1.271c.28-.14.568-.28.848-.424q1.061,1.691,5.933,5.3,6.573,5.085,6.78,8.476a7.922,7.922,0,0,1-.212,2.649,12.145,12.145,0,0,1-2.755,5.085q-5.893,6.916-23.838,13.773c-.538.161-1.068.339-1.589.53-1.153.411-2.352.839-3.6,1.271-.564.2-1.127.411-1.7.636h-.106l-.318.106q-10.285,3.732-17.375,6.674c-.4.127-.784.267-1.165.424-.327.136-.644.28-.954.424l-.212.106-.848.318a.926.926,0,0,1-.424-.636,1.437,1.437,0,0,1,0-.848c.076-.144.144-.288.212-.424a5.753,5.753,0,0,1,.848-1.483c.259-.343.542-.7.848-1.059l.106-.106a36.359,36.359,0,0,1,5.615-5.4q.534-.527,3.39-2.754c.165-.136.343-.276.53-.424q1.557-1.144,3.708-2.755a51.3,51.3,0,0,0-5.933,2.225l-.212.106c-.267.144-.517.288-.742.424.182-.153.36-.3.53-.424a9.7,9.7,0,0,1,2.331-1.271,16.29,16.29,0,0,0,2.542-2.755q6.147-6.147,5.933-8.052l-.212-1.483q-6.992.42-20.553,11.442a2.293,2.293,0,0,1-.318.212,9.959,9.959,0,0,1-.848.636,50.071,50.071,0,0,0-9.429,9.747c-.229.352-.441.7-.636,1.06a2.616,2.616,0,0,0-.212.318,20.5,20.5,0,0,0-1.059,2.225c-1.924-.335-2.882-1.182-2.861-2.542A4.167,4.167,0,0,1,593.842,451.85Z" transform="translate(142.312 263.767)" fill="#ffaa83" fill-rule="evenodd"/><path d="M589.15,418.762a1.531,1.531,0,0,1,.318-.212C589.349,418.626,589.243,418.7,589.15,418.762Z" transform="translate(171.371 288.698)" fill="#ffaa83" fill-rule="evenodd"/><path d="M602.307,417.4a16.361,16.361,0,0,1-.847,2.119l-1.06.212A7.323,7.323,0,0,0,602.307,417.4Z" transform="translate(207.796 284.975)" fill="#ffaa83" fill-rule="evenodd"/><path d="M616.866,439.957q-6.141,4.024-9.323,5.721-4.113,2.994-6.886,5.3l.106-.212a63.15,63.15,0,0,1,3.178-5.721l2.119-3.178a54.972,54.972,0,0,0-2.754-5.721l.318.106a33.826,33.826,0,0,0-8.052-9.853,30.813,30.813,0,0,0-5.191-3.814,23.912,23.912,0,0,0-13.137-3.5L574.7,414a34.138,34.138,0,0,1,3.6-2.437,42,42,0,0,1,14.62-5.933,19.126,19.126,0,0,1,20.341,11.23,25.414,25.414,0,0,1,1.7,12.078,20.961,20.961,0,0,1-3.284,8.794,23.371,23.371,0,0,1-2.013,2.649l7.416-.848,1.483-.636-1.483.848Z" transform="translate(124.585 246.315)" fill="#e8effd" fill-rule="evenodd"/><path d="M606.662,426.543q-4.03-8.9-7.84-18.011l-1.484-3.178q-2.117-7.209,2.119-10.806l4.238-1.271q8.48-2.333,19.494-10.806,13.984-11.232,18.434-15.256a21.51,21.51,0,0,0,5.933-7.2q2.117-3.388.212-8.687,6.357-1.062,9.959,4.874a67.631,67.631,0,0,1,4.449,11.23,35.539,35.539,0,0,1-11.018,16.739q-8.264,6.992-15.468,14.408Q628.279,405.566,606.662,426.543Z" transform="translate(195.601 70.512)" fill="#e8effd" fill-rule="evenodd"/><path d="M594.324,359.762a.185.185,0,0,1,.212.212l1.059,1.06a2.326,2.326,0,0,1,.424.848c.14.144.356.356.636.636.284.424.564.848.848,1.271,1.131,1.127,2.4,2.475,3.814,4.026v7.84a6.635,6.635,0,0,0-.424,1.271l-.636,1.7-.212.212a30.805,30.805,0,0,1-2.331,6.357,36.111,36.111,0,0,1-2.755,6.78q-1.907,3.388-2.542,1.271v-.424a26.144,26.144,0,0,1-.212-6.357q.425-11.442.635-17.375a37.923,37.923,0,0,1,1.271-9.535Z" transform="translate(181.029 97.67)" fill="#e8effd" fill-rule="evenodd"/><path d="M612.306,450.925a16.361,16.361,0,0,0,.847-2.119,1.347,1.347,0,0,1,.212-.318,30.968,30.968,0,0,0,1.8-4.662c.119-.39.224-.78.318-1.165a19.172,19.172,0,0,0,.636-4.026,24.735,24.735,0,0,0-1.907-10.594q-5.295-10.6-16.315-6.992c-.28.144-.568.284-.848.424a115.34,115.34,0,0,1,15.68-8.687,52.407,52.407,0,0,1,17.163-5.085,28.4,28.4,0,0,1,12.713,12.078,26.924,26.924,0,0,1,1.483,3.6q3.216,9.09-.212,21.189c-.233.987-.521,1.975-.847,2.967a112.416,112.416,0,0,1-26.486,3.5C615.1,451.023,613.692,450.984,612.306,450.925Z" transform="translate(196.949 253.568)" fill="#e8effd" fill-rule="evenodd"/><path d="M694.821,454.292l2.542,5.085,18.858,37.186,1.8,3.6.424.848,2.86,5.721.953,1.8.212.53,1.165,2.225.318.53,1.165,2.331.212.53.53.953.106.318.742,1.377.318.635,1.165,2.225.318.636.424.742.212.424.424.848c.131.271.233.517.318.742a6.628,6.628,0,0,1,.212.636,2.142,2.142,0,0,1,0,1.271c-.165.526-.623.809-1.377.848a7.147,7.147,0,0,1-1.06-.106L723,525.274,673.632,427.7a8.111,8.111,0,0,0-5.933-4.662l-128.51-24.9-.953-1.8q-1.907-4.024,1.907-3.178l80.518,15.574,52.972,10.276a7.565,7.565,0,0,1,5.721,4.662Z" transform="translate(4.464 206.023)" fill="#cedefe" fill-rule="evenodd"/><path d="M617.513,559.325A28.4,28.4,0,0,0,604.8,547.247q1.907-2.123,20.341-11.018,11.442-5.721,21.189-9.959a86.168,86.168,0,0,1,8.052-3.178c.987-.424,1.907-.78,2.755-1.059v-.212a203.678,203.678,0,0,1-2.967-27.334q-.636-18.65-1.483-28.181-2.116-30.512-11.442-49.37a23.888,23.888,0,0,0-1.907-3.814,44.077,44.077,0,0,1,.636-14.408Q644,382.4,660.315,370.533a43.981,43.981,0,0,1,10.806-5.933q9.115.845,7.84,17.587a104.36,104.36,0,0,0-1.271,39.835q3.178,20.977,4.026,37.716c.063.619.131,1.221.212,1.8q.68,7.056,1.059,11.76c.14.708.28,1.483.424,2.331q.636,4.03.848,25.85.42,21.613-13.984,31.359-4.933,3.312-10.171,6.357A209.537,209.537,0,0,1,639.55,549.79Q623.023,557,617.513,559.325Z" transform="translate(222.042 114.021)" fill="#cedefe" fill-rule="evenodd"/><path d="M589.967,418.45l2.437.424c-.186.148-.365.288-.53.424l-2.649-.424C589.45,418.738,589.7,418.594,589.967,418.45Z" transform="translate(171.614 288.374)" fill="#cedefe" fill-rule="evenodd"/><path d="M585.675,421.977a13.5,13.5,0,0,0,1.165-.953l1.271.212h2.543l3.6-.636c-.305.36-.589.716-.848,1.059a5.753,5.753,0,0,0-.848,1.483l-3.5-.636h-.212Z" transform="translate(160.119 295.335)" fill="#cedefe" fill-rule="evenodd"/><path d="M640.372,420.385l35.6,5.827,1.695.636.424.212.212.212v.424h-.212l-.424.212L591,443.586l-7.2.424-.212-1.271-.636-.848h3.178l45.556-8.263v-.212h1.695l.636-.212-.212-.424h-.636l-25-4.344c1.187-.305,2.526-.687,4.026-1.165a2.921,2.921,0,0,0,1.272-.212q15.86-5.632,20.023-7.734Z" transform="translate(151.297 291.207)" fill="#cedefe" fill-rule="evenodd"/><path d="M583.7,420.15l3.5.53a5.822,5.822,0,0,0-.318,1.06l-4.556-.848A15.58,15.58,0,0,0,583.7,420.15Z" transform="translate(149.273 293.878)" fill="#cedefe" fill-rule="evenodd"/><path d="M584.362,424.85l.422.215-.422.211h-.211v.211l.211-.211v.211l.422-.422v-.215Z" transform="translate(155.183 309.095)" fill="#cedefe" fill-rule="evenodd"/><path d="M584.245,425.111l-.422-.211-.422.422.633-.211-.633.422Z" transform="translate(152.755 309.259)" fill="#cedefe" fill-rule="evenodd"/><path d="M584.495,425.111h-.211l-.211-.211-.422.211h.633v.211h.211Z" transform="translate(153.564 309.259)" fill="#cedefe" fill-rule="evenodd"/><path d="M565.993,405.979a23.389,23.389,0,0,1,13.985,3.814,21.733,21.733,0,0,1,9.535,11.018q2.752,6.783-.636,12.078-3.178,5.3-10.383,5.721a23.8,23.8,0,0,1-14.2-3.39,24.237,24.237,0,0,1-9.535-11.23q-2.543-6.776.635-11.866Q558.787,406.612,565.993,405.979Z" transform="translate(56.377 247.873)" fill="#cedefe" fill-rule="evenodd"/><path d="M727.466,522.2l1.06,2.225q2.123,4.03-1.695,3.39l-133.384-25.85h-.106a8.217,8.217,0,0,1-4.768-3.072,11.1,11.1,0,0,1-1.165-1.8l-50.429-99.8q-2.124-4.03,1.695-3.178l4.979.954,128.51,24.9a8.111,8.111,0,0,1,5.933,4.661Z" transform="translate(0 209.098)" fill="#789eeb" fill-rule="evenodd"/><path d="M689.384,440.583c.754-.038,1.212-.322,1.377-.848l.742.106h1.271l2.543-.636-4.555-.742a6.616,6.616,0,0,0-.212-.636l6.039,1.165,6.568-1.06-9.959-2.119h-.424l-2.966.424-.212-.424,1.271-.212-.848-.424-.847-.106-.318-.636,5.4-1.377-6.144-.848h-.424l-.318-.636,2.861.212,5.721-.636-.424-.212-5.721-1.271-.424-.212-2.755.742-.106-.318.953-.212-.636-.636-.847-.106-.212-.53,5.509-1.271-6.145-.847-.53-.212-.318-.53.424.106h.636l6.568-1.271-5.191-.954A11.265,11.265,0,0,0,687.8,423l4.556.848a4.157,4.157,0,0,0-.106.742l-5.615,1.059,7.628,1.483h1.7l1.377-.212a10.628,10.628,0,0,0,1.907-.212l3.284-.424-1.377-.318a6.1,6.1,0,0,0,.848-.424l3.178.53h.212l3.5.636c-.068.135-.136.28-.212.424l-2.966-.636-.212.106v-.106h-.212L704,426.281l-6.781,1.695,6.992.848,4.45-.848a.926.926,0,0,0,.424.636l1.377.212,4.767.636h.636l2.967-.212.212-.212-4.344-.953c.305-.068.619-.14.954-.212l25,4.344-.212.212.636-.212h.212l.212.424-.636.212h-1.695v.212l-45.556,8.264h-3.178l.636.848.212,1.271,7.2-.424,86.662-15.68.424-.212h.212l.424,3.178q-.845,3.388-4.873,3.814L764.5,437.193l-65.579,11.972a29.16,29.16,0,0,1-4.874.53,15.164,15.164,0,0,1-4.45-.53l-11.972-2.013-45.132-7.628-43.119-7.2-2.225-.424L556.743,426.7l-1.483-1.06-1.695-.848-2.119-1.907-1.7-3.39,3.814,4.45,3.178,1.7L689.6,448.529l.636-.212.847-1.271.212-1.059V444.5Z" transform="translate(43.803 291.774)" fill="#789eeb" fill-rule="evenodd"/><path d="M588.768,421.4l-.637.211-5.93,1.06,5.508,1.27,6.779-1.27Z" transform="translate(148.869 297.927)" fill="#789eeb" fill-rule="evenodd"/><path d="M584.353,421.123a3.669,3.669,0,0,1-2.966-.318l-.212-.53A3.235,3.235,0,0,0,584.353,421.123Z" transform="translate(145.55 294.283)" fill="#789eeb" fill-rule="evenodd"/><path d="M616.145,423.393l-6.994-1.482h-.211l-1.059.637-5.935.633v.211l-4.238-.422-.211-.848-3.178.211-4.449-.633-5.719,1.693,6.779.848,5.719-1.059h.215v.426l-4.453,1.059,16.318,2.541.849.211,6.141-1.271-4.022-.637h.633l-.211-.211,1.908-.422.211.633,7.205,1.059,2.752-.422-.211-1.482-6.357-1.059-1.482.211Z" transform="translate(155.183 298.897)" fill="#789eeb" fill-rule="evenodd"/><path d="M584.8,424.421l.211.211,6.994,1.06,5.719-1.482H597.3v-.215l-6.146-.844Z" transform="translate(157.286 303.593)" fill="#789eeb" fill-rule="evenodd"/><path d="M585.2,423.874l12.287,1.9,6.783-.844-13.14-2.334-5.93,1.059Z" transform="translate(158.582 301.81)" fill="#789eeb" fill-rule="evenodd"/><path d="M595.72,423.521l-5.935-1.271-.844.211-5.616.848,5.616,1.06h.844l5.935-.637Z" transform="translate(152.512 300.678)" fill="#789eeb" fill-rule="evenodd"/><path d="M588.573,424.969l6.99-.844-5.719-1.275-6.994,1.275Z" transform="translate(150.972 302.619)" fill="#789eeb" fill-rule="evenodd"/><path d="M599.447,423.15l-1.7.422h.211l1.7-.211Z" transform="translate(199.215 303.593)" fill="#789eeb" fill-rule="evenodd"/><path d="M565.993,405.979q-7.2.636-10.594,6.145-3.178,5.086-.635,11.866a24.237,24.237,0,0,0,9.535,11.23,23.8,23.8,0,0,0,14.2,3.39q7.208-.426,10.383-5.721,3.388-5.3.636-12.078a21.733,21.733,0,0,0-9.535-11.018A23.389,23.389,0,0,0,565.993,405.979Z" transform="translate(56.377 247.873)" fill="#789eeb" fill-rule="evenodd"/><path d="M563.3,485.507l10.806.318a89.888,89.888,0,0,1,11.018-.212q7.6.324,9.853.318a1,1,0,0,1,.318.106q11.016,2.543,20.129-2.119a96.443,96.443,0,0,1,21.825-9.323q20.341-6.992,21.4-7.416l1.483.212q1.907.845,11.866,1.7a56.524,56.524,0,0,1,14.2,3.39,90.2,90.2,0,0,1,10.594,3.814q3.6,2.327,6.357.636a45.66,45.66,0,0,1,12.925,1.7.879.879,0,0,1,.636-.212v.212a16.8,16.8,0,0,0,3.6.424,3.35,3.35,0,0,0,.848.212,178.526,178.526,0,0,1,17.587,4.873q8.473,3.178,12.5,3.6,7.627,1.7,11.23-3.6,5.085,0,6.357-3.178.852-3.178-2.331-7.2,14.194-6.573,22.672-23.1a79.309,79.309,0,0,0,6.251-16.951q46.512,10.463,46.509,25.215,0,15.046-48.31,25.85-48.52,10.6-116.962,10.594Q610.723,495.359,563.3,485.507Z" transform="translate(87.675 337.75)" fill="#4baaac" fill-rule="evenodd"/><path d="M684.835,422.524v-.212l6.145,1.271,8.052-1.483v.424l-2.119.212v.212l7.416,1.06,2.543-.636.212,1.483-2.755.424-7.2-1.059-.212-.636-1.907.424.212.212h-.635l-3.6-.636ZM560.881,423.9a22.743,22.743,0,0,0-2.331.53,1.213,1.213,0,0,0,.106-.954Zm83.378,25.215q-7.615-2.594-22.142-9.853-10.629-4.907-18.116-8.158l45.132,7.628A50.364,50.364,0,0,0,644.259,449.116Z" transform="translate(72.295 300.192)" fill="#132146" fill-rule="evenodd"/><path d="M674.133,330.5a12.672,12.672,0,0,0,1.483.636,7.24,7.24,0,0,1,1.907,1.7c.144-.14.424-.14.848,0q2.123,1.907,4.45,4.238-3.6,7.628-7.2,14.62T668.2,364.614q-3.6,6.357-5.085,9.111a4.974,4.974,0,0,1-2.755,2.119A26.825,26.825,0,0,0,655.7,375q-4.03-.852-10.594,1.059-4.66.636-15.68,5.509-10.6,4.24-16.315,5.086-8.9,1.481-15.468-1.7a80.38,80.38,0,0,1-9.958-6.145q-5.3-4.024-5.933-9.111a7.015,7.015,0,0,1,1.7.212,103.04,103.04,0,0,0,29.664,1.7q29.03-2.752,44.5-16.527a79.4,79.4,0,0,0,8.263-9.111,84.644,84.644,0,0,0,4.874-7.628c.708-1.835,1.339-3.322,1.907-4.45A21.166,21.166,0,0,1,674.133,330.5Z" transform="translate(147.411 3.613)" fill="#003151" fill-rule="evenodd"/><path d="M602.85,391.183q8.48-12.5,11.442-23.731,1.691-6.566,3.6-18.646,1.271-10.171,2.331-15.256h.212a82.187,82.187,0,0,1,5.509,9.111,55.947,55.947,0,0,1,5.721,24.579q.216,13.775-6.992,23.308l-1.06.848a82.038,82.038,0,0,0-.636-8.687q-.426-5.3-3.814-7.628a22.678,22.678,0,0,0-2.331,3.6,31.643,31.643,0,0,0-2.119,7.416,21.7,21.7,0,0,1-4.45,8.264,4.777,4.777,0,0,0-1.695.636A40.264,40.264,0,0,1,602.85,391.183Z" transform="translate(215.728 13.489)" fill="#003151" fill-rule="evenodd"/><path d="M618.393,434.4a1.213,1.213,0,0,1-.106.954,22.741,22.741,0,0,1,2.331-.53l43.119,7.2q7.488,3.248,18.116,8.158,14.531,7.266,22.142,9.853l-.106.318a89.17,89.17,0,0,1-14.409,27.334A84.6,84.6,0,0,1,679.1,498.077q-26.4-7.558-52.654-14.408c-.6-.123-1.2-.267-1.8-.424q-43.072-11.41-65.473-21.718-13.005-5.95-19.07-11.548,1.691-12.078,12.289-19.07,2.968-1.7,9.959-5.933a79.067,79.067,0,0,1,13.667-6.251,8.217,8.217,0,0,0,4.768,3.072h.106l.106.212,1.7,3.39,2.119,1.907,1.695.848,1.483,1.06Z" transform="translate(12.559 289.265)" fill="#003151" fill-rule="evenodd"/><path d="M594.074,375.513a46.3,46.3,0,0,1,1.059-7.2l.212-.212.636-1.7a6.633,6.633,0,0,1,.424-1.271V362.8q5.511,5.931,10.594,4.874l1.483,3.178q2.333,8.264-2.755,14.2a7.653,7.653,0,0,0-2.119,2.755,26.029,26.029,0,0,0-3.178.212,9.867,9.867,0,0,1-5.933-1.271c-.284-.14-.564-.28-.847-.424a46.753,46.753,0,0,0,0-6.357c.144-.144.144-.212,0-.212a1.845,1.845,0,0,0,.212-.848A31.347,31.347,0,0,1,594.074,375.513Z" transform="translate(185.941 108.193)" fill="#003151" fill-rule="evenodd"/><path d="M705.247,423.675c.068,1.178.106,2.416.106,3.708a114.926,114.926,0,0,0-25.638,27.969A126.148,126.148,0,0,0,667,481.414,38.231,38.231,0,0,1,656.2,491.8a36.674,36.674,0,0,1-3.6,2.543q-3.6,2.333-9.323,5.3-1.055.426-21.4,7.416a96.44,96.44,0,0,0-21.825,9.323q-9.109,4.659-20.129,2.119a1,1,0,0,0-.318-.106q-6.522-3.579-9.429-7.522a26.271,26.271,0,0,0-2.119-2.966c.216-.085.428-.152.636-.212q26.571-10.406,50.853-47.039,1.386-2.364,2.649-4.555,7.882-13.2,12.607-19.917a29.16,29.16,0,0,0,4.874-.53Z" transform="translate(103.054 305.291)" fill="#003151" fill-rule="evenodd"/><path d="M611.636,396.04q-9.109-6.782-11.018-15.044a22.477,22.477,0,0,1,.212-10.171,4.974,4.974,0,0,0,2.755-2.119q1.488-2.752,5.086-9.111,3.814-5.937,7.416-12.925t7.2-14.62a41.711,41.711,0,0,1,5.933,6.357h-.212q-1.061,5.086-2.331,15.256-1.907,12.078-3.6,18.646Q620.11,383.535,611.636,396.04Z" transform="translate(206.941 8.632)" fill="#00558c" fill-rule="evenodd"/><path d="M674.133,334.114a21.17,21.17,0,0,0-1.483,3.39c-.568,1.127-1.2,2.615-1.907,4.45a84.644,84.644,0,0,1-4.874,7.628,79.405,79.405,0,0,1-8.263,9.111q-15.466,13.775-44.5,16.527a103.038,103.038,0,0,1-29.664-1.7,7.015,7.015,0,0,0-1.7-.212v-.424a108.977,108.977,0,0,1,31.571-29.876,84.319,84.319,0,0,1,40.894-13.561A35.256,35.256,0,0,1,674.133,334.114Z" transform="translate(147.411 0)" fill="#00558c" fill-rule="evenodd"/><path d="M605.066,369.833a18.733,18.733,0,0,0-3.6,8.687,18.7,18.7,0,0,1-.848,3.814l-5.3,3.814-2.119-5.721q.635-2.333,1.059-4.45v-1.483a49.886,49.886,0,0,0,.848-6.145c.284.144.564.284.847.424a9.867,9.867,0,0,0,5.933,1.271A26.029,26.029,0,0,1,605.066,369.833Z" transform="translate(184.484 126.163)" fill="#00558c" fill-rule="evenodd"/><path d="M626,479.983a67.021,67.021,0,0,1-3.814-5.721,127.755,127.755,0,0,1-7.2-16.1q-6.777-17.373-9.535-22.672,9.115-2.962,14.62,11.442,1.7,3.814,4.661,12.713a46.754,46.754,0,0,0,5.3,9.959q3.178,4.024,2.331,7.2Q631.088,479.983,626,479.983Z" transform="translate(224.146 341.897)" fill="#00558c" fill-rule="evenodd"/><path d="M623.586,418.006q-11.893,3.611-21.825,6.992l-6.886-1.06.106-.106q1.907.636,13.349-2.754,7.628-2.543,9.747-2.966h.212l1.06-.212C620.734,417.959,622.145,418,623.586,418.006Z" transform="translate(189.907 286.593)" fill="#00558c" fill-rule="evenodd"/><path d="M704.248,436.408a50.367,50.367,0,0,1,4.873-10.382l11.972,2.013a15.163,15.163,0,0,0,4.45.53q-4.723,6.725-12.607,19.917-1.265,2.193-2.649,4.555Q686,489.674,659.434,500.08c-.208.059-.42.127-.636.212a15.033,15.033,0,0,1-1.059-8.9l6.039-5.721q-22.28-7.279-36.763-10.806-3.6-.845-10.382-2.966-6.992-1.907-13.773-3.6a3.462,3.462,0,0,1-.53-.212,62.582,62.582,0,0,0-9.641-2.119q-5.085,2.327-8.9,4.238-2.116,1.271-4.026,2.331a37.607,37.607,0,0,0-11.442,9.323q.635-6.357,6.78-10.806,3.178-2.962,11.23-6.78-6.567-2.327-20.341-5.721-11.658-3.6-18.434-9.535a25.089,25.089,0,0,1-5.615-8.052,28.129,28.129,0,0,1-1.8-13.137,6.313,6.313,0,0,0,.212-1.483q6.064,5.594,19.07,11.548,22.4,10.31,65.473,21.718c.6.157,1.2.3,1.8.424q26.253,6.846,52.654,14.408a84.592,84.592,0,0,0,10.382-10.382,89.168,89.168,0,0,0,14.409-27.334Z" transform="translate(12.306 312.9)" fill="#00558c" fill-rule="evenodd"/><path d="M595.123,440.35q2.543.636,5.721,1.271,6.357,1.7,10.594,2.543a8.973,8.973,0,0,0,1.907,6.78,56.524,56.524,0,0,0-14.2-3.39q-9.955-.845-11.866-1.7l-1.483-.212Q591.521,442.685,595.123,440.35Z" transform="translate(160.524 359.281)" fill="#00558c" fill-rule="evenodd"/><path d="M599.986,444.9a.88.88,0,0,0-.636.212,6.068,6.068,0,0,0,.212-1.059A2.226,2.226,0,0,1,599.986,444.9Z" transform="translate(204.396 371.261)" fill="#713d22" fill-rule="evenodd"/><path d="M649.534,435.1v.212q-2.333,1.907-6.357,5.3-9.109,7.412-8.687,13.773,1.487,14.41,23.519,17.587a41.9,41.9,0,0,1,8.264,1.907,67.016,67.016,0,0,0,3.814,5.721q-3.6,5.3-11.23,3.6-4.024-.419-12.5-3.6a178.5,178.5,0,0,0-17.587-4.874,3.349,3.349,0,0,1-.848-.212,16.793,16.793,0,0,1-3.6-.424v-.212a2.226,2.226,0,0,0-.424-.848,6.064,6.064,0,0,1-.212,1.059,45.66,45.66,0,0,0-12.925-1.7q-2.758,1.7-6.357-.636a90.208,90.208,0,0,0-10.594-3.814,8.973,8.973,0,0,1-1.907-6.78c.144-.708.284-1.339.424-1.907q0-.21,4.238-8.687l-.212-3.39a93.634,93.634,0,0,0,13.137,2.543,34.037,34.037,0,0,0,13.137,0A222.35,222.35,0,0,1,649.534,435.1Z" transform="translate(180.063 342.283)" fill="#0d8e90" fill-rule="evenodd"/><path d="M616.885,479.841l-4.45-.106a91.245,91.245,0,0,1-29.241-1.907,178.457,178.457,0,0,1-28.181-9.111,13.638,13.638,0,0,1-7.84-6.992,2.461,2.461,0,0,1-.424-.636,24.447,24.447,0,0,1,2.755.636q14.41,5.085,16.527,5.509,7.482,1.494,18.328,3.39,3.007.508,6.251,1.06,17.583,2.969,20.553,2.543a11.1,11.1,0,0,0,5.085-1.271q1.271-.845,2.331-1.483-11.868-9.954-38.352-22.884-5.6-2.8-9.853-4.873-5.136-2.523-8.37-4.026,3.814-1.907,8.9-4.238a62.583,62.583,0,0,1,9.641,2.119,3.457,3.457,0,0,0,.53.212q6.783,1.7,13.773,3.6,6.783,2.123,10.382,2.966,14.481,3.522,36.763,10.806l-6.039,5.721a15.032,15.032,0,0,0,1.059,8.9,26.3,26.3,0,0,1,2.119,2.966q2.905,3.941,9.429,7.522-2.25.006-9.853-.318a89.889,89.889,0,0,0-11.018.212Z" transform="translate(34.09 343.416)" fill="#0d8e90" fill-rule="evenodd"/><path d="M633.7,473.875a41.9,41.9,0,0,0-8.264-1.907q-22.039-3.178-23.519-17.587-.426-6.357,8.687-13.773,4.024-3.394,6.357-5.3V435.1q2.759,5.3,9.535,22.672A127.759,127.759,0,0,0,633.7,473.875Z" transform="translate(212.638 342.283)" fill="#1fbcbf" fill-rule="evenodd"/><path d="M547.441,457.851a15.3,15.3,0,0,1-.212-9.747,37.6,37.6,0,0,1,11.442-9.323q1.907-1.062,4.026-2.331,3.229,1.5,8.37,4.026,4.259,2.079,9.853,4.873,26.481,12.923,38.352,22.884-1.062.636-2.331,1.483a11.1,11.1,0,0,1-5.085,1.271q-2.969.426-20.553-2.543-3.242-.547-6.25-1.06Q574.2,465.491,566.723,464q-2.117-.419-16.527-5.509A24.44,24.44,0,0,0,547.441,457.851Z" transform="translate(33.399 346.654)" fill="#1fbcbf" fill-rule="evenodd"/><path d="M648.381,342.048a22.477,22.477,0,0,0-.212,10.171,27.9,27.9,0,0,0-8.264-.848,48.557,48.557,0,0,0-18.222,5.085q-7.628,4.45-25.85,6.145a36.066,36.066,0,0,1-9.959-1.271,9.928,9.928,0,0,1-.212-1.907l-.212-7.84a.609.609,0,0,0,.212-.424q6.567,3.178,15.468,1.7,5.721-.852,16.315-5.085,11.016-4.875,15.68-5.509,6.566-1.907,10.594-1.059A26.83,26.83,0,0,1,648.381,342.048Z" transform="translate(159.391 37.41)" fill="#ed9870" fill-rule="evenodd"/><path d="M585.082,439.659a3.235,3.235,0,0,1-3.178-.848l-.953-1.8a1.669,1.669,0,0,0,.212-.636h.212a54.1,54.1,0,0,1,8.158-8.582c.551-.492,1.119-.992,1.7-1.483.331-.237.644-.483.953-.742q13.775-11.016,19.282-11.018A144.468,144.468,0,0,1,599.914,427.9c-.288.3-.572.619-.848.953q-2.053,2.047-4.343,4.344a38.9,38.9,0,0,0-3.39,2.755,30.471,30.471,0,0,1-3.178,2.331,15.6,15.6,0,0,1-1.377.742,11.258,11.258,0,0,1-1.06.424A3.859,3.859,0,0,1,585.082,439.659Z" transform="translate(144.821 275.747)" fill="#ed9870" fill-rule="evenodd"/><path d="M584.306,425.417q2.771-2.3,6.886-5.3,3.178-1.691,9.323-5.721a24.128,24.128,0,0,1,2.966-.848q2.416-.483,3.391.212a3.276,3.276,0,0,1-.318.318q-4.488,5.034-14.938,13.031c-.915.716-1.759,1.39-2.543,2.013q-3.4,2.549-5.615,4.026c-.7.466-1.335.856-1.907,1.165l-1.8-3.6a23.456,23.456,0,0,1,3.814-4.661C583.8,425.858,584.043,425.641,584.306,425.417Z" transform="translate(140.936 271.872)" fill="#ed9870" fill-rule="evenodd"/><path d="M604.6,359.88a21.7,21.7,0,0,0,4.45-8.264,31.646,31.646,0,0,1,2.119-7.416,12.653,12.653,0,0,1,2.542,6.357q0,.21.212,5.933-.635,5.931-5.085,6.568Q604.814,363.484,604.6,359.88Z" transform="translate(221.394 47.971)" fill="#ed9870" fill-rule="evenodd"/><path d="M592.1,438.346a13.5,13.5,0,0,1-1.165.953,6.1,6.1,0,0,1-.848.424,10.133,10.133,0,0,1-3.814.953c-.445.017-.907.017-1.377,0a1.9,1.9,0,0,0-.848.212,20.5,20.5,0,0,1,1.059-2.225,2.61,2.61,0,0,1,.212-.318c.2-.356.407-.708.636-1.06a50.065,50.065,0,0,1,9.429-9.747,10,10,0,0,0,.848-.636,2.3,2.3,0,0,0,.318-.212q13.565-11.016,20.553-11.442l.212,1.483q.216,1.907-5.933,8.052a16.3,16.3,0,0,1-2.543,2.755,9.7,9.7,0,0,0-2.331,1.271c-.169.127-.347.271-.53.424a1.526,1.526,0,0,0-.318.212l-9.747,5.721a2.041,2.041,0,0,0-1.059.848,1.733,1.733,0,0,0-1.06.636,2.32,2.32,0,0,0-.635.424A11.794,11.794,0,0,1,592.1,438.346Z" transform="translate(154.858 278.013)" fill="#ed9870" fill-rule="evenodd"/><path d="M588.727,457.529l-1.377-.212L588.2,457l.212-.106c.309-.144.627-.288.954-.424.381-.157.767-.3,1.165-.424q7.088-2.937,17.375-6.674l.318-.106h.106c.568-.225,1.132-.436,1.7-.636,1.25-.432,2.449-.86,3.6-1.271.521-.191,1.051-.369,1.589-.53q17.945-6.852,23.837-13.773a12.146,12.146,0,0,0,2.755-5.085,7.921,7.921,0,0,0,.212-2.649q-.21-3.395-6.78-8.476-4.87-3.6-5.933-5.3,11.016-3.6,16.315,6.992a24.734,24.734,0,0,1,1.907,10.594,19.176,19.176,0,0,1-.636,4.026c-.093.385-.2.776-.318,1.165a30.974,30.974,0,0,1-1.8,4.662,1.344,1.344,0,0,0-.212.318,7.322,7.322,0,0,1-1.907,2.331h-.212q-2.116.426-9.747,2.966-11.442,3.394-13.349,2.754l-.106.106q-4.157,2.1-20.023,7.734a2.92,2.92,0,0,1-1.272.212c-1.5.479-2.839.86-4.026,1.165-.335.072-.648.144-.954.212A20.17,20.17,0,0,1,588.727,457.529Z" transform="translate(165.543 263.068)" fill="#ed9870" fill-rule="evenodd"/><path d="M638.347,347.848l1.06-.848q.635,3.388,1.271,7.628.636,4.03,1.7,10.171,1.907,5.295-.212,8.687a21.509,21.509,0,0,1-5.933,7.2q-4.45,4.024-18.434,15.256-11.016,8.48-19.494,10.806,6.567-6.357,9.959-9.535a132.95,132.95,0,0,0,9.959-9.747q9.325-12.923,6.145-25.85,6.357,1.487,9.747-2.755Q638.559,352.929,638.347,347.848Z" transform="translate(200.996 57.037)" fill="#ce7c56" fill-rule="evenodd"/><path d="M598.714,440.577c-.263.224-.508.441-.741.636a23.458,23.458,0,0,0-3.814,4.662L575.3,408.688a23.912,23.912,0,0,1,13.137,3.5A30.813,30.813,0,0,1,593.628,416a37.712,37.712,0,0,1,7.734,9.747,54.978,54.978,0,0,1,2.755,5.721L602,434.644a63.165,63.165,0,0,0-3.178,5.721Z" transform="translate(126.528 256.712)" fill="#ce7c56" fill-rule="evenodd"/><path d="M607.013,361.4q-4.234,3.6-2.119,10.806-5.085,1.055-10.594-4.874v-5.509A91.073,91.073,0,0,0,607.013,361.4Z" transform="translate(188.045 103.66)" fill="#ce7c56" fill-rule="evenodd"/><path d="M592.6,359.711V359.5l.215.422Z" transform="translate(182.54 97.508)" fill="#ffb087" fill-rule="evenodd"/><path d="M600.408,566.888a181.243,181.243,0,0,0,1.271-21.613,187.606,187.606,0,0,0-8.476-57,155.988,155.988,0,0,1-8.9-31.148q-4.875-63.14,26.274-80.729,3.6-1.487,7.2-3.178c.992-.424,1.907-.848,2.754-1.271l1.059,2.119v.212a37.921,37.921,0,0,0-1.271,9.535q-.209,5.931-.635,17.375a26.144,26.144,0,0,0,.212,6.357v.424l4.238,15.68,2.119,5.721,5.3-3.814,17.163-11.442q21.612-20.977,29.028-27.969,7.2-7.412,15.468-14.408A35.539,35.539,0,0,0,704.233,355q2.123,1.481,4.662,3.39a13,13,0,0,1,2.331,1.271q4.876,3.395,11.442,8.476a204.152,204.152,0,0,0,18.01,13.137,65.647,65.647,0,0,1,17.587,10.382q-33.48-9.109-51.277,22.672-14.62,25.007-9.959,54.879a60.12,60.12,0,0,1-3.178,33.266,165.27,165.27,0,0,0-7.2,41.954q0,25.852-31.995,27.757-31.783,1.481-42.8-1.907Q605.913,568.791,600.408,566.888Z" transform="translate(153.545 82.939)" fill="#ffd22e" fill-rule="evenodd"/><path d="M606.228,499.6c-.114.068-.22.14-.318.212l-1.271.636-1.483.636-7.416.848a23.385,23.385,0,0,0,2.013-2.649,20.962,20.962,0,0,0,3.284-8.794,25.412,25.412,0,0,0-1.7-12.078A19.126,19.126,0,0,0,579,467.179q2.969-3.178,14.832-15.256,9.325-9.109,15.468-14.2,0-9.116-.424-25.85-.636-17.8-.635-25.427a187.61,187.61,0,0,1,8.475,57,181.243,181.243,0,0,1-1.271,21.613A147.556,147.556,0,0,1,606.228,499.6Z" transform="translate(138.508 184.766)" fill="#aac5fc" fill-rule="evenodd"/><path d="M616.226,360.05q-31.148,17.583-26.274,80.729-2.117-5.511-3.39-8.687-1.061-3.388-3.178-12.5a107.634,107.634,0,0,1-1.483-13.349,106.259,106.259,0,0,1,2.119-13.137,41.755,41.755,0,0,1,13.137-20.977,44.375,44.375,0,0,1,8.476-6.357A77.706,77.706,0,0,1,616.226,360.05Z" transform="translate(147.897 99.289)" fill="#aac5fc" fill-rule="evenodd"/><path d="M656.111,571.639a209.869,209.869,0,0,1-21.613,8.052q-9.808,3.433-20.129,6.568-3.051.992-6.145,1.907c.326-.992.614-1.979.847-2.967q3.433-12.1.212-21.189a26.916,26.916,0,0,0-1.483-3.6q5.511-2.327,22.036-9.535a209.537,209.537,0,0,0,20.553-10.594q5.232-3.045,10.171-6.357,14.41-9.745,13.984-31.359-.209-21.822-.848-25.85c-.144-.848-.284-1.623-.424-2.331q-.382-4.7-1.059-11.76c-.081-.58-.148-1.182-.212-1.8q-.852-16.737-4.026-37.716a104.36,104.36,0,0,1,1.271-39.835q1.271-16.744-7.84-17.587,17.163-5.931,30.3,12.925l.106.212q4.774,11.582,5.191,28.6,0,9.745-.424,29.241,3.178,19.706,3.178,48.31.21,16.1,0,48.31-.21,16.108-13.773,26.486-11.233,8.69-28.817,11.442C656.806,571.372,656.45,571.512,656.111,571.639Z" transform="translate(231.755 112.937)" fill="#aac5fc" fill-rule="evenodd"/><path d="M596.438,389.332l-4.238-15.68q.635,2.117,2.542-1.271a36.111,36.111,0,0,0,2.755-6.78,3.369,3.369,0,0,1,1.271.848,31.36,31.36,0,0,0-.212,3.39,1.846,1.846,0,0,1-.212.848c.144,0,.144.068,0,.212a46.773,46.773,0,0,1,0,6.357,49.874,49.874,0,0,1-.848,6.145v1.483Q597.078,387,596.438,389.332Z" transform="translate(181.246 117.259)" fill="#aac5fc" fill-rule="evenodd"/><path d="M604.273,364.7q3.814,9.116,7.84,18.011L594.95,394.153a18.694,18.694,0,0,0,.848-3.814,18.732,18.732,0,0,1,3.6-8.687,7.652,7.652,0,0,1,2.119-2.755Q606.6,372.959,604.273,364.7Z" transform="translate(190.15 114.345)" fill="#aac5fc" fill-rule="evenodd"/><path d="M608.894,364.1a46.3,46.3,0,0,0-1.059,7.2,3.368,3.368,0,0,0-1.271-.848A30.805,30.805,0,0,0,608.894,364.1ZM591.837,594.846l-2.437-.424.212-.106a51.316,51.316,0,0,1,5.933-2.225Q593.4,593.7,591.837,594.846Z" transform="translate(172.18 112.402)" fill="#a7c4e4" fill-rule="evenodd"/><path d="M667.532,551.874a52.409,52.409,0,0,0-17.163,5.085,115.347,115.347,0,0,0-15.68,8.688q-6.9.839-19.07,1.271h-2.754c-.309.038-.627.076-.954.106h-.848a17.8,17.8,0,0,1-2.013.106l-13.137,2.649a38.547,38.547,0,0,0-10.489,5.191,147.551,147.551,0,0,0,9.217-34.538q5.511,1.907,11.442,3.39,11.016,3.388,42.8,1.907,32-1.907,31.995-27.757a165.275,165.275,0,0,1,7.2-41.954,60.12,60.12,0,0,0,3.178-33.266q-4.66-29.876,9.959-54.879,17.8-31.783,51.277-22.672a.187.187,0,0,1,.212.212,40.341,40.341,0,0,1,11.654,16.951h-.106l-.106-.212q-13.139-18.854-30.3-12.925a43.981,43.981,0,0,0-10.806,5.933q-16.318,11.862-20.341,28.181a44.075,44.075,0,0,0-.636,14.408,23.883,23.883,0,0,1,1.907,3.814q9.319,18.86,11.442,49.37.845,9.535,1.483,28.181a203.669,203.669,0,0,0,2.967,27.334v.212c-.848.28-1.767.636-2.755,1.059a86.151,86.151,0,0,0-8.052,3.178q-9.751,4.24-21.189,9.959Q669.439,549.755,667.532,551.874Z" transform="translate(159.31 109.395)" fill="#f3a90f" fill-rule="evenodd"/><path d="M656.707,440.428q1.347,6.223,2.649,11.336,3.814,24.155-9.111,33.9c-.216-.174-.432-.352-.636-.53a61.733,61.733,0,0,0,2.119-10.7q0-6.141-2.331-9.323a68.57,68.57,0,0,0-8.9-11.866q-5.511-5.931-11.654-12.5A58.257,58.257,0,0,0,617.4,431.21a31.942,31.942,0,0,0-8.052-3.39q10.323-3.134,20.129-6.568a209.886,209.886,0,0,0,21.613-8.052Q654.054,428.786,656.707,440.428Z" transform="translate(236.773 271.376)" fill="#f3a90f" fill-rule="evenodd"/><path d="M597.757,506.914,591.4,504.16A126.151,126.151,0,0,1,604.113,478.1a114.927,114.927,0,0,1,25.638-27.969c0-1.293-.038-2.53-.106-3.708l16.845-3.072q4.024-.42,4.873-3.814l-.424-3.178v-.424l-.212-.212-.424-.212-1.695-.636-35.6-5.827q9.929-3.382,21.825-6.992a112.419,112.419,0,0,0,26.486-3.5q3.1-.922,6.145-1.907a31.94,31.94,0,0,1,8.052,3.39,58.25,58.25,0,0,1,11.442,9.535q6.147,6.566,11.654,12.5a68.571,68.571,0,0,1,8.9,11.866q2.333,3.178,2.331,9.323a61.736,61.736,0,0,1-2.119,10.7c-.072.246-.148.492-.212.742q-1.316,7.749-3.072,14.2a79.31,79.31,0,0,1-6.251,16.951q-8.473,16.527-22.672,23.1a46.755,46.755,0,0,1-5.3-9.959q-2.969-8.9-4.662-12.713-5.511-14.41-14.62-11.442a222.354,222.354,0,0,0-26.91,14.62,34.04,34.04,0,0,1-13.137,0A93.634,93.634,0,0,1,597.757,506.914Z" transform="translate(178.656 282.546)" fill="#010613" fill-rule="evenodd"/><path d="M602.409,437.3l6.357,2.755.212,3.39q-4.24,8.474-4.238,8.687c-.14.568-.28,1.2-.424,1.907q-4.233-.852-10.594-2.543-3.178-.636-5.721-1.271a36.656,36.656,0,0,0,3.6-2.543A38.228,38.228,0,0,0,602.409,437.3Z" transform="translate(167.647 349.406)" fill="#0c1838" fill-rule="evenodd"/><path d="M690.843,439.9a2.141,2.141,0,0,0,0-1.271l4.556.742-2.543.636h-1.271Zm-1.377.848,1.907,3.92v1.483l-.212,1.059-.847,1.271-.636.212L556.824,425.807l-3.178-1.7-3.814-4.45-.106-.212L683.109,445.3q3.814.636,1.695-3.39l-1.059-2.225,4.662.953A7.156,7.156,0,0,0,689.465,440.745Zm4.45-13.031,5.721,1.271-6.78,1.271-5.509-1.271,5.933-1.06Zm-7.2,2.649,2.755-.742.424.212,5.721,1.271.424.212-5.721.636-2.861-.212Zm1.059,2.013h.424l6.145.848-5.4,1.377Zm1.484,2.861.847.106.848.424-1.271.212Zm.635,1.165,2.966-.424h.424l9.959,2.119-6.568,1.06-6.039-1.165c-.085-.225-.186-.47-.318-.742Zm-4.026-7.84L684.7,426.23l.53.212,6.145.847Zm.212.53.847.106.636.636-.953.212Zm.742-5.509,5.191.954-6.568,1.271H684.8l-.424-.106-1.165-2.225a3.669,3.669,0,0,0,2.966.318A3.853,3.853,0,0,0,686.817,423.582Zm5.509,1.166c-.021,1.36.937,2.208,2.86,2.542a1.9,1.9,0,0,1,.848-.212c.47.017.932.017,1.377,0a10.134,10.134,0,0,0,3.814-.953l1.377.318-3.284.424a10.634,10.634,0,0,1-1.907.212l-1.377.212h-1.7l-7.628-1.483Zm16.421,3.39-4.45.848-6.992-.848,6.781-1.695,1.271.212h.212v.106l.212-.106,2.966.636A1.437,1.437,0,0,0,708.747,428.137Zm-2.966,1.483,2.543.848h-.212l-5.721,1.059-6.78-.847,5.721-1.7Zm7.628,1.271v-.424l5.933-.636,1.059-.636h.212l6.992,1.483-8.052,1.483Zm0,.212,6.145,1.059,3.6.636,4.026.636-6.145,1.271-.848-.212-16.315-2.543,4.45-1.059,1.483-.212Zm-15.044,5.3,6.357-1.271,6.145.848v.212h.424l-5.721,1.483-6.992-1.06Zm6.145-3.814v.212l-5.933.636h-.847l-5.615-1.06,5.615-.848.847-.212Zm-4.45,1.483v-.212l5.933-1.059,13.137,2.331-6.781.848Zm-4.238,1.907-5.721-.848,6.992-1.271,5.721,1.271Zm31.783-4.873,1.483-.212,6.357,1.059-2.543.636-7.416-1.06v-.212Zm-17.057-2.119a20.17,20.17,0,0,0,4.238-.742l4.344.953-.212.212-2.967.212h-.636Z" transform="translate(43.722 291.612)" fill="#455d9d" fill-rule="evenodd"/><path d="M597.808,421.317l3.92-.741-.106.106-3.6.636Zm34.326,7.416-.636.212.212-.212Zm-46.827,10.383v.212H585.1v-.212h-.635l.424-.212.212.212Zm-1.059,0-.847.424.636-.424-.636.212.424-.424Zm2.543-.424h.424v.212l-.424.424v-.212l-.212.212v-.212h.212l.424-.212Zm59.117-7.2.212.212-1.7.212h-.212Z" transform="translate(152.754 295.254)" fill="red" fill-rule="evenodd"/><path d="M580.275,418.824a7.271,7.271,0,0,0,4.767-.424,33.359,33.359,0,0,1-1.483,5.509h-.212a1.669,1.669,0,0,1-.212.636Zm31.571,8.794-3.92.741H605.6l-1.271-.212a11.82,11.82,0,0,0,1.06-1.271,2.319,2.319,0,0,1,.635-.424,1.733,1.733,0,0,1,1.06-.636,2.041,2.041,0,0,1,1.059-.848l9.747-5.721c.093-.064.2-.136.318-.212l2.649.424q-2.86,2.225-3.39,2.754A36.36,36.36,0,0,0,611.846,427.617Zm-18.01-1.271-3.5-.53a30.478,30.478,0,0,0,3.178-2.331,38.891,38.891,0,0,1,3.39-2.755q.635-.21-2.119,3.814A10.474,10.474,0,0,0,593.836,426.346Z" transform="translate(142.636 288.212)" fill="#89abd0" fill-rule="evenodd"/><path d="M586.55,422.011l3.178-.211.211.848,4.238.422v.426l-3.6-.426-1.481.215v-.426Z" transform="translate(162.952 299.22)" fill="#2c4482" fill-rule="evenodd"/></g></svg>